%TF.GenerationSoftware,KiCad,Pcbnew,7.0.8*%
%TF.CreationDate,2024-02-19T13:09:21+00:00*%
%TF.ProjectId,HW_MoveCritic_KiCad_Project,48575f4d-6f76-4654-9372-697469635f4b,rev?*%
%TF.SameCoordinates,Original*%
%TF.FileFunction,Paste,Top*%
%TF.FilePolarity,Positive*%
%FSLAX46Y46*%
G04 Gerber Fmt 4.6, Leading zero omitted, Abs format (unit mm)*
G04 Created by KiCad (PCBNEW 7.0.8) date 2024-02-19 13:09:21*
%MOMM*%
%LPD*%
G01*
G04 APERTURE LIST*
G04 Aperture macros list*
%AMRoundRect*
0 Rectangle with rounded corners*
0 $1 Rounding radius*
0 $2 $3 $4 $5 $6 $7 $8 $9 X,Y pos of 4 corners*
0 Add a 4 corners polygon primitive as box body*
4,1,4,$2,$3,$4,$5,$6,$7,$8,$9,$2,$3,0*
0 Add four circle primitives for the rounded corners*
1,1,$1+$1,$2,$3*
1,1,$1+$1,$4,$5*
1,1,$1+$1,$6,$7*
1,1,$1+$1,$8,$9*
0 Add four rect primitives between the rounded corners*
20,1,$1+$1,$2,$3,$4,$5,0*
20,1,$1+$1,$4,$5,$6,$7,0*
20,1,$1+$1,$6,$7,$8,$9,0*
20,1,$1+$1,$8,$9,$2,$3,0*%
G04 Aperture macros list end*
%ADD10RoundRect,0.079500X-0.079500X-0.100500X0.079500X-0.100500X0.079500X0.100500X-0.079500X0.100500X0*%
%ADD11RoundRect,0.135000X0.185000X-0.135000X0.185000X0.135000X-0.185000X0.135000X-0.185000X-0.135000X0*%
%ADD12R,0.500000X0.375000*%
%ADD13R,0.650000X0.300000*%
%ADD14RoundRect,0.218750X-0.218750X-0.381250X0.218750X-0.381250X0.218750X0.381250X-0.218750X0.381250X0*%
%ADD15RoundRect,0.079500X0.079500X0.100500X-0.079500X0.100500X-0.079500X-0.100500X0.079500X-0.100500X0*%
%ADD16RoundRect,0.147500X-0.147500X-0.172500X0.147500X-0.172500X0.147500X0.172500X-0.147500X0.172500X0*%
%ADD17R,1.100000X1.900000*%
%ADD18RoundRect,0.135000X0.135000X0.185000X-0.135000X0.185000X-0.135000X-0.185000X0.135000X-0.185000X0*%
%ADD19RoundRect,0.140000X-0.140000X-0.170000X0.140000X-0.170000X0.140000X0.170000X-0.140000X0.170000X0*%
%ADD20RoundRect,0.150000X0.425000X-0.150000X0.425000X0.150000X-0.425000X0.150000X-0.425000X-0.150000X0*%
%ADD21RoundRect,0.075000X0.500000X-0.075000X0.500000X0.075000X-0.500000X0.075000X-0.500000X-0.075000X0*%
%ADD22O,2.100000X1.000000*%
%ADD23O,1.800000X1.000000*%
%ADD24RoundRect,0.135000X-0.135000X-0.185000X0.135000X-0.185000X0.135000X0.185000X-0.135000X0.185000X0*%
%ADD25RoundRect,0.200000X0.200000X0.275000X-0.200000X0.275000X-0.200000X-0.275000X0.200000X-0.275000X0*%
%ADD26RoundRect,0.079500X0.100500X-0.079500X0.100500X0.079500X-0.100500X0.079500X-0.100500X-0.079500X0*%
%ADD27R,0.500000X5.000000*%
%ADD28R,4.900000X0.500000*%
%ADD29R,2.640000X0.500000*%
%ADD30R,0.500000X2.000000*%
%ADD31R,0.500000X2.700000*%
%ADD32R,3.900000X0.500000*%
%ADD33R,4.900000X0.900000*%
%ADD34R,1.550000X1.300000*%
%ADD35RoundRect,0.079500X-0.100500X0.079500X-0.100500X-0.079500X0.100500X-0.079500X0.100500X0.079500X0*%
%ADD36RoundRect,0.250000X-0.315000X0.315000X-0.315000X-0.315000X0.315000X-0.315000X0.315000X0.315000X0*%
%ADD37RoundRect,0.062500X-0.062500X0.375000X-0.062500X-0.375000X0.062500X-0.375000X0.062500X0.375000X0*%
%ADD38RoundRect,0.062500X-0.375000X0.062500X-0.375000X-0.062500X0.375000X-0.062500X0.375000X0.062500X0*%
%ADD39RoundRect,0.200000X-0.200000X-0.275000X0.200000X-0.275000X0.200000X0.275000X-0.200000X0.275000X0*%
%ADD40RoundRect,0.140000X-0.170000X0.140000X-0.170000X-0.140000X0.170000X-0.140000X0.170000X0.140000X0*%
%ADD41RoundRect,0.068750X-0.068750X-0.281250X0.068750X-0.281250X0.068750X0.281250X-0.068750X0.281250X0*%
%ADD42RoundRect,0.061250X-0.163750X-0.061250X0.163750X-0.061250X0.163750X0.061250X-0.163750X0.061250X0*%
%ADD43R,0.254000X0.675000*%
%ADD44R,0.675000X0.254000*%
%ADD45R,1.400000X1.200000*%
%ADD46RoundRect,0.150000X-0.150000X0.512500X-0.150000X-0.512500X0.150000X-0.512500X0.150000X0.512500X0*%
G04 APERTURE END LIST*
D10*
%TO.C,C4*%
X152505000Y-102850000D03*
X153195000Y-102850000D03*
%TD*%
D11*
%TO.C,R10*%
X157800000Y-98560000D03*
X157800000Y-97540000D03*
%TD*%
D12*
%TO.C,U2*%
X168225000Y-100737500D03*
D13*
X168300000Y-100200000D03*
D12*
X168225000Y-99662500D03*
X166525000Y-99662500D03*
D13*
X166450000Y-100200000D03*
D12*
X166525000Y-100737500D03*
%TD*%
D14*
%TO.C,L2*%
X129662500Y-101700000D03*
X131787500Y-101700000D03*
%TD*%
D10*
%TO.C,C6*%
X154105000Y-93650000D03*
X154795000Y-93650000D03*
%TD*%
D15*
%TO.C,C1*%
X145495000Y-98450000D03*
X144805000Y-98450000D03*
%TD*%
D16*
%TO.C,L3*%
X14905000Y-17972500D03*
X15875000Y-17972500D03*
%TD*%
D17*
%TO.C,X1*%
X149550000Y-92000000D03*
X152050000Y-92000000D03*
%TD*%
D18*
%TO.C,R4*%
X168710000Y-101900000D03*
X167690000Y-101900000D03*
%TD*%
D10*
%TO.C,C20*%
X159755000Y-94300000D03*
X160445000Y-94300000D03*
%TD*%
D19*
%TO.C,C15*%
X36840000Y-21882500D03*
X37800000Y-21882500D03*
%TD*%
D11*
%TO.C,R3*%
X168650000Y-98560000D03*
X168650000Y-97540000D03*
%TD*%
D10*
%TO.C,C16*%
X20175000Y-22862500D03*
X20865000Y-22862500D03*
%TD*%
%TO.C,C11*%
X20175000Y-21112500D03*
X20865000Y-21112500D03*
%TD*%
D19*
%TO.C,C13*%
X154240000Y-91800000D03*
X155200000Y-91800000D03*
%TD*%
D20*
%TO.C,J3*%
X170320000Y-103880000D03*
X170320000Y-103080000D03*
D21*
X170320000Y-101930000D03*
X170320000Y-100930000D03*
X170320000Y-100430000D03*
X170320000Y-99430000D03*
D20*
X170320000Y-98280000D03*
X170320000Y-97480000D03*
X170320000Y-97480000D03*
X170320000Y-98280000D03*
D21*
X170320000Y-98930000D03*
X170320000Y-99930000D03*
X170320000Y-101430000D03*
X170320000Y-102430000D03*
D20*
X170320000Y-103080000D03*
X170320000Y-103880000D03*
D22*
X170895000Y-105000000D03*
D23*
X175075000Y-105000000D03*
D22*
X170895000Y-96360000D03*
D23*
X175075000Y-96360000D03*
%TD*%
D24*
%TO.C,R8*%
X162540000Y-94200000D03*
X163560000Y-94200000D03*
%TD*%
D25*
%TO.C,R2*%
X154075000Y-105450000D03*
X152425000Y-105450000D03*
%TD*%
D10*
%TO.C,C16*%
X-10820000Y-19070000D03*
X-10130000Y-19070000D03*
%TD*%
D26*
%TO.C,C2*%
X147450000Y-93625000D03*
X147450000Y-92935000D03*
%TD*%
D27*
%TO.C,AE1*%
X136450000Y-99625000D03*
D28*
X139150000Y-99675000D03*
D29*
X138020000Y-101875000D03*
D30*
X139090000Y-103125000D03*
D29*
X138020000Y-104375000D03*
D31*
X136450000Y-105475000D03*
D29*
X138020000Y-106575000D03*
D30*
X139090000Y-107825000D03*
D29*
X138020000Y-109075000D03*
D31*
X136450000Y-110175000D03*
D32*
X138650000Y-111275000D03*
D33*
X139150000Y-97575000D03*
%TD*%
D34*
%TO.C,SW1*%
X147175000Y-107400000D03*
X155125000Y-107400000D03*
X147175000Y-111900000D03*
X155125000Y-111900000D03*
%TD*%
D35*
%TO.C,C18*%
X165200000Y-102887500D03*
X165200000Y-103577500D03*
%TD*%
D26*
%TO.C,C21*%
X157900000Y-96595000D03*
X157900000Y-95905000D03*
%TD*%
%TO.C,C10*%
X144650000Y-101045000D03*
X144650000Y-100355000D03*
%TD*%
%TO.C,C19*%
X165200000Y-105107500D03*
X165200000Y-104417500D03*
%TD*%
D15*
%TO.C,C8*%
X151645000Y-102850000D03*
X150955000Y-102850000D03*
%TD*%
%TO.C,C17*%
X145495000Y-97600000D03*
X144805000Y-97600000D03*
%TD*%
D36*
%TO.C,U1*%
X152200000Y-96150000D03*
X150800000Y-96150000D03*
X149400000Y-96150000D03*
X148000000Y-96150000D03*
X152200000Y-97550000D03*
X150800000Y-97550000D03*
X149400000Y-97550000D03*
X148000000Y-97550000D03*
X152200000Y-98950000D03*
X150800000Y-98950000D03*
X149400000Y-98950000D03*
X148000000Y-98950000D03*
X152200000Y-100350000D03*
X150800000Y-100350000D03*
X149400000Y-100350000D03*
X148000000Y-100350000D03*
D37*
X152850000Y-94812500D03*
X152350000Y-94812500D03*
X151850000Y-94812500D03*
X151350000Y-94812500D03*
X150850000Y-94812500D03*
X150350000Y-94812500D03*
X149850000Y-94812500D03*
X149350000Y-94812500D03*
X148850000Y-94812500D03*
X148350000Y-94812500D03*
X147850000Y-94812500D03*
X147350000Y-94812500D03*
D38*
X146662500Y-95500000D03*
X146662500Y-96000000D03*
X146662500Y-96500000D03*
X146662500Y-97000000D03*
X146662500Y-97500000D03*
X146662500Y-98000000D03*
X146662500Y-98500000D03*
X146662500Y-99000000D03*
X146662500Y-99500000D03*
X146662500Y-100000000D03*
X146662500Y-100500000D03*
X146662500Y-101000000D03*
D37*
X147350000Y-101687500D03*
X147850000Y-101687500D03*
X148350000Y-101687500D03*
X148850000Y-101687500D03*
X149350000Y-101687500D03*
X149850000Y-101687500D03*
X150350000Y-101687500D03*
X150850000Y-101687500D03*
X151350000Y-101687500D03*
X151850000Y-101687500D03*
X152350000Y-101687500D03*
X152850000Y-101687500D03*
D38*
X153537500Y-101000000D03*
X153537500Y-100500000D03*
X153537500Y-100000000D03*
X153537500Y-99500000D03*
X153537500Y-99000000D03*
X153537500Y-98500000D03*
X153537500Y-98000000D03*
X153537500Y-97500000D03*
X153537500Y-97000000D03*
X153537500Y-96500000D03*
X153537500Y-96000000D03*
X153537500Y-95500000D03*
%TD*%
D16*
%TO.C,L1*%
X138575000Y-85770000D03*
X139545000Y-85770000D03*
%TD*%
D25*
%TO.C,R6*%
X166775000Y-97500000D03*
X165125000Y-97500000D03*
%TD*%
D15*
%TO.C,C22*%
X160595000Y-99800000D03*
X159905000Y-99800000D03*
%TD*%
D39*
%TO.C,R1*%
X149275000Y-105450000D03*
X150925000Y-105450000D03*
%TD*%
D15*
%TO.C,C9*%
X151640000Y-103700000D03*
X150950000Y-103700000D03*
%TD*%
D19*
%TO.C,C14*%
X36840000Y-19912500D03*
X37800000Y-19912500D03*
%TD*%
D10*
%TO.C,C3*%
X154675000Y-99500000D03*
X155365000Y-99500000D03*
%TD*%
D26*
%TO.C,C23*%
X145500000Y-101045000D03*
X145500000Y-100355000D03*
%TD*%
D18*
%TO.C,R7*%
X165960000Y-96150000D03*
X164940000Y-96150000D03*
%TD*%
D10*
%TO.C,C7*%
X154090000Y-92800000D03*
X154780000Y-92800000D03*
%TD*%
D40*
%TO.C,C12*%
X147400000Y-91050000D03*
X147400000Y-92010000D03*
%TD*%
D41*
%TO.C,FLT1*%
X115562500Y-95000000D03*
D42*
X116175000Y-94772500D03*
X116175000Y-95227500D03*
D41*
X116787500Y-95000000D03*
%TD*%
D43*
%TO.C,U5*%
X159100000Y-95387500D03*
D44*
X158962500Y-96300000D03*
X158962500Y-96800000D03*
X158962500Y-97300000D03*
X158962500Y-97800000D03*
D43*
X159100000Y-98712500D03*
X159600000Y-98712500D03*
X160100000Y-98712500D03*
X160600000Y-98712500D03*
X161100000Y-98712500D03*
X161600000Y-98712500D03*
X162100000Y-98712500D03*
X162600000Y-98712500D03*
X163100000Y-98712500D03*
X163600000Y-98712500D03*
D44*
X163737500Y-97800000D03*
X163737500Y-97300000D03*
X163737500Y-96800000D03*
X163737500Y-96300000D03*
D43*
X163600000Y-95387500D03*
X163100000Y-95387500D03*
X162600000Y-95387500D03*
X162100000Y-95387500D03*
X161600000Y-95387500D03*
X161100000Y-95387500D03*
X160600000Y-95387500D03*
X160100000Y-95387500D03*
X159600000Y-95387500D03*
%TD*%
D26*
%TO.C,C5*%
X154650000Y-95395000D03*
X154650000Y-94705000D03*
%TD*%
D45*
%TO.C,X2*%
X145150000Y-105100000D03*
X147350000Y-105100000D03*
X147350000Y-103400000D03*
X145150000Y-103400000D03*
%TD*%
D46*
%TO.C,U3*%
X168300000Y-103462500D03*
X167350000Y-103462500D03*
X166400000Y-103462500D03*
X166400000Y-105737500D03*
X168300000Y-105737500D03*
%TD*%
M02*
