%TF.GenerationSoftware,KiCad,Pcbnew,8.0.0*%
%TF.CreationDate,2024-03-13T13:13:58+00:00*%
%TF.ProjectId,HW_MoveCritic_KiCad_Project,48575f4d-6f76-4654-9372-697469635f4b,rev?*%
%TF.SameCoordinates,PX7ee4219PY616af6f*%
%TF.FileFunction,Legend,Top*%
%TF.FilePolarity,Positive*%
%FSLAX46Y46*%
G04 Gerber Fmt 4.6, Leading zero omitted, Abs format (unit mm)*
G04 Created by KiCad (PCBNEW 8.0.0) date 2024-03-13 13:13:58*
%MOMM*%
%LPD*%
G01*
G04 APERTURE LIST*
%ADD10C,0.150000*%
%ADD11C,0.125000*%
%ADD12C,0.100000*%
%ADD13C,0.120000*%
%ADD14C,0.200000*%
%TA.AperFunction,Profile*%
%ADD15C,0.100000*%
%TD*%
G04 APERTURE END LIST*
D10*
X32280000Y8800000D02*
X32680000Y8400000D01*
X32280000Y6800000D02*
X30279999Y6800000D01*
X32280000Y8800000D02*
X31880000Y8400000D01*
X32280000Y6800000D02*
X32280000Y8800000D01*
X30279999Y6800000D02*
X30680000Y6400000D01*
X32727214Y6800000D02*
G75*
G02*
X31832786Y6800000I-447214J0D01*
G01*
X31832786Y6800000D02*
G75*
G02*
X32727214Y6800000I447214J0D01*
G01*
X30279999Y6800000D02*
X30680000Y7200000D01*
D11*
X32133664Y9567691D02*
X32466997Y9067691D01*
X32466997Y9567691D02*
X32133664Y9067691D01*
X30076521Y7205786D02*
X30076521Y6967691D01*
X29909855Y7467691D02*
X30076521Y7205786D01*
X30076521Y7205786D02*
X30243188Y7467691D01*
D12*
X17432504Y26570066D02*
X17432504Y26970066D01*
X17432504Y26970066D02*
X17527742Y26970066D01*
X17527742Y26970066D02*
X17584885Y26951018D01*
X17584885Y26951018D02*
X17622980Y26912923D01*
X17622980Y26912923D02*
X17642027Y26874828D01*
X17642027Y26874828D02*
X17661075Y26798637D01*
X17661075Y26798637D02*
X17661075Y26741494D01*
X17661075Y26741494D02*
X17642027Y26665304D01*
X17642027Y26665304D02*
X17622980Y26627209D01*
X17622980Y26627209D02*
X17584885Y26589113D01*
X17584885Y26589113D02*
X17527742Y26570066D01*
X17527742Y26570066D02*
X17432504Y26570066D01*
X17813456Y26931971D02*
X17832504Y26951018D01*
X17832504Y26951018D02*
X17870599Y26970066D01*
X17870599Y26970066D02*
X17965837Y26970066D01*
X17965837Y26970066D02*
X18003932Y26951018D01*
X18003932Y26951018D02*
X18022980Y26931971D01*
X18022980Y26931971D02*
X18042027Y26893875D01*
X18042027Y26893875D02*
X18042027Y26855780D01*
X18042027Y26855780D02*
X18022980Y26798637D01*
X18022980Y26798637D02*
X17794408Y26570066D01*
X17794408Y26570066D02*
X18042027Y26570066D01*
D13*
%TO.C,R10*%
X26753641Y3569998D02*
X26446359Y3569998D01*
X26753641Y4329998D02*
X26446359Y4329998D01*
%TO.C,U2*%
X10950001Y18349998D02*
X9050001Y18349998D01*
X9350001Y16549998D02*
X10950001Y16549998D01*
%TO.C,L2*%
X18250378Y23439998D02*
X19049622Y23439998D01*
X18250378Y24559998D02*
X19049622Y24559998D01*
D12*
%TO.C,X1*%
X20570001Y8159999D02*
G75*
G02*
X20470001Y8159999I-50000J0D01*
G01*
X20470001Y8159999D02*
G75*
G02*
X20570001Y8159999I50000J0D01*
G01*
X20570001Y8159999D02*
X20570001Y8159999D01*
X20470001Y8159999D02*
X20470001Y8159999D01*
D14*
X18570001Y7409999D02*
X17770001Y7409999D01*
X18570001Y8909999D02*
X17770001Y8909999D01*
D13*
%TO.C,R4*%
X9446333Y19446357D02*
X9446333Y19753639D01*
X8686333Y19446357D02*
X8686333Y19753639D01*
D12*
%TO.C,D2*%
X16260000Y26600000D02*
G75*
G02*
X16160000Y26600000I-50000J0D01*
G01*
X16160000Y26600000D02*
G75*
G02*
X16260000Y26600000I50000J0D01*
G01*
D13*
%TO.C,C15*%
X30387500Y17562836D02*
X30387500Y17347164D01*
X29667500Y17562836D02*
X29667500Y17347164D01*
%TO.C,R3*%
X9507501Y15473639D02*
X9507501Y15166357D01*
X8747501Y15473639D02*
X8747501Y15166357D01*
%TO.C,C13*%
X16287837Y10329998D02*
X16072165Y10329998D01*
X16287837Y11049998D02*
X16072165Y11049998D01*
%TO.C,R8*%
X23130001Y9046359D02*
X23130001Y9353641D01*
X22370001Y9046359D02*
X22370001Y9353641D01*
%TO.C,R2*%
X16495243Y4047498D02*
X16969759Y4047498D01*
X16495243Y5092498D02*
X16969759Y5092498D01*
%TO.C,J2*%
X9080001Y3379999D02*
X8445001Y3379999D01*
X8445001Y3379999D02*
X8445001Y4014999D01*
%TO.C,SW1*%
X20785002Y3289999D02*
X20785002Y1959999D01*
X19455002Y3289999D02*
X20785002Y3289999D01*
X18185002Y629999D02*
X15585002Y629999D01*
X18185002Y3289999D02*
X18185002Y629999D01*
X18185002Y3289999D02*
X15585002Y3289999D01*
X15585002Y3289999D02*
X15585002Y629999D01*
%TO.C,J3*%
X3810000Y12530000D02*
X5510000Y12530000D01*
X3810000Y21870000D02*
X5510000Y21870000D01*
%TO.C,J1*%
X5909999Y7709999D02*
X5909999Y8959999D01*
X5909999Y8959999D02*
X4659999Y8959999D01*
X5809999Y6899999D02*
X5809999Y7199999D01*
X5809999Y7199999D02*
X5609999Y7199999D01*
X5709999Y6899999D02*
X5709999Y7199999D01*
X5609999Y2539999D02*
X5609999Y8659999D01*
X5609999Y6099999D02*
X4999999Y6099999D01*
X5609999Y6899999D02*
X5809999Y6899999D01*
X5609999Y8659999D02*
X889999Y8659999D01*
X4999999Y3149999D02*
X4999999Y5099999D01*
X4999999Y5099999D02*
X5609999Y5099999D01*
X4999999Y6099999D02*
X4999999Y8049999D01*
X4999999Y8049999D02*
X1499999Y8049999D01*
X4299999Y2539999D02*
X4299999Y3149999D01*
X4299999Y8659999D02*
X4299999Y8049999D01*
X2999999Y2539999D02*
X2999999Y3149999D01*
X2999999Y8659999D02*
X2999999Y8049999D01*
X1999999Y5499999D02*
X1499999Y5499999D01*
X1999999Y5699999D02*
X1999999Y5499999D01*
X1499999Y3149999D02*
X4999999Y3149999D01*
X1499999Y5599999D02*
X1999999Y5599999D01*
X1499999Y5699999D02*
X1999999Y5699999D01*
X1499999Y8049999D02*
X1499999Y3149999D01*
X889999Y2539999D02*
X5609999Y2539999D01*
X889999Y8659999D02*
X889999Y2539999D01*
%TO.C,U1*%
X22452502Y13069999D02*
X21977502Y13069999D01*
X22452502Y13544999D02*
X22452502Y13069999D01*
X22452502Y19814999D02*
X22452502Y20289999D01*
X22452502Y20289999D02*
X21977502Y20289999D01*
X15232502Y13544999D02*
X15232502Y13069999D01*
X15232502Y19814999D02*
X15232502Y20289999D01*
X15232502Y20289999D02*
X15707502Y20289999D01*
%TO.C,R6*%
X26572502Y12337257D02*
X26572502Y11862741D01*
X25527502Y12337257D02*
X25527502Y11862741D01*
%TO.C,D1*%
X5460000Y9499998D02*
X5460000Y11499998D01*
X5460000Y9499998D02*
X1450000Y9499998D01*
X5460000Y11499998D02*
X1450000Y11499998D01*
%TO.C,R1*%
X20019758Y4037500D02*
X19545242Y4037500D01*
X20019758Y5082500D02*
X19545242Y5082500D01*
%TO.C,C14*%
X27337501Y17562834D02*
X27337501Y17347162D01*
X26617501Y17562834D02*
X26617501Y17347162D01*
%TO.C,R7*%
X25080000Y11753639D02*
X25080000Y11446357D01*
X24320000Y11753639D02*
X24320000Y11446357D01*
%TO.C,C12*%
X18092164Y10340000D02*
X18307836Y10340000D01*
X18092164Y11060000D02*
X18307836Y11060000D01*
D12*
%TO.C,FLT1*%
X30678731Y17940000D02*
G75*
G02*
X30596269Y17940000I-41231J0D01*
G01*
X30596269Y17940000D02*
G75*
G02*
X30678731Y17940000I41231J0D01*
G01*
X32427500Y17460000D02*
X30637500Y17460000D01*
X32427500Y18460000D02*
X32427500Y17460000D01*
X30637500Y17460000D02*
X30637500Y17740000D01*
X30637500Y18150000D02*
X30637500Y18460000D01*
X30637500Y18460000D02*
X32427500Y18460000D01*
D13*
%TO.C,U5*%
X27610001Y4789999D02*
X27610001Y5049999D01*
X27610001Y4789999D02*
X27350001Y4789999D01*
X27610001Y10209999D02*
X27610001Y9949999D01*
X27610001Y10209999D02*
X27350001Y10209999D01*
X23590001Y4789999D02*
X23590001Y5049999D01*
X23590001Y10209999D02*
X23850001Y10209999D01*
X23590001Y10209999D02*
X23590001Y9949999D01*
%TO.C,X2*%
X25110001Y21029999D02*
X25110001Y24329999D01*
X25110001Y24329999D02*
X21110001Y24329999D01*
%TO.C,U3*%
X11222501Y22350000D02*
X12022501Y22350000D01*
X11222501Y22350000D02*
X10422501Y22350000D01*
X11222501Y25470000D02*
X12022501Y25470000D01*
X11222501Y25470000D02*
X9422501Y25470000D01*
%TD*%
D15*
X31150001Y27699999D02*
X2849999Y27699998D01*
X0Y24849999D02*
G75*
G02*
X2849999Y27699997I2849998J0D01*
G01*
X34000000Y24850000D02*
X34000002Y20959999D01*
X2850000Y0D02*
X31150001Y-2D01*
X34000002Y2849999D02*
X34000002Y5759999D01*
X0Y24849999D02*
X0Y2849999D01*
X34000002Y2849999D02*
G75*
G02*
X31150001Y-4I-2850003J0D01*
G01*
X31150001Y27699999D02*
G75*
G02*
X33999999Y24850000I-2J-2850000D01*
G01*
X2850000Y0D02*
G75*
G02*
X-1Y2849999I-2J2849999D01*
G01*
%TO.C,AE1*%
X39700000Y20959998D02*
X34000000Y20959998D01*
X39700000Y20959998D02*
X39700000Y5759998D01*
X39700000Y5759998D02*
X34010000Y5759998D01*
%TD*%
M02*
