M48
; DRILL file {KiCad 8.0.0} date 2024-03-13T13:13:55+0000
; FORMAT={-:-/ absolute / metric / decimal}
; #@! TF.CreationDate,2024-03-13T13:13:55+00:00
; #@! TF.GenerationSoftware,Kicad,Pcbnew,8.0.0
; #@! TF.FileFunction,Plated,1,4,PTH
FMAT,2
METRIC
; #@! TA.AperFunction,Plated,PTH,ViaDrill
T1C0.300
; #@! TA.AperFunction,Plated,PTH,ComponentDrill
T2C0.600
; #@! TA.AperFunction,Plated,PTH,ComponentDrill
T3C0.750
; #@! TA.AperFunction,Plated,PTH,ComponentDrill
T4C1.000
%
G90
G05
T1
X2.28Y19.5
X2.28Y17.5
X2.28Y15.5
X2.28Y1.5
X3.78Y1.5
X4.28Y19.5
X4.28Y17.5
X4.28Y15.5
X5.28Y1.5
X5.98Y11.1
X5.98Y9.8
X6.15Y19.05
X6.15Y15.5
X6.488Y23.5
X6.95Y3.8
X8.7Y23.5
X8.73Y20.9
X9.128Y14.13
X9.2Y12.0
X9.35Y9.6
X9.43Y25.95
X9.63Y21.85
X9.858Y20.11
X10.15Y18.95
X10.18Y15.9
X10.43Y25.95
X10.5Y21.85
X10.601Y12.9
X11.2Y9.6
X11.95Y26.0
X12.28Y21.5
X12.28Y19.3
X12.65Y13.4
X12.65Y14.3
X12.83Y26.0
X13.237Y2.163
X13.42Y15.66
X13.43Y12.05
X13.75Y25.65
X13.88Y22.1
X13.88Y21.25
X14.1Y17.6
X14.15Y20.25
X14.26Y15.67
X14.28Y12.06
X14.42Y24.21
X14.53Y5.83
X14.55Y8.35
X14.56Y2.84
X14.56Y1.08
X14.8Y22.1
X14.8Y21.25
X14.85Y4.59
X14.955Y10.7
X15.57Y22.65
X15.637Y24.51
X16.168Y5.74
X16.35Y22.66
X16.7Y18.75
X16.7Y16.7
X16.7Y14.55
X17.15Y22.67
X17.63Y17.79
X17.79Y15.61
X18.5Y12.1
X18.7Y19.1
X18.75Y14.3
X18.908Y25.96
X19.41Y10.71
X19.468Y12.1
X19.78Y5.75
X19.89Y15.57
X19.9Y17.85
X20.425Y21.3
X20.53Y10.55
X20.9Y11.375
X20.95Y18.75
X20.95Y16.7
X20.95Y14.55
X21.724Y26.469
X21.9Y8.7
X21.994Y24.813
X22.25Y10.648
X22.525Y12.15
X22.85Y7.3
X22.85Y5.15
X23.159Y13.523
X23.226Y14.95
X23.262Y1.0
X23.7Y20.25
X23.724Y26.469
X23.76Y4.05
X23.98Y16.2
X24.55Y20.25
X24.7Y12.95
X24.85Y16.9
X25.2Y3.25
X25.262Y1.0
X25.32Y19.71
X25.33Y18.88
X25.65Y8.85
X25.657Y21.821
X25.68Y6.5
X25.7Y7.75
X26.045Y13.984
X26.99Y16.25
X27.1Y3.05
X27.16Y11.27
X27.28Y24.0
X27.28Y22.0
X27.28Y20.0
X28.28Y14.0
X28.28Y12.0
X28.29Y5.16
X28.35Y7.5
X29.28Y26.0
X29.28Y24.0
X29.28Y22.0
X29.28Y20.0
X30.02Y16.22
X30.28Y14.0
X30.28Y12.0
X30.28Y10.0
X30.28Y8.0
X30.28Y6.0
X31.28Y22.0
X31.6Y17.0
X31.6Y18.85
X32.28Y14.0
X32.28Y12.0
X32.28Y10.0
X32.28Y8.0
X32.28Y6.0
X34.32Y20.01
T3
X3.8Y6.6
X3.8Y4.6
T4
X16.915Y1.96
X19.455Y1.96
T2
G00X3.035Y21.52
M15
G01X2.235Y21.52
M16
G05
G00X3.035Y12.88
M15
G01X2.235Y12.88
M16
G05
G00X7.365Y21.52
M15
G01X6.265Y21.52
M16
G05
G00X7.365Y12.88
M15
G01X6.265Y12.88
M16
G05
M30
