%TF.GenerationSoftware,KiCad,Pcbnew,8.0.0*%
%TF.CreationDate,2024-03-10T12:34:58+00:00*%
%TF.ProjectId,MoveCritic_FBTM_RF,4d6f7665-4372-4697-9469-635f4642544d,rev?*%
%TF.SameCoordinates,PX7ee4219PY616af6f*%
%TF.FileFunction,Copper,L3,Inr*%
%TF.FilePolarity,Positive*%
%FSLAX46Y46*%
G04 Gerber Fmt 4.6, Leading zero omitted, Abs format (unit mm)*
G04 Created by KiCad (PCBNEW 8.0.0) date 2024-03-10 12:34:58*
%MOMM*%
%LPD*%
G01*
G04 APERTURE LIST*
%TA.AperFunction,ViaPad*%
%ADD10C,0.700000*%
%TD*%
%TA.AperFunction,ViaPad*%
%ADD11C,0.800000*%
%TD*%
%TA.AperFunction,ViaPad*%
%ADD12C,0.500000*%
%TD*%
%TA.AperFunction,Profile*%
%ADD13C,0.100000*%
%TD*%
G04 APERTURE END LIST*
D10*
%TO.N,GND*%
X13000000Y12000000D03*
X29000000Y26000000D03*
X15000000Y24000000D03*
X3000000Y18000000D03*
X17000000Y10000000D03*
X11000000Y26000000D03*
X27000000Y14000000D03*
X29000000Y6000000D03*
X11000000Y24000000D03*
X17000000Y14000000D03*
X1000000Y14000000D03*
X15000000Y8000000D03*
X25000000Y14000000D03*
X1000000Y4000000D03*
X11000000Y4000000D03*
X13000000Y16000000D03*
X19000000Y12000000D03*
X1000000Y22000000D03*
X17000000Y2000000D03*
X9000000Y8000000D03*
X19000000Y14000000D03*
X27000000Y4000000D03*
X7000000Y16000000D03*
X23000000Y2000000D03*
X25000000Y2000000D03*
X19000000Y10000000D03*
D11*
X29000000Y20000000D03*
D10*
X15000000Y10000000D03*
X5000000Y6000000D03*
X11000000Y6000000D03*
X15000000Y18000000D03*
X9000000Y18000000D03*
X15000000Y16000000D03*
X17000000Y24000000D03*
X3000000Y20000000D03*
X11000000Y20000000D03*
X23000000Y6000000D03*
X13000000Y26000000D03*
X13000000Y22000000D03*
X17000000Y26000000D03*
X21000000Y2000000D03*
X5000000Y4000000D03*
X25000000Y8000000D03*
X3000000Y12000000D03*
X7000000Y20000000D03*
X25000000Y24000000D03*
X5000000Y22000000D03*
X25000000Y4000000D03*
X3000000Y10000000D03*
X23000000Y14000000D03*
X11000000Y14000000D03*
X27000000Y24000000D03*
X31000000Y22000000D03*
X9000000Y16000000D03*
X3000000Y4000000D03*
X27000000Y6000000D03*
X7000000Y22000000D03*
X21000000Y4000000D03*
X21000000Y14000000D03*
X13000000Y10000000D03*
X9000000Y24000000D03*
X29000000Y10000000D03*
X9000000Y12000000D03*
X25000000Y22000000D03*
X11000000Y16000000D03*
X7000000Y2000000D03*
X9000000Y2000000D03*
X19000000Y8000000D03*
X15000000Y14000000D03*
X21000000Y26000000D03*
X5000000Y20000000D03*
X9000000Y6000000D03*
X3000000Y6000000D03*
X23000000Y8000000D03*
X23000000Y26000000D03*
X13000000Y20000000D03*
X9000000Y14000000D03*
X17000000Y12000000D03*
X7000000Y24000000D03*
X1000000Y10000000D03*
X29000000Y4000000D03*
X5000000Y16000000D03*
X1000000Y2000000D03*
X1000000Y18000000D03*
X19000000Y22000000D03*
X27000000Y8000000D03*
X17000000Y22000000D03*
X31350001Y18819998D03*
X17000000Y20000000D03*
X11000000Y2000000D03*
X11000000Y12000000D03*
X5000000Y10000000D03*
X21000000Y8000000D03*
X17000000Y6000000D03*
X5000000Y8000000D03*
X1000000Y20000000D03*
D11*
X25000000Y20000000D03*
D10*
X17000000Y18000000D03*
X7000000Y14000000D03*
X27000000Y22000000D03*
X7000000Y18000000D03*
X13000000Y2000000D03*
X5000000Y18000000D03*
X3000000Y2000000D03*
X11000000Y8000000D03*
X7000000Y4000000D03*
X21000000Y22000000D03*
X25000000Y12000000D03*
X27000000Y12000000D03*
X29000000Y22000000D03*
X1000000Y16000000D03*
X7000000Y6000000D03*
X13000000Y14000000D03*
D11*
X23000000Y20000000D03*
D10*
X27000000Y10000000D03*
X1000000Y8000000D03*
X17000000Y4000000D03*
X13000000Y8000000D03*
X29000000Y12000000D03*
X19000000Y4000000D03*
X17000000Y16000000D03*
X9000000Y22000000D03*
X13000000Y18000000D03*
X23000000Y12000000D03*
X31000000Y8000000D03*
X11000000Y18000000D03*
X23000000Y10000000D03*
X15000000Y12000000D03*
X15000000Y26000000D03*
X5000000Y14000000D03*
X13000000Y6000000D03*
X13000000Y4000000D03*
X15000000Y22000000D03*
X25000000Y10000000D03*
X13000000Y24000000D03*
X3000000Y14000000D03*
X1000000Y12000000D03*
X19000000Y6000000D03*
X3000000Y8000000D03*
X26740000Y16219998D03*
X9000000Y20000000D03*
X23000000Y24000000D03*
X29770001Y16189999D03*
X11000000Y10000000D03*
X31350000Y16970000D03*
X15000000Y4000000D03*
X21000000Y12000000D03*
X19000000Y24000000D03*
X21000000Y10000000D03*
X5000000Y2000000D03*
X29000000Y8000000D03*
X7000000Y12000000D03*
X9000000Y10000000D03*
X5000000Y12000000D03*
X23000000Y4000000D03*
X21000000Y24000000D03*
X3000000Y22000000D03*
X31000000Y14000000D03*
X29000000Y14000000D03*
X31000000Y12000000D03*
X9000000Y4000000D03*
X25000000Y6000000D03*
X3000000Y16000000D03*
X29000000Y2000000D03*
X19000000Y26000000D03*
X17000000Y8000000D03*
X23000000Y22000000D03*
X15000000Y2000000D03*
X9000000Y26000000D03*
X31000000Y6000000D03*
D11*
X27000000Y20000000D03*
D10*
X15000000Y6000000D03*
X19000000Y2000000D03*
X31000000Y10000000D03*
X15000000Y20000000D03*
X29000000Y24000000D03*
X1000000Y6000000D03*
X21000000Y6000000D03*
X11000000Y22000000D03*
X7000000Y10000000D03*
X5000000Y24000000D03*
D12*
X34070001Y19979999D03*
D10*
X7000000Y8000000D03*
%TD*%
%TA.AperFunction,Conductor*%
%TO.N,GND*%
G36*
X31244817Y27642690D02*
G01*
X31247032Y27642655D01*
X31258075Y27642315D01*
X31273700Y27641833D01*
X31278099Y27641564D01*
X31304728Y27639139D01*
X31306825Y27638916D01*
X31383099Y27629654D01*
X31385237Y27629362D01*
X31411834Y27625313D01*
X31416184Y27624517D01*
X31442500Y27618867D01*
X31444624Y27618377D01*
X31718258Y27550933D01*
X31720373Y27550377D01*
X31746230Y27543168D01*
X31750496Y27541839D01*
X31775899Y27533073D01*
X31778001Y27532312D01*
X32041428Y27432407D01*
X32043496Y27431587D01*
X32068327Y27421302D01*
X32072352Y27419490D01*
X32096549Y27407709D01*
X32098466Y27406740D01*
X32347822Y27275867D01*
X32348020Y27275763D01*
X32349982Y27274694D01*
X32373328Y27261527D01*
X32377154Y27259215D01*
X32399708Y27244633D01*
X32401567Y27243391D01*
X32633438Y27083342D01*
X32635257Y27082045D01*
X32656898Y27066122D01*
X32660408Y27063372D01*
X32681044Y27046174D01*
X32682723Y27044732D01*
X32893624Y26857889D01*
X32895271Y26856385D01*
X32914829Y26837974D01*
X32917982Y26834821D01*
X32936381Y26815275D01*
X32937888Y26813625D01*
X33124732Y26602722D01*
X33126190Y26601025D01*
X33143368Y26580412D01*
X33146123Y26576896D01*
X33162040Y26555265D01*
X33163338Y26553444D01*
X33323391Y26321567D01*
X33324633Y26319708D01*
X33339215Y26297154D01*
X33341527Y26293328D01*
X33354694Y26269982D01*
X33355763Y26268019D01*
X33486719Y26018503D01*
X33487726Y26016512D01*
X33499474Y25992387D01*
X33501310Y25988307D01*
X33511590Y25963488D01*
X33512414Y25961411D01*
X33612323Y25697971D01*
X33613063Y25695929D01*
X33621829Y25670526D01*
X33621835Y25670508D01*
X33623163Y25666245D01*
X33630376Y25640374D01*
X33630945Y25638209D01*
X33698371Y25364645D01*
X33698873Y25362468D01*
X33704510Y25336210D01*
X33705315Y25331815D01*
X33709355Y25305276D01*
X33709658Y25303059D01*
X33744088Y25019502D01*
X33744299Y25017556D01*
X33746517Y24994126D01*
X33746782Y24990227D01*
X33747757Y24966781D01*
X33747813Y24964823D01*
X33749943Y24823775D01*
X33749946Y24823499D01*
X33749983Y24820244D01*
X33749987Y24819682D01*
X33749999Y24816504D01*
X33750000Y24816225D01*
X33750001Y20961250D01*
X33750002Y20961249D01*
X33759154Y20939153D01*
X33759155Y20939152D01*
X33781252Y20929999D01*
X33812498Y20930000D01*
X34057749Y20930000D01*
X34072187Y20928579D01*
X34147230Y20913649D01*
X34173907Y20902596D01*
X34231339Y20864210D01*
X34251754Y20843788D01*
X34290119Y20786342D01*
X34301164Y20759659D01*
X34316067Y20684612D01*
X34317484Y20670171D01*
X34312184Y5980832D01*
X34310757Y5966399D01*
X34296486Y5894775D01*
X34285433Y5868109D01*
X34248969Y5813563D01*
X34228554Y5793155D01*
X34174000Y5756713D01*
X34147329Y5745668D01*
X34116448Y5739527D01*
X34075692Y5731422D01*
X34061261Y5730001D01*
X33787502Y5730001D01*
X33787501Y5730000D01*
X33760985Y5719017D01*
X33760984Y5719015D01*
X33750002Y5692503D01*
X33750002Y2823773D01*
X33750001Y2823493D01*
X33749989Y2820316D01*
X33749985Y2819754D01*
X33749948Y2816501D01*
X33749945Y2816226D01*
X33747815Y2675170D01*
X33747759Y2673214D01*
X33746785Y2649776D01*
X33746520Y2645875D01*
X33744302Y2622444D01*
X33744091Y2620498D01*
X33709661Y2336936D01*
X33709358Y2334720D01*
X33705319Y2308186D01*
X33704514Y2303791D01*
X33698877Y2277531D01*
X33698375Y2275353D01*
X33630945Y2001780D01*
X33630378Y1999620D01*
X33623171Y1973764D01*
X33621845Y1969512D01*
X33613077Y1944102D01*
X33612326Y1942029D01*
X33512417Y1678588D01*
X33511593Y1676511D01*
X33501313Y1651692D01*
X33499477Y1647612D01*
X33487729Y1623487D01*
X33486722Y1621495D01*
X33355780Y1372006D01*
X33354710Y1370042D01*
X33341519Y1346655D01*
X33339209Y1342832D01*
X33324636Y1320291D01*
X33323393Y1318431D01*
X33163344Y1086560D01*
X33162046Y1084740D01*
X33146128Y1063107D01*
X33143372Y1059588D01*
X33126180Y1038959D01*
X33124723Y1037264D01*
X32937891Y826373D01*
X32936384Y824723D01*
X32917985Y805177D01*
X32914823Y802015D01*
X32895277Y783616D01*
X32893627Y782109D01*
X32682725Y595265D01*
X32681029Y593808D01*
X32660419Y576632D01*
X32656900Y573875D01*
X32635259Y557952D01*
X32633440Y556655D01*
X32401569Y396606D01*
X32399709Y395363D01*
X32377168Y380790D01*
X32373345Y378480D01*
X32349958Y365289D01*
X32347994Y364219D01*
X32098505Y233277D01*
X32096513Y232270D01*
X32072388Y220522D01*
X32068308Y218686D01*
X32043489Y208406D01*
X32041412Y207582D01*
X31777971Y107673D01*
X31775915Y106929D01*
X31750488Y98154D01*
X31746239Y96830D01*
X31742024Y95655D01*
X31720380Y89621D01*
X31718220Y89054D01*
X31444647Y21624D01*
X31442470Y21122D01*
X31416212Y15485D01*
X31411816Y14680D01*
X31385275Y10640D01*
X31383059Y10337D01*
X31099475Y-24096D01*
X31097531Y-24306D01*
X31074141Y-26521D01*
X31070235Y-26787D01*
X31046779Y-27761D01*
X31044825Y-27817D01*
X30903771Y-29945D01*
X30903497Y-29948D01*
X30900244Y-29985D01*
X30899808Y-29988D01*
X30896766Y-30000D01*
X30896480Y-30001D01*
X30896224Y-30001D01*
X2903889Y-30000D01*
X2903746Y-29941D01*
X2903606Y-29999D01*
X2900222Y-29986D01*
X2899728Y-29983D01*
X2896398Y-29948D01*
X2896398Y-29946D01*
X2896103Y-29944D01*
X2892965Y-29898D01*
X2755375Y-27904D01*
X2753408Y-27850D01*
X2729767Y-26878D01*
X2725845Y-26612D01*
X2702299Y-24387D01*
X2700341Y-24175D01*
X2416924Y10238D01*
X2414708Y10541D01*
X2388167Y14581D01*
X2383771Y15386D01*
X2357513Y21023D01*
X2355336Y21525D01*
X2081750Y88958D01*
X2079590Y89525D01*
X2069035Y92468D01*
X2053722Y96736D01*
X2049462Y98064D01*
X2024088Y106821D01*
X2021989Y107581D01*
X1758542Y207492D01*
X1756486Y208307D01*
X1731638Y218599D01*
X1727583Y220424D01*
X1727382Y220522D01*
X1703430Y232184D01*
X1701469Y233175D01*
X1572662Y300780D01*
X1451926Y364147D01*
X1449964Y365216D01*
X1426618Y378383D01*
X1422792Y380695D01*
X1400238Y395277D01*
X1398379Y396519D01*
X1166498Y556575D01*
X1164678Y557873D01*
X1143045Y573791D01*
X1139526Y576547D01*
X1118897Y593739D01*
X1117202Y595196D01*
X906301Y782037D01*
X904651Y783544D01*
X904575Y783616D01*
X885096Y801952D01*
X881952Y805096D01*
X863541Y824654D01*
X862037Y826301D01*
X675185Y1037213D01*
X673747Y1038886D01*
X656545Y1059528D01*
X653794Y1063039D01*
X637877Y1084670D01*
X636579Y1086491D01*
X636531Y1086560D01*
X476510Y1318391D01*
X475277Y1320237D01*
X460695Y1342791D01*
X458383Y1346617D01*
X445216Y1369963D01*
X444147Y1371925D01*
X313162Y1621495D01*
X312195Y1623408D01*
X300410Y1647612D01*
X298602Y1651630D01*
X288297Y1676511D01*
X287497Y1678529D01*
X245262Y1789893D01*
X187559Y1942043D01*
X186844Y1944019D01*
X178054Y1969492D01*
X176736Y1973724D01*
X169523Y1999595D01*
X168967Y2001710D01*
X101521Y2275353D01*
X101024Y2277512D01*
X95387Y2303769D01*
X94584Y2308149D01*
X90535Y2334746D01*
X90243Y2336883D01*
X55820Y2620382D01*
X55617Y2622258D01*
X53387Y2645857D01*
X53122Y2649766D01*
X52150Y2673407D01*
X52096Y2675375D01*
X51541Y2713711D01*
X29549501Y2713711D01*
X29582754Y2503759D01*
X29582757Y2503746D01*
X29648441Y2301593D01*
X29744949Y2112183D01*
X29821476Y2006853D01*
X29869897Y1940207D01*
X30020209Y1789895D01*
X30115657Y1720548D01*
X30192184Y1664948D01*
X30273557Y1623487D01*
X30381589Y1568442D01*
X30381591Y1568442D01*
X30381594Y1568440D01*
X30583747Y1502756D01*
X30583753Y1502755D01*
X30583758Y1502753D01*
X30688736Y1486126D01*
X30793712Y1469499D01*
X30793714Y1469499D01*
X31006290Y1469499D01*
X31090270Y1482801D01*
X31216244Y1502753D01*
X31216251Y1502756D01*
X31216254Y1502756D01*
X31418407Y1568440D01*
X31418407Y1568441D01*
X31418413Y1568442D01*
X31607817Y1664948D01*
X31779793Y1789895D01*
X31930105Y1940207D01*
X32055052Y2112183D01*
X32151558Y2301587D01*
X32162332Y2334746D01*
X32217244Y2503746D01*
X32217244Y2503749D01*
X32217247Y2503756D01*
X32250501Y2713712D01*
X32250501Y2926286D01*
X32217247Y3136242D01*
X32217245Y3136247D01*
X32217244Y3136253D01*
X32151560Y3338406D01*
X32151558Y3338409D01*
X32151558Y3338411D01*
X32101566Y3436525D01*
X32055052Y3527816D01*
X31999452Y3604343D01*
X31930105Y3699791D01*
X31779793Y3850103D01*
X31713147Y3898524D01*
X31607817Y3975051D01*
X31418407Y4071559D01*
X31216254Y4137243D01*
X31216241Y4137246D01*
X31006290Y4170499D01*
X31006288Y4170499D01*
X30793714Y4170499D01*
X30793712Y4170499D01*
X30583760Y4137246D01*
X30583747Y4137243D01*
X30381594Y4071559D01*
X30192184Y3975051D01*
X30020213Y3850106D01*
X30020209Y3850103D01*
X29869897Y3699791D01*
X29869894Y3699788D01*
X29869894Y3699787D01*
X29744949Y3527816D01*
X29648441Y3338406D01*
X29582757Y3136253D01*
X29582754Y3136240D01*
X29549501Y2926288D01*
X29549501Y2713711D01*
X51541Y2713711D01*
X50055Y2816271D01*
X50051Y2816547D01*
X50017Y2819709D01*
X50013Y2820243D01*
X50001Y2823626D01*
X50001Y24713712D01*
X1549500Y24713712D01*
X1582753Y24503760D01*
X1582756Y24503747D01*
X1648440Y24301594D01*
X1744948Y24112184D01*
X1821475Y24006854D01*
X1869896Y23940208D01*
X2020208Y23789896D01*
X2115656Y23720549D01*
X2192183Y23664949D01*
X2283474Y23618435D01*
X2381588Y23568443D01*
X2381590Y23568443D01*
X2381593Y23568441D01*
X2583746Y23502757D01*
X2583752Y23502756D01*
X2583757Y23502754D01*
X2688735Y23486127D01*
X2793711Y23469500D01*
X2793713Y23469500D01*
X3006289Y23469500D01*
X3090269Y23482802D01*
X3216243Y23502754D01*
X3216250Y23502757D01*
X3216253Y23502757D01*
X3418406Y23568441D01*
X3418406Y23568442D01*
X3418412Y23568443D01*
X3607816Y23664949D01*
X3779792Y23789896D01*
X3930104Y23940208D01*
X4055051Y24112184D01*
X4151557Y24301588D01*
X4151559Y24301594D01*
X4217243Y24503747D01*
X4217243Y24503750D01*
X4217246Y24503757D01*
X4250500Y24713711D01*
X29549501Y24713711D01*
X29582754Y24503759D01*
X29582757Y24503746D01*
X29648441Y24301593D01*
X29744949Y24112183D01*
X29821476Y24006853D01*
X29869897Y23940207D01*
X30020209Y23789895D01*
X30115657Y23720548D01*
X30192184Y23664948D01*
X30283475Y23618434D01*
X30381589Y23568442D01*
X30381591Y23568442D01*
X30381594Y23568440D01*
X30583747Y23502756D01*
X30583753Y23502755D01*
X30583758Y23502753D01*
X30688736Y23486126D01*
X30793712Y23469499D01*
X30793714Y23469499D01*
X31006290Y23469499D01*
X31090270Y23482801D01*
X31216244Y23502753D01*
X31216251Y23502756D01*
X31216254Y23502756D01*
X31418407Y23568440D01*
X31418407Y23568441D01*
X31418413Y23568442D01*
X31607817Y23664948D01*
X31779793Y23789895D01*
X31930105Y23940207D01*
X32055052Y24112183D01*
X32151558Y24301587D01*
X32217247Y24503756D01*
X32250501Y24713712D01*
X32250501Y24926286D01*
X32217247Y25136242D01*
X32217245Y25136247D01*
X32217244Y25136253D01*
X32151560Y25338406D01*
X32151558Y25338409D01*
X32151558Y25338411D01*
X32101566Y25436525D01*
X32055052Y25527816D01*
X31999452Y25604343D01*
X31930105Y25699791D01*
X31779793Y25850103D01*
X31713147Y25898524D01*
X31607817Y25975051D01*
X31418407Y26071559D01*
X31216254Y26137243D01*
X31216241Y26137246D01*
X31006290Y26170499D01*
X31006288Y26170499D01*
X30793714Y26170499D01*
X30793712Y26170499D01*
X30583760Y26137246D01*
X30583747Y26137243D01*
X30381594Y26071559D01*
X30192184Y25975051D01*
X30020213Y25850106D01*
X30020209Y25850103D01*
X29869897Y25699791D01*
X29869894Y25699788D01*
X29869894Y25699787D01*
X29744949Y25527816D01*
X29648441Y25338406D01*
X29582757Y25136253D01*
X29582754Y25136240D01*
X29549501Y24926288D01*
X29549501Y24713711D01*
X4250500Y24713711D01*
X4250500Y24713713D01*
X4250500Y24926287D01*
X4244396Y24964823D01*
X4217246Y25136241D01*
X4217243Y25136254D01*
X4151559Y25338407D01*
X4151557Y25338411D01*
X4151557Y25338412D01*
X4055052Y25527815D01*
X4055051Y25527817D01*
X3954466Y25666260D01*
X3930104Y25699792D01*
X3779792Y25850104D01*
X3713146Y25898525D01*
X3607816Y25975052D01*
X3418406Y26071560D01*
X3216253Y26137244D01*
X3216240Y26137247D01*
X3006289Y26170500D01*
X3006287Y26170500D01*
X2793713Y26170500D01*
X2793711Y26170500D01*
X2583759Y26137247D01*
X2583746Y26137244D01*
X2381593Y26071560D01*
X2192183Y25975052D01*
X2020212Y25850107D01*
X2020208Y25850104D01*
X1869896Y25699792D01*
X1869893Y25699789D01*
X1869893Y25699788D01*
X1744948Y25527817D01*
X1648440Y25338407D01*
X1582756Y25136254D01*
X1582753Y25136241D01*
X1549500Y24926289D01*
X1549500Y24713712D01*
X50001Y24713712D01*
X50001Y24816365D01*
X50001Y24816627D01*
X50014Y24819999D01*
X50054Y24823623D01*
X52097Y24964651D01*
X52151Y24966592D01*
X53123Y24990231D01*
X53389Y24994155D01*
X55615Y25017705D01*
X55827Y25019661D01*
X69982Y25136241D01*
X90245Y25303125D01*
X90540Y25305276D01*
X94586Y25331856D01*
X95388Y25336230D01*
X95856Y25338407D01*
X101025Y25362487D01*
X101526Y25364663D01*
X141739Y25527816D01*
X168972Y25638304D01*
X169524Y25640403D01*
X176733Y25666260D01*
X178062Y25670526D01*
X186828Y25695929D01*
X187589Y25698031D01*
X188255Y25699788D01*
X287505Y25961489D01*
X288309Y25963514D01*
X298608Y25988380D01*
X300412Y25992387D01*
X312209Y26016617D01*
X313151Y26018481D01*
X444166Y26268107D01*
X445197Y26270000D01*
X458394Y26293399D01*
X460685Y26297190D01*
X475307Y26319806D01*
X476491Y26321577D01*
X636592Y26553524D01*
X637873Y26555320D01*
X642694Y26561874D01*
X653803Y26576971D01*
X656533Y26580455D01*
X673772Y26601141D01*
X675143Y26602737D01*
X862068Y26813731D01*
X863511Y26815311D01*
X881969Y26834919D01*
X885080Y26838030D01*
X904688Y26856488D01*
X906268Y26857931D01*
X1117263Y27044856D01*
X1118854Y27046223D01*
X1139545Y27063466D01*
X1143021Y27066190D01*
X1164713Y27082152D01*
X1166448Y27083389D01*
X1398422Y27243508D01*
X1400193Y27244692D01*
X1422800Y27259309D01*
X1426595Y27261602D01*
X1450016Y27274812D01*
X1451932Y27275855D01*
X1701500Y27406837D01*
X1703404Y27407799D01*
X1727582Y27419572D01*
X1731635Y27421397D01*
X1756509Y27431700D01*
X1758495Y27432487D01*
X2022065Y27532446D01*
X2023978Y27533139D01*
X2049514Y27541951D01*
X2053692Y27543253D01*
X2079647Y27550489D01*
X2081709Y27551030D01*
X2355407Y27618491D01*
X2357465Y27618965D01*
X2383793Y27624617D01*
X2388137Y27625412D01*
X2414772Y27629467D01*
X2416866Y27629753D01*
X2722542Y27666867D01*
X2724427Y27667071D01*
X2725837Y27667205D01*
X2729685Y27667466D01*
X2731077Y27667523D01*
X2733215Y27667578D01*
X2736057Y27667608D01*
X2736535Y27667611D01*
X2737160Y27667613D01*
X2740074Y27667622D01*
X31244817Y27642690D01*
G37*
%TD.AperFunction*%
%TD*%
D13*
X33750002Y2819999D02*
X33750002Y5729999D01*
X2900001Y-30000D02*
X30900001Y-30002D01*
X33750002Y5729999D02*
X33822501Y5730000D01*
X33750002Y2819999D02*
G75*
G02*
X30900001Y-30004I-2850003J0D01*
G01*
X30900001Y27669999D02*
G75*
G02*
X33749999Y24820000I-2J-2850000D01*
G01*
X33750000Y24820000D02*
X33750002Y20929999D01*
X2900001Y-30000D02*
G75*
G02*
X50000Y2819999I-2J2849999D01*
G01*
X50001Y24819999D02*
X50001Y2819999D01*
X33750002Y20929999D02*
X33812502Y20930000D01*
X50001Y24819999D02*
G75*
G02*
X2900000Y27669997I2849998J0D01*
G01*
X30900001Y27669999D02*
X2900000Y27669998D01*
%TO.C,AE1*%
X39515001Y20930001D02*
X33815001Y20930001D01*
X39515001Y20930001D02*
X39525001Y5730001D01*
X39525001Y5730001D02*
X33825001Y5730001D01*
%TD*%
M02*
