%TF.GenerationSoftware,KiCad,Pcbnew,8.0.0*%
%TF.CreationDate,2024-03-10T12:34:59+00:00*%
%TF.ProjectId,MoveCritic_FBTM_RF,4d6f7665-4372-4697-9469-635f4642544d,rev?*%
%TF.SameCoordinates,PX7ee4219PY616af6f*%
%TF.FileFunction,Copper,L4,Bot*%
%TF.FilePolarity,Positive*%
%FSLAX46Y46*%
G04 Gerber Fmt 4.6, Leading zero omitted, Abs format (unit mm)*
G04 Created by KiCad (PCBNEW 8.0.0) date 2024-03-10 12:34:59*
%MOMM*%
%LPD*%
G01*
G04 APERTURE LIST*
%TA.AperFunction,ViaPad*%
%ADD10C,0.700000*%
%TD*%
%TA.AperFunction,ViaPad*%
%ADD11C,0.800000*%
%TD*%
%TA.AperFunction,ViaPad*%
%ADD12C,0.500000*%
%TD*%
%TA.AperFunction,Profile*%
%ADD13C,0.100000*%
%TD*%
G04 APERTURE END LIST*
D10*
%TO.N,GND*%
X13000000Y12000000D03*
X29000000Y26000000D03*
X15000000Y24000000D03*
X3000000Y18000000D03*
X17000000Y10000000D03*
X11000000Y26000000D03*
X27000000Y14000000D03*
X29000000Y6000000D03*
X11000000Y24000000D03*
X17000000Y14000000D03*
X1000000Y14000000D03*
X15000000Y8000000D03*
X25000000Y14000000D03*
X1000000Y4000000D03*
X11000000Y4000000D03*
X13000000Y16000000D03*
X19000000Y12000000D03*
X1000000Y22000000D03*
X17000000Y2000000D03*
X9000000Y8000000D03*
X19000000Y14000000D03*
X27000000Y4000000D03*
X7000000Y16000000D03*
X23000000Y2000000D03*
X25000000Y2000000D03*
X19000000Y10000000D03*
D11*
X29000000Y20000000D03*
D10*
X15000000Y10000000D03*
X5000000Y6000000D03*
X11000000Y6000000D03*
X15000000Y18000000D03*
X9000000Y18000000D03*
X15000000Y16000000D03*
X17000000Y24000000D03*
X3000000Y20000000D03*
X11000000Y20000000D03*
X23000000Y6000000D03*
X13000000Y26000000D03*
X13000000Y22000000D03*
X17000000Y26000000D03*
X21000000Y2000000D03*
X5000000Y4000000D03*
X25000000Y8000000D03*
X3000000Y12000000D03*
X7000000Y20000000D03*
X25000000Y24000000D03*
X5000000Y22000000D03*
X25000000Y4000000D03*
X3000000Y10000000D03*
X23000000Y14000000D03*
X11000000Y14000000D03*
X27000000Y24000000D03*
X31000000Y22000000D03*
X9000000Y16000000D03*
X3000000Y4000000D03*
X27000000Y6000000D03*
X7000000Y22000000D03*
X21000000Y4000000D03*
X21000000Y14000000D03*
X13000000Y10000000D03*
X9000000Y24000000D03*
X29000000Y10000000D03*
X9000000Y12000000D03*
X25000000Y22000000D03*
X11000000Y16000000D03*
X7000000Y2000000D03*
X9000000Y2000000D03*
X19000000Y8000000D03*
X15000000Y14000000D03*
X21000000Y26000000D03*
X5000000Y20000000D03*
X9000000Y6000000D03*
X3000000Y6000000D03*
X23000000Y8000000D03*
X23000000Y26000000D03*
X13000000Y20000000D03*
X9000000Y14000000D03*
X17000000Y12000000D03*
X7000000Y24000000D03*
X1000000Y10000000D03*
X29000000Y4000000D03*
X5000000Y16000000D03*
X1000000Y2000000D03*
X1000000Y18000000D03*
X19000000Y22000000D03*
X27000000Y8000000D03*
X17000000Y22000000D03*
X31350001Y18819998D03*
X17000000Y20000000D03*
X11000000Y2000000D03*
X11000000Y12000000D03*
X5000000Y10000000D03*
X21000000Y8000000D03*
X17000000Y6000000D03*
X5000000Y8000000D03*
X1000000Y20000000D03*
D11*
X25000000Y20000000D03*
D10*
X17000000Y18000000D03*
X7000000Y14000000D03*
X27000000Y22000000D03*
X7000000Y18000000D03*
X13000000Y2000000D03*
X5000000Y18000000D03*
X3000000Y2000000D03*
X11000000Y8000000D03*
X7000000Y4000000D03*
X21000000Y22000000D03*
X25000000Y12000000D03*
X27000000Y12000000D03*
X29000000Y22000000D03*
X1000000Y16000000D03*
X7000000Y6000000D03*
X13000000Y14000000D03*
D11*
X23000000Y20000000D03*
D10*
X27000000Y10000000D03*
X1000000Y8000000D03*
X17000000Y4000000D03*
X13000000Y8000000D03*
X29000000Y12000000D03*
X19000000Y4000000D03*
X17000000Y16000000D03*
X9000000Y22000000D03*
X13000000Y18000000D03*
X23000000Y12000000D03*
X31000000Y8000000D03*
X11000000Y18000000D03*
X23000000Y10000000D03*
X15000000Y12000000D03*
X15000000Y26000000D03*
X5000000Y14000000D03*
X13000000Y6000000D03*
X13000000Y4000000D03*
X15000000Y22000000D03*
X25000000Y10000000D03*
X13000000Y24000000D03*
X3000000Y14000000D03*
X1000000Y12000000D03*
X19000000Y6000000D03*
X3000000Y8000000D03*
X26740000Y16219998D03*
X9000000Y20000000D03*
X23000000Y24000000D03*
X29770001Y16189999D03*
X11000000Y10000000D03*
X31350000Y16970000D03*
X15000000Y4000000D03*
X21000000Y12000000D03*
X19000000Y24000000D03*
X21000000Y10000000D03*
X5000000Y2000000D03*
X29000000Y8000000D03*
X7000000Y12000000D03*
X9000000Y10000000D03*
X5000000Y12000000D03*
X23000000Y4000000D03*
X21000000Y24000000D03*
X3000000Y22000000D03*
X31000000Y14000000D03*
X29000000Y14000000D03*
X31000000Y12000000D03*
X9000000Y4000000D03*
X25000000Y6000000D03*
X3000000Y16000000D03*
X29000000Y2000000D03*
X19000000Y26000000D03*
X17000000Y8000000D03*
X23000000Y22000000D03*
X15000000Y2000000D03*
X9000000Y26000000D03*
X31000000Y6000000D03*
D11*
X27000000Y20000000D03*
D10*
X15000000Y6000000D03*
X19000000Y2000000D03*
X31000000Y10000000D03*
X15000000Y20000000D03*
X29000000Y24000000D03*
X1000000Y6000000D03*
X21000000Y6000000D03*
X11000000Y22000000D03*
X7000000Y10000000D03*
X5000000Y24000000D03*
D12*
X34070001Y19979999D03*
D10*
X7000000Y8000000D03*
%TD*%
%TA.AperFunction,NonConductor*%
G36*
X30900530Y27669991D02*
G01*
X31016112Y27668247D01*
X31065546Y27667500D01*
X31068329Y27667458D01*
X31076133Y27666926D01*
X31409760Y27626416D01*
X31418525Y27624811D01*
X31744319Y27544510D01*
X31752842Y27541854D01*
X32012178Y27443500D01*
X32066556Y27422877D01*
X32074704Y27419210D01*
X32350162Y27274639D01*
X32371625Y27263374D01*
X32371797Y27263284D01*
X32379438Y27258665D01*
X32587460Y27115079D01*
X32655572Y27068064D01*
X32662606Y27062553D01*
X32913662Y26840136D01*
X32913744Y26840064D01*
X32920063Y26833745D01*
X33142552Y26582606D01*
X33148063Y26575572D01*
X33338661Y26299444D01*
X33343284Y26291797D01*
X33499210Y25994705D01*
X33502877Y25986557D01*
X33525191Y25927720D01*
X33530000Y25901481D01*
X33530000Y1738511D01*
X33525191Y1712271D01*
X33502882Y1653446D01*
X33499215Y1645296D01*
X33343286Y1348200D01*
X33338663Y1340553D01*
X33148066Y1064426D01*
X33142555Y1057392D01*
X32920066Y806253D01*
X32913747Y799934D01*
X32662608Y577444D01*
X32655574Y571933D01*
X32379447Y381336D01*
X32371800Y376713D01*
X32074706Y220786D01*
X32066557Y217119D01*
X31752848Y98145D01*
X31744317Y95486D01*
X31418539Y15188D01*
X31409749Y13578D01*
X31076132Y-26930D01*
X31068329Y-27462D01*
X30902345Y-29966D01*
X30900663Y-29992D01*
X30899548Y-30000D01*
X2900521Y-30000D01*
X2899449Y-29992D01*
X2731695Y-27561D01*
X2723847Y-27029D01*
X2390234Y13479D01*
X2381447Y15089D01*
X2218548Y55240D01*
X2055653Y95390D01*
X2047122Y98049D01*
X1733402Y217027D01*
X1725254Y220694D01*
X1428149Y376626D01*
X1420501Y381249D01*
X1144364Y571853D01*
X1137330Y577364D01*
X886181Y799862D01*
X879862Y806181D01*
X657365Y1057329D01*
X651854Y1064363D01*
X603071Y1135036D01*
X461244Y1340507D01*
X456626Y1348148D01*
X300694Y1645253D01*
X297027Y1653401D01*
X277971Y1703646D01*
X178046Y1967127D01*
X175389Y1975654D01*
X169388Y2000000D01*
X444750Y2000000D01*
X463669Y1856292D01*
X512455Y1738511D01*
X519139Y1722375D01*
X607379Y1607379D01*
X722375Y1519139D01*
X856291Y1463670D01*
X1000000Y1444750D01*
X1143709Y1463670D01*
X1277625Y1519139D01*
X1392621Y1607379D01*
X1480861Y1722375D01*
X1536330Y1856291D01*
X1555250Y2000000D01*
X2444750Y2000000D01*
X2463669Y1856292D01*
X2512455Y1738511D01*
X2519139Y1722375D01*
X2607379Y1607379D01*
X2722375Y1519139D01*
X2856291Y1463670D01*
X3000000Y1444750D01*
X3143709Y1463670D01*
X3277625Y1519139D01*
X3392621Y1607379D01*
X3480861Y1722375D01*
X3536330Y1856291D01*
X3555250Y2000000D01*
X4444750Y2000000D01*
X4463669Y1856292D01*
X4512455Y1738511D01*
X4519139Y1722375D01*
X4607379Y1607379D01*
X4722375Y1519139D01*
X4856291Y1463670D01*
X5000000Y1444750D01*
X5143709Y1463670D01*
X5277625Y1519139D01*
X5392621Y1607379D01*
X5480861Y1722375D01*
X5536330Y1856291D01*
X5555250Y2000000D01*
X6444750Y2000000D01*
X6463669Y1856292D01*
X6512455Y1738511D01*
X6519139Y1722375D01*
X6607379Y1607379D01*
X6722375Y1519139D01*
X6856291Y1463670D01*
X7000000Y1444750D01*
X7143709Y1463670D01*
X7277625Y1519139D01*
X7392621Y1607379D01*
X7480861Y1722375D01*
X7536330Y1856291D01*
X7555250Y2000000D01*
X8444750Y2000000D01*
X8463669Y1856292D01*
X8512455Y1738511D01*
X8519139Y1722375D01*
X8607379Y1607379D01*
X8722375Y1519139D01*
X8856291Y1463670D01*
X9000000Y1444750D01*
X9143709Y1463670D01*
X9277625Y1519139D01*
X9392621Y1607379D01*
X9480861Y1722375D01*
X9536330Y1856291D01*
X9555250Y2000000D01*
X10444750Y2000000D01*
X10463669Y1856292D01*
X10512455Y1738511D01*
X10519139Y1722375D01*
X10607379Y1607379D01*
X10722375Y1519139D01*
X10856291Y1463670D01*
X11000000Y1444750D01*
X11143709Y1463670D01*
X11277625Y1519139D01*
X11392621Y1607379D01*
X11480861Y1722375D01*
X11536330Y1856291D01*
X11555250Y2000000D01*
X12444750Y2000000D01*
X12463669Y1856292D01*
X12512455Y1738511D01*
X12519139Y1722375D01*
X12607379Y1607379D01*
X12722375Y1519139D01*
X12856291Y1463670D01*
X13000000Y1444750D01*
X13143709Y1463670D01*
X13277625Y1519139D01*
X13392621Y1607379D01*
X13480861Y1722375D01*
X13536330Y1856291D01*
X13555250Y2000000D01*
X14444750Y2000000D01*
X14463669Y1856292D01*
X14512455Y1738511D01*
X14519139Y1722375D01*
X14607379Y1607379D01*
X14722375Y1519139D01*
X14856291Y1463670D01*
X15000000Y1444750D01*
X15143709Y1463670D01*
X15277625Y1519139D01*
X15392621Y1607379D01*
X15480861Y1722375D01*
X15536330Y1856291D01*
X15555250Y2000000D01*
X16444750Y2000000D01*
X16463669Y1856292D01*
X16512455Y1738511D01*
X16519139Y1722375D01*
X16607379Y1607379D01*
X16722375Y1519139D01*
X16856291Y1463670D01*
X17000000Y1444750D01*
X17143709Y1463670D01*
X17277625Y1519139D01*
X17392621Y1607379D01*
X17480861Y1722375D01*
X17536330Y1856291D01*
X17555250Y2000000D01*
X18444750Y2000000D01*
X18463669Y1856292D01*
X18512455Y1738511D01*
X18519139Y1722375D01*
X18607379Y1607379D01*
X18722375Y1519139D01*
X18856291Y1463670D01*
X19000000Y1444750D01*
X19143709Y1463670D01*
X19277625Y1519139D01*
X19392621Y1607379D01*
X19480861Y1722375D01*
X19536330Y1856291D01*
X19555250Y2000000D01*
X20444750Y2000000D01*
X20463669Y1856292D01*
X20512455Y1738511D01*
X20519139Y1722375D01*
X20607379Y1607379D01*
X20722375Y1519139D01*
X20856291Y1463670D01*
X21000000Y1444750D01*
X21143709Y1463670D01*
X21277625Y1519139D01*
X21392621Y1607379D01*
X21480861Y1722375D01*
X21536330Y1856291D01*
X21555250Y2000000D01*
X22444750Y2000000D01*
X22463669Y1856292D01*
X22512455Y1738511D01*
X22519139Y1722375D01*
X22607379Y1607379D01*
X22722375Y1519139D01*
X22856291Y1463670D01*
X23000000Y1444750D01*
X23143709Y1463670D01*
X23277625Y1519139D01*
X23392621Y1607379D01*
X23480861Y1722375D01*
X23536330Y1856291D01*
X23555250Y2000000D01*
X24444750Y2000000D01*
X24463669Y1856292D01*
X24512455Y1738511D01*
X24519139Y1722375D01*
X24607379Y1607379D01*
X24722375Y1519139D01*
X24856291Y1463670D01*
X25000000Y1444750D01*
X25143709Y1463670D01*
X25277625Y1519139D01*
X25392621Y1607379D01*
X25480861Y1722375D01*
X25536330Y1856291D01*
X25555250Y2000000D01*
X28444750Y2000000D01*
X28463669Y1856292D01*
X28512455Y1738511D01*
X28519139Y1722375D01*
X28607379Y1607379D01*
X28722375Y1519139D01*
X28856291Y1463670D01*
X29000000Y1444750D01*
X29143709Y1463670D01*
X29277625Y1519139D01*
X29392621Y1607379D01*
X29480861Y1722375D01*
X29536330Y1856291D01*
X29555250Y2000000D01*
X29536330Y2143709D01*
X29480861Y2277625D01*
X29392621Y2392621D01*
X29277625Y2480861D01*
X29277623Y2480862D01*
X29143708Y2536331D01*
X29000000Y2555250D01*
X28856291Y2536331D01*
X28722376Y2480862D01*
X28607379Y2392621D01*
X28519138Y2277624D01*
X28463669Y2143709D01*
X28444750Y2000000D01*
X25555250Y2000000D01*
X25536330Y2143709D01*
X25480861Y2277625D01*
X25392621Y2392621D01*
X25277625Y2480861D01*
X25277623Y2480862D01*
X25143708Y2536331D01*
X25000000Y2555250D01*
X24856291Y2536331D01*
X24722376Y2480862D01*
X24607379Y2392621D01*
X24519138Y2277624D01*
X24463669Y2143709D01*
X24444750Y2000000D01*
X23555250Y2000000D01*
X23536330Y2143709D01*
X23480861Y2277625D01*
X23392621Y2392621D01*
X23277625Y2480861D01*
X23277623Y2480862D01*
X23143708Y2536331D01*
X23000000Y2555250D01*
X22856291Y2536331D01*
X22722376Y2480862D01*
X22607379Y2392621D01*
X22519138Y2277624D01*
X22463669Y2143709D01*
X22444750Y2000000D01*
X21555250Y2000000D01*
X21536330Y2143709D01*
X21480861Y2277625D01*
X21392621Y2392621D01*
X21277625Y2480861D01*
X21277623Y2480862D01*
X21143708Y2536331D01*
X21000000Y2555250D01*
X20856291Y2536331D01*
X20722376Y2480862D01*
X20607379Y2392621D01*
X20519138Y2277624D01*
X20463669Y2143709D01*
X20444750Y2000000D01*
X19555250Y2000000D01*
X19536330Y2143709D01*
X19480861Y2277625D01*
X19392621Y2392621D01*
X19277625Y2480861D01*
X19277623Y2480862D01*
X19143708Y2536331D01*
X19000000Y2555250D01*
X18856291Y2536331D01*
X18722376Y2480862D01*
X18607379Y2392621D01*
X18519138Y2277624D01*
X18463669Y2143709D01*
X18444750Y2000000D01*
X17555250Y2000000D01*
X17536330Y2143709D01*
X17480861Y2277625D01*
X17392621Y2392621D01*
X17277625Y2480861D01*
X17277623Y2480862D01*
X17143708Y2536331D01*
X17000000Y2555250D01*
X16856291Y2536331D01*
X16722376Y2480862D01*
X16607379Y2392621D01*
X16519138Y2277624D01*
X16463669Y2143709D01*
X16444750Y2000000D01*
X15555250Y2000000D01*
X15536330Y2143709D01*
X15480861Y2277625D01*
X15392621Y2392621D01*
X15277625Y2480861D01*
X15277623Y2480862D01*
X15143708Y2536331D01*
X15000000Y2555250D01*
X14856291Y2536331D01*
X14722376Y2480862D01*
X14607379Y2392621D01*
X14519138Y2277624D01*
X14463669Y2143709D01*
X14444750Y2000000D01*
X13555250Y2000000D01*
X13536330Y2143709D01*
X13480861Y2277625D01*
X13392621Y2392621D01*
X13277625Y2480861D01*
X13277623Y2480862D01*
X13143708Y2536331D01*
X13000000Y2555250D01*
X12856291Y2536331D01*
X12722376Y2480862D01*
X12607379Y2392621D01*
X12519138Y2277624D01*
X12463669Y2143709D01*
X12444750Y2000000D01*
X11555250Y2000000D01*
X11536330Y2143709D01*
X11480861Y2277625D01*
X11392621Y2392621D01*
X11277625Y2480861D01*
X11277623Y2480862D01*
X11143708Y2536331D01*
X11000000Y2555250D01*
X10856291Y2536331D01*
X10722376Y2480862D01*
X10607379Y2392621D01*
X10519138Y2277624D01*
X10463669Y2143709D01*
X10444750Y2000000D01*
X9555250Y2000000D01*
X9536330Y2143709D01*
X9480861Y2277625D01*
X9392621Y2392621D01*
X9277625Y2480861D01*
X9277623Y2480862D01*
X9143708Y2536331D01*
X9000000Y2555250D01*
X8856291Y2536331D01*
X8722376Y2480862D01*
X8607379Y2392621D01*
X8519138Y2277624D01*
X8463669Y2143709D01*
X8444750Y2000000D01*
X7555250Y2000000D01*
X7536330Y2143709D01*
X7480861Y2277625D01*
X7392621Y2392621D01*
X7277625Y2480861D01*
X7277623Y2480862D01*
X7143708Y2536331D01*
X7000000Y2555250D01*
X6856291Y2536331D01*
X6722376Y2480862D01*
X6607379Y2392621D01*
X6519138Y2277624D01*
X6463669Y2143709D01*
X6444750Y2000000D01*
X5555250Y2000000D01*
X5536330Y2143709D01*
X5480861Y2277625D01*
X5392621Y2392621D01*
X5277625Y2480861D01*
X5277623Y2480862D01*
X5143708Y2536331D01*
X5000000Y2555250D01*
X4856291Y2536331D01*
X4722376Y2480862D01*
X4607379Y2392621D01*
X4519138Y2277624D01*
X4463669Y2143709D01*
X4444750Y2000000D01*
X3555250Y2000000D01*
X3536330Y2143709D01*
X3480861Y2277625D01*
X3392621Y2392621D01*
X3277625Y2480861D01*
X3277623Y2480862D01*
X3143708Y2536331D01*
X3000000Y2555250D01*
X2856291Y2536331D01*
X2722376Y2480862D01*
X2607379Y2392621D01*
X2519138Y2277624D01*
X2463669Y2143709D01*
X2444750Y2000000D01*
X1555250Y2000000D01*
X1536330Y2143709D01*
X1480861Y2277625D01*
X1392621Y2392621D01*
X1277625Y2480861D01*
X1277623Y2480862D01*
X1143708Y2536331D01*
X1000000Y2555250D01*
X856291Y2536331D01*
X722376Y2480862D01*
X607379Y2392621D01*
X519138Y2277624D01*
X463669Y2143709D01*
X444750Y2000000D01*
X169388Y2000000D01*
X95086Y2301456D01*
X93481Y2310221D01*
X52969Y2643863D01*
X52440Y2651677D01*
X51541Y2713711D01*
X29549501Y2713711D01*
X29582754Y2503759D01*
X29582757Y2503746D01*
X29648441Y2301593D01*
X29744949Y2112183D01*
X29821476Y2006853D01*
X29869897Y1940207D01*
X30020209Y1789895D01*
X30090934Y1738511D01*
X30192184Y1664948D01*
X30283475Y1618434D01*
X30381589Y1568442D01*
X30381591Y1568442D01*
X30381594Y1568440D01*
X30583747Y1502756D01*
X30583753Y1502755D01*
X30583758Y1502753D01*
X30688736Y1486126D01*
X30793712Y1469499D01*
X30793714Y1469499D01*
X31006290Y1469499D01*
X31090270Y1482801D01*
X31216244Y1502753D01*
X31216251Y1502756D01*
X31216254Y1502756D01*
X31418407Y1568440D01*
X31418407Y1568441D01*
X31418413Y1568442D01*
X31607817Y1664948D01*
X31779793Y1789895D01*
X31930105Y1940207D01*
X32055052Y2112183D01*
X32151558Y2301587D01*
X32217247Y2503756D01*
X32250501Y2713712D01*
X32250501Y2926286D01*
X32217247Y3136242D01*
X32217245Y3136247D01*
X32217244Y3136253D01*
X32151560Y3338406D01*
X32151558Y3338409D01*
X32151558Y3338411D01*
X32097375Y3444751D01*
X32055052Y3527816D01*
X31997245Y3607380D01*
X31930105Y3699791D01*
X31779793Y3850103D01*
X31713147Y3898524D01*
X31607817Y3975051D01*
X31418407Y4071559D01*
X31216254Y4137243D01*
X31216241Y4137246D01*
X31006290Y4170499D01*
X31006288Y4170499D01*
X30793714Y4170499D01*
X30793712Y4170499D01*
X30583760Y4137246D01*
X30583747Y4137243D01*
X30381594Y4071559D01*
X30192184Y3975051D01*
X30028727Y3856292D01*
X30020209Y3850103D01*
X29869897Y3699791D01*
X29869894Y3699788D01*
X29869894Y3699787D01*
X29744949Y3527816D01*
X29648441Y3338406D01*
X29582757Y3136253D01*
X29582754Y3136240D01*
X29549501Y2926288D01*
X29549501Y2713711D01*
X51541Y2713711D01*
X50009Y2819447D01*
X50001Y2820519D01*
X50001Y4000000D01*
X444750Y4000000D01*
X463669Y3856292D01*
X466233Y3850103D01*
X519139Y3722375D01*
X607379Y3607379D01*
X722375Y3519139D01*
X856291Y3463670D01*
X1000000Y3444750D01*
X1143709Y3463670D01*
X1277625Y3519139D01*
X1392621Y3607379D01*
X1480861Y3722375D01*
X1536330Y3856291D01*
X1555250Y4000000D01*
X2444750Y4000000D01*
X2463669Y3856292D01*
X2466233Y3850103D01*
X2519139Y3722375D01*
X2607379Y3607379D01*
X2722375Y3519139D01*
X2856291Y3463670D01*
X3000000Y3444750D01*
X3143709Y3463670D01*
X3277625Y3519139D01*
X3392621Y3607379D01*
X3480861Y3722375D01*
X3536330Y3856291D01*
X3555250Y4000000D01*
X4444750Y4000000D01*
X4463669Y3856292D01*
X4466233Y3850103D01*
X4519139Y3722375D01*
X4607379Y3607379D01*
X4722375Y3519139D01*
X4856291Y3463670D01*
X5000000Y3444750D01*
X5143709Y3463670D01*
X5277625Y3519139D01*
X5392621Y3607379D01*
X5480861Y3722375D01*
X5536330Y3856291D01*
X5555250Y4000000D01*
X6444750Y4000000D01*
X6463669Y3856292D01*
X6466233Y3850103D01*
X6519139Y3722375D01*
X6607379Y3607379D01*
X6722375Y3519139D01*
X6856291Y3463670D01*
X7000000Y3444750D01*
X7143709Y3463670D01*
X7277625Y3519139D01*
X7392621Y3607379D01*
X7480861Y3722375D01*
X7536330Y3856291D01*
X7555250Y4000000D01*
X8444750Y4000000D01*
X8463669Y3856292D01*
X8466233Y3850103D01*
X8519139Y3722375D01*
X8607379Y3607379D01*
X8722375Y3519139D01*
X8856291Y3463670D01*
X9000000Y3444750D01*
X9143709Y3463670D01*
X9277625Y3519139D01*
X9392621Y3607379D01*
X9480861Y3722375D01*
X9536330Y3856291D01*
X9555250Y4000000D01*
X10444750Y4000000D01*
X10463669Y3856292D01*
X10466233Y3850103D01*
X10519139Y3722375D01*
X10607379Y3607379D01*
X10722375Y3519139D01*
X10856291Y3463670D01*
X11000000Y3444750D01*
X11143709Y3463670D01*
X11277625Y3519139D01*
X11392621Y3607379D01*
X11480861Y3722375D01*
X11536330Y3856291D01*
X11555250Y4000000D01*
X12444750Y4000000D01*
X12463669Y3856292D01*
X12466233Y3850103D01*
X12519139Y3722375D01*
X12607379Y3607379D01*
X12722375Y3519139D01*
X12856291Y3463670D01*
X13000000Y3444750D01*
X13143709Y3463670D01*
X13277625Y3519139D01*
X13392621Y3607379D01*
X13480861Y3722375D01*
X13536330Y3856291D01*
X13555250Y4000000D01*
X14444750Y4000000D01*
X14463669Y3856292D01*
X14466233Y3850103D01*
X14519139Y3722375D01*
X14607379Y3607379D01*
X14722375Y3519139D01*
X14856291Y3463670D01*
X15000000Y3444750D01*
X15143709Y3463670D01*
X15277625Y3519139D01*
X15392621Y3607379D01*
X15480861Y3722375D01*
X15536330Y3856291D01*
X15555250Y4000000D01*
X16444750Y4000000D01*
X16463669Y3856292D01*
X16466233Y3850103D01*
X16519139Y3722375D01*
X16607379Y3607379D01*
X16722375Y3519139D01*
X16856291Y3463670D01*
X17000000Y3444750D01*
X17143709Y3463670D01*
X17277625Y3519139D01*
X17392621Y3607379D01*
X17480861Y3722375D01*
X17536330Y3856291D01*
X17555250Y4000000D01*
X18444750Y4000000D01*
X18463669Y3856292D01*
X18466233Y3850103D01*
X18519139Y3722375D01*
X18607379Y3607379D01*
X18722375Y3519139D01*
X18856291Y3463670D01*
X19000000Y3444750D01*
X19143709Y3463670D01*
X19277625Y3519139D01*
X19392621Y3607379D01*
X19480861Y3722375D01*
X19536330Y3856291D01*
X19555250Y4000000D01*
X20444750Y4000000D01*
X20463669Y3856292D01*
X20466233Y3850103D01*
X20519139Y3722375D01*
X20607379Y3607379D01*
X20722375Y3519139D01*
X20856291Y3463670D01*
X21000000Y3444750D01*
X21143709Y3463670D01*
X21277625Y3519139D01*
X21392621Y3607379D01*
X21480861Y3722375D01*
X21536330Y3856291D01*
X21555250Y4000000D01*
X22444750Y4000000D01*
X22463669Y3856292D01*
X22466233Y3850103D01*
X22519139Y3722375D01*
X22607379Y3607379D01*
X22722375Y3519139D01*
X22856291Y3463670D01*
X23000000Y3444750D01*
X23143709Y3463670D01*
X23277625Y3519139D01*
X23392621Y3607379D01*
X23480861Y3722375D01*
X23536330Y3856291D01*
X23555250Y4000000D01*
X24444750Y4000000D01*
X24463669Y3856292D01*
X24466233Y3850103D01*
X24519139Y3722375D01*
X24607379Y3607379D01*
X24722375Y3519139D01*
X24856291Y3463670D01*
X25000000Y3444750D01*
X25143709Y3463670D01*
X25277625Y3519139D01*
X25392621Y3607379D01*
X25480861Y3722375D01*
X25536330Y3856291D01*
X25555250Y4000000D01*
X26444750Y4000000D01*
X26463669Y3856292D01*
X26466233Y3850103D01*
X26519139Y3722375D01*
X26607379Y3607379D01*
X26722375Y3519139D01*
X26856291Y3463670D01*
X27000000Y3444750D01*
X27143709Y3463670D01*
X27277625Y3519139D01*
X27392621Y3607379D01*
X27480861Y3722375D01*
X27536330Y3856291D01*
X27555250Y4000000D01*
X28444750Y4000000D01*
X28463669Y3856292D01*
X28466233Y3850103D01*
X28519139Y3722375D01*
X28607379Y3607379D01*
X28722375Y3519139D01*
X28856291Y3463670D01*
X29000000Y3444750D01*
X29143709Y3463670D01*
X29277625Y3519139D01*
X29392621Y3607379D01*
X29480861Y3722375D01*
X29536330Y3856291D01*
X29555250Y4000000D01*
X29536330Y4143709D01*
X29480861Y4277625D01*
X29392621Y4392621D01*
X29277625Y4480861D01*
X29277623Y4480862D01*
X29143708Y4536331D01*
X29000000Y4555250D01*
X28856291Y4536331D01*
X28722376Y4480862D01*
X28607379Y4392621D01*
X28519138Y4277624D01*
X28463669Y4143709D01*
X28444750Y4000000D01*
X27555250Y4000000D01*
X27536330Y4143709D01*
X27480861Y4277625D01*
X27392621Y4392621D01*
X27277625Y4480861D01*
X27277623Y4480862D01*
X27143708Y4536331D01*
X27000000Y4555250D01*
X26856291Y4536331D01*
X26722376Y4480862D01*
X26607379Y4392621D01*
X26519138Y4277624D01*
X26463669Y4143709D01*
X26444750Y4000000D01*
X25555250Y4000000D01*
X25536330Y4143709D01*
X25480861Y4277625D01*
X25392621Y4392621D01*
X25277625Y4480861D01*
X25277623Y4480862D01*
X25143708Y4536331D01*
X25000000Y4555250D01*
X24856291Y4536331D01*
X24722376Y4480862D01*
X24607379Y4392621D01*
X24519138Y4277624D01*
X24463669Y4143709D01*
X24444750Y4000000D01*
X23555250Y4000000D01*
X23536330Y4143709D01*
X23480861Y4277625D01*
X23392621Y4392621D01*
X23277625Y4480861D01*
X23277623Y4480862D01*
X23143708Y4536331D01*
X23000000Y4555250D01*
X22856291Y4536331D01*
X22722376Y4480862D01*
X22607379Y4392621D01*
X22519138Y4277624D01*
X22463669Y4143709D01*
X22444750Y4000000D01*
X21555250Y4000000D01*
X21536330Y4143709D01*
X21480861Y4277625D01*
X21392621Y4392621D01*
X21277625Y4480861D01*
X21277623Y4480862D01*
X21143708Y4536331D01*
X21000000Y4555250D01*
X20856291Y4536331D01*
X20722376Y4480862D01*
X20607379Y4392621D01*
X20519138Y4277624D01*
X20463669Y4143709D01*
X20444750Y4000000D01*
X19555250Y4000000D01*
X19536330Y4143709D01*
X19480861Y4277625D01*
X19392621Y4392621D01*
X19277625Y4480861D01*
X19277623Y4480862D01*
X19143708Y4536331D01*
X19000000Y4555250D01*
X18856291Y4536331D01*
X18722376Y4480862D01*
X18607379Y4392621D01*
X18519138Y4277624D01*
X18463669Y4143709D01*
X18444750Y4000000D01*
X17555250Y4000000D01*
X17536330Y4143709D01*
X17480861Y4277625D01*
X17392621Y4392621D01*
X17277625Y4480861D01*
X17277623Y4480862D01*
X17143708Y4536331D01*
X17000000Y4555250D01*
X16856291Y4536331D01*
X16722376Y4480862D01*
X16607379Y4392621D01*
X16519138Y4277624D01*
X16463669Y4143709D01*
X16444750Y4000000D01*
X15555250Y4000000D01*
X15536330Y4143709D01*
X15480861Y4277625D01*
X15392621Y4392621D01*
X15277625Y4480861D01*
X15277623Y4480862D01*
X15143708Y4536331D01*
X15000000Y4555250D01*
X14856291Y4536331D01*
X14722376Y4480862D01*
X14607379Y4392621D01*
X14519138Y4277624D01*
X14463669Y4143709D01*
X14444750Y4000000D01*
X13555250Y4000000D01*
X13536330Y4143709D01*
X13480861Y4277625D01*
X13392621Y4392621D01*
X13277625Y4480861D01*
X13277623Y4480862D01*
X13143708Y4536331D01*
X13000000Y4555250D01*
X12856291Y4536331D01*
X12722376Y4480862D01*
X12607379Y4392621D01*
X12519138Y4277624D01*
X12463669Y4143709D01*
X12444750Y4000000D01*
X11555250Y4000000D01*
X11536330Y4143709D01*
X11480861Y4277625D01*
X11392621Y4392621D01*
X11277625Y4480861D01*
X11277623Y4480862D01*
X11143708Y4536331D01*
X11000000Y4555250D01*
X10856291Y4536331D01*
X10722376Y4480862D01*
X10607379Y4392621D01*
X10519138Y4277624D01*
X10463669Y4143709D01*
X10444750Y4000000D01*
X9555250Y4000000D01*
X9536330Y4143709D01*
X9480861Y4277625D01*
X9392621Y4392621D01*
X9277625Y4480861D01*
X9277623Y4480862D01*
X9143708Y4536331D01*
X9000000Y4555250D01*
X8856291Y4536331D01*
X8722376Y4480862D01*
X8607379Y4392621D01*
X8519138Y4277624D01*
X8463669Y4143709D01*
X8444750Y4000000D01*
X7555250Y4000000D01*
X7536330Y4143709D01*
X7480861Y4277625D01*
X7392621Y4392621D01*
X7277625Y4480861D01*
X7277623Y4480862D01*
X7143708Y4536331D01*
X7000000Y4555250D01*
X6856291Y4536331D01*
X6722376Y4480862D01*
X6607379Y4392621D01*
X6519138Y4277624D01*
X6463669Y4143709D01*
X6444750Y4000000D01*
X5555250Y4000000D01*
X5536330Y4143709D01*
X5480861Y4277625D01*
X5392621Y4392621D01*
X5277625Y4480861D01*
X5277623Y4480862D01*
X5143708Y4536331D01*
X5000000Y4555250D01*
X4856291Y4536331D01*
X4722376Y4480862D01*
X4607379Y4392621D01*
X4519138Y4277624D01*
X4463669Y4143709D01*
X4444750Y4000000D01*
X3555250Y4000000D01*
X3536330Y4143709D01*
X3480861Y4277625D01*
X3392621Y4392621D01*
X3277625Y4480861D01*
X3277623Y4480862D01*
X3143708Y4536331D01*
X3000000Y4555250D01*
X2856291Y4536331D01*
X2722376Y4480862D01*
X2607379Y4392621D01*
X2519138Y4277624D01*
X2463669Y4143709D01*
X2444750Y4000000D01*
X1555250Y4000000D01*
X1536330Y4143709D01*
X1480861Y4277625D01*
X1392621Y4392621D01*
X1277625Y4480861D01*
X1277623Y4480862D01*
X1143708Y4536331D01*
X1000000Y4555250D01*
X856291Y4536331D01*
X722376Y4480862D01*
X607379Y4392621D01*
X519138Y4277624D01*
X463669Y4143709D01*
X444750Y4000000D01*
X50001Y4000000D01*
X50001Y6000000D01*
X444750Y6000000D01*
X463669Y5856292D01*
X519138Y5722377D01*
X519139Y5722375D01*
X607379Y5607379D01*
X722375Y5519139D01*
X856291Y5463670D01*
X1000000Y5444750D01*
X1143709Y5463670D01*
X1277625Y5519139D01*
X1392621Y5607379D01*
X1480861Y5722375D01*
X1536330Y5856291D01*
X1555250Y6000000D01*
X2444750Y6000000D01*
X2463669Y5856292D01*
X2519138Y5722377D01*
X2519139Y5722375D01*
X2607379Y5607379D01*
X2722375Y5519139D01*
X2856291Y5463670D01*
X3000000Y5444750D01*
X3143709Y5463670D01*
X3277625Y5519139D01*
X3392621Y5607379D01*
X3480861Y5722375D01*
X3536330Y5856291D01*
X3555250Y6000000D01*
X4444750Y6000000D01*
X4463669Y5856292D01*
X4519138Y5722377D01*
X4519139Y5722375D01*
X4607379Y5607379D01*
X4722375Y5519139D01*
X4856291Y5463670D01*
X5000000Y5444750D01*
X5143709Y5463670D01*
X5277625Y5519139D01*
X5392621Y5607379D01*
X5480861Y5722375D01*
X5536330Y5856291D01*
X5555250Y6000000D01*
X6444750Y6000000D01*
X6463669Y5856292D01*
X6519138Y5722377D01*
X6519139Y5722375D01*
X6607379Y5607379D01*
X6722375Y5519139D01*
X6856291Y5463670D01*
X7000000Y5444750D01*
X7143709Y5463670D01*
X7277625Y5519139D01*
X7392621Y5607379D01*
X7480861Y5722375D01*
X7536330Y5856291D01*
X7555250Y6000000D01*
X8444750Y6000000D01*
X8463669Y5856292D01*
X8519138Y5722377D01*
X8519139Y5722375D01*
X8607379Y5607379D01*
X8722375Y5519139D01*
X8856291Y5463670D01*
X9000000Y5444750D01*
X9143709Y5463670D01*
X9277625Y5519139D01*
X9392621Y5607379D01*
X9480861Y5722375D01*
X9536330Y5856291D01*
X9555250Y6000000D01*
X10444750Y6000000D01*
X10463669Y5856292D01*
X10519138Y5722377D01*
X10519139Y5722375D01*
X10607379Y5607379D01*
X10722375Y5519139D01*
X10856291Y5463670D01*
X11000000Y5444750D01*
X11143709Y5463670D01*
X11277625Y5519139D01*
X11392621Y5607379D01*
X11480861Y5722375D01*
X11536330Y5856291D01*
X11555250Y6000000D01*
X12444750Y6000000D01*
X12463669Y5856292D01*
X12519138Y5722377D01*
X12519139Y5722375D01*
X12607379Y5607379D01*
X12722375Y5519139D01*
X12856291Y5463670D01*
X13000000Y5444750D01*
X13143709Y5463670D01*
X13277625Y5519139D01*
X13392621Y5607379D01*
X13480861Y5722375D01*
X13536330Y5856291D01*
X13555250Y6000000D01*
X14444750Y6000000D01*
X14463669Y5856292D01*
X14519138Y5722377D01*
X14519139Y5722375D01*
X14607379Y5607379D01*
X14722375Y5519139D01*
X14856291Y5463670D01*
X15000000Y5444750D01*
X15143709Y5463670D01*
X15277625Y5519139D01*
X15392621Y5607379D01*
X15480861Y5722375D01*
X15536330Y5856291D01*
X15555250Y6000000D01*
X16444750Y6000000D01*
X16463669Y5856292D01*
X16519138Y5722377D01*
X16519139Y5722375D01*
X16607379Y5607379D01*
X16722375Y5519139D01*
X16856291Y5463670D01*
X17000000Y5444750D01*
X17143709Y5463670D01*
X17277625Y5519139D01*
X17392621Y5607379D01*
X17480861Y5722375D01*
X17536330Y5856291D01*
X17555250Y6000000D01*
X18444750Y6000000D01*
X18463669Y5856292D01*
X18519138Y5722377D01*
X18519139Y5722375D01*
X18607379Y5607379D01*
X18722375Y5519139D01*
X18856291Y5463670D01*
X19000000Y5444750D01*
X19143709Y5463670D01*
X19277625Y5519139D01*
X19392621Y5607379D01*
X19480861Y5722375D01*
X19536330Y5856291D01*
X19555250Y6000000D01*
X20444750Y6000000D01*
X20463669Y5856292D01*
X20519138Y5722377D01*
X20519139Y5722375D01*
X20607379Y5607379D01*
X20722375Y5519139D01*
X20856291Y5463670D01*
X21000000Y5444750D01*
X21143709Y5463670D01*
X21277625Y5519139D01*
X21392621Y5607379D01*
X21480861Y5722375D01*
X21536330Y5856291D01*
X21555250Y6000000D01*
X22444750Y6000000D01*
X22463669Y5856292D01*
X22519138Y5722377D01*
X22519139Y5722375D01*
X22607379Y5607379D01*
X22722375Y5519139D01*
X22856291Y5463670D01*
X23000000Y5444750D01*
X23143709Y5463670D01*
X23277625Y5519139D01*
X23392621Y5607379D01*
X23480861Y5722375D01*
X23536330Y5856291D01*
X23555250Y6000000D01*
X24444750Y6000000D01*
X24463669Y5856292D01*
X24519138Y5722377D01*
X24519139Y5722375D01*
X24607379Y5607379D01*
X24722375Y5519139D01*
X24856291Y5463670D01*
X25000000Y5444750D01*
X25143709Y5463670D01*
X25277625Y5519139D01*
X25392621Y5607379D01*
X25480861Y5722375D01*
X25536330Y5856291D01*
X25555250Y6000000D01*
X26444750Y6000000D01*
X26463669Y5856292D01*
X26519138Y5722377D01*
X26519139Y5722375D01*
X26607379Y5607379D01*
X26722375Y5519139D01*
X26856291Y5463670D01*
X27000000Y5444750D01*
X27143709Y5463670D01*
X27277625Y5519139D01*
X27392621Y5607379D01*
X27480861Y5722375D01*
X27536330Y5856291D01*
X27555250Y6000000D01*
X28444750Y6000000D01*
X28463669Y5856292D01*
X28519138Y5722377D01*
X28519139Y5722375D01*
X28607379Y5607379D01*
X28722375Y5519139D01*
X28856291Y5463670D01*
X29000000Y5444750D01*
X29143709Y5463670D01*
X29277625Y5519139D01*
X29392621Y5607379D01*
X29480861Y5722375D01*
X29536330Y5856291D01*
X29555250Y6000000D01*
X30444750Y6000000D01*
X30463669Y5856292D01*
X30519138Y5722377D01*
X30519139Y5722375D01*
X30607379Y5607379D01*
X30722375Y5519139D01*
X30856291Y5463670D01*
X31000000Y5444750D01*
X31143709Y5463670D01*
X31277625Y5519139D01*
X31392621Y5607379D01*
X31480861Y5722375D01*
X31536330Y5856291D01*
X31555250Y6000000D01*
X31536330Y6143709D01*
X31480861Y6277625D01*
X31392621Y6392621D01*
X31277625Y6480861D01*
X31277623Y6480862D01*
X31143708Y6536331D01*
X31000000Y6555250D01*
X30856291Y6536331D01*
X30722376Y6480862D01*
X30607379Y6392621D01*
X30519138Y6277624D01*
X30463669Y6143709D01*
X30444750Y6000000D01*
X29555250Y6000000D01*
X29536330Y6143709D01*
X29480861Y6277625D01*
X29392621Y6392621D01*
X29277625Y6480861D01*
X29277623Y6480862D01*
X29143708Y6536331D01*
X29000000Y6555250D01*
X28856291Y6536331D01*
X28722376Y6480862D01*
X28607379Y6392621D01*
X28519138Y6277624D01*
X28463669Y6143709D01*
X28444750Y6000000D01*
X27555250Y6000000D01*
X27536330Y6143709D01*
X27480861Y6277625D01*
X27392621Y6392621D01*
X27277625Y6480861D01*
X27277623Y6480862D01*
X27143708Y6536331D01*
X27000000Y6555250D01*
X26856291Y6536331D01*
X26722376Y6480862D01*
X26607379Y6392621D01*
X26519138Y6277624D01*
X26463669Y6143709D01*
X26444750Y6000000D01*
X25555250Y6000000D01*
X25536330Y6143709D01*
X25480861Y6277625D01*
X25392621Y6392621D01*
X25277625Y6480861D01*
X25277623Y6480862D01*
X25143708Y6536331D01*
X25000000Y6555250D01*
X24856291Y6536331D01*
X24722376Y6480862D01*
X24607379Y6392621D01*
X24519138Y6277624D01*
X24463669Y6143709D01*
X24444750Y6000000D01*
X23555250Y6000000D01*
X23536330Y6143709D01*
X23480861Y6277625D01*
X23392621Y6392621D01*
X23277625Y6480861D01*
X23277623Y6480862D01*
X23143708Y6536331D01*
X23000000Y6555250D01*
X22856291Y6536331D01*
X22722376Y6480862D01*
X22607379Y6392621D01*
X22519138Y6277624D01*
X22463669Y6143709D01*
X22444750Y6000000D01*
X21555250Y6000000D01*
X21536330Y6143709D01*
X21480861Y6277625D01*
X21392621Y6392621D01*
X21277625Y6480861D01*
X21277623Y6480862D01*
X21143708Y6536331D01*
X21000000Y6555250D01*
X20856291Y6536331D01*
X20722376Y6480862D01*
X20607379Y6392621D01*
X20519138Y6277624D01*
X20463669Y6143709D01*
X20444750Y6000000D01*
X19555250Y6000000D01*
X19536330Y6143709D01*
X19480861Y6277625D01*
X19392621Y6392621D01*
X19277625Y6480861D01*
X19277623Y6480862D01*
X19143708Y6536331D01*
X19000000Y6555250D01*
X18856291Y6536331D01*
X18722376Y6480862D01*
X18607379Y6392621D01*
X18519138Y6277624D01*
X18463669Y6143709D01*
X18444750Y6000000D01*
X17555250Y6000000D01*
X17536330Y6143709D01*
X17480861Y6277625D01*
X17392621Y6392621D01*
X17277625Y6480861D01*
X17277623Y6480862D01*
X17143708Y6536331D01*
X17000000Y6555250D01*
X16856291Y6536331D01*
X16722376Y6480862D01*
X16607379Y6392621D01*
X16519138Y6277624D01*
X16463669Y6143709D01*
X16444750Y6000000D01*
X15555250Y6000000D01*
X15536330Y6143709D01*
X15480861Y6277625D01*
X15392621Y6392621D01*
X15277625Y6480861D01*
X15277623Y6480862D01*
X15143708Y6536331D01*
X15000000Y6555250D01*
X14856291Y6536331D01*
X14722376Y6480862D01*
X14607379Y6392621D01*
X14519138Y6277624D01*
X14463669Y6143709D01*
X14444750Y6000000D01*
X13555250Y6000000D01*
X13536330Y6143709D01*
X13480861Y6277625D01*
X13392621Y6392621D01*
X13277625Y6480861D01*
X13277623Y6480862D01*
X13143708Y6536331D01*
X13000000Y6555250D01*
X12856291Y6536331D01*
X12722376Y6480862D01*
X12607379Y6392621D01*
X12519138Y6277624D01*
X12463669Y6143709D01*
X12444750Y6000000D01*
X11555250Y6000000D01*
X11536330Y6143709D01*
X11480861Y6277625D01*
X11392621Y6392621D01*
X11277625Y6480861D01*
X11277623Y6480862D01*
X11143708Y6536331D01*
X11000000Y6555250D01*
X10856291Y6536331D01*
X10722376Y6480862D01*
X10607379Y6392621D01*
X10519138Y6277624D01*
X10463669Y6143709D01*
X10444750Y6000000D01*
X9555250Y6000000D01*
X9536330Y6143709D01*
X9480861Y6277625D01*
X9392621Y6392621D01*
X9277625Y6480861D01*
X9277623Y6480862D01*
X9143708Y6536331D01*
X9000000Y6555250D01*
X8856291Y6536331D01*
X8722376Y6480862D01*
X8607379Y6392621D01*
X8519138Y6277624D01*
X8463669Y6143709D01*
X8444750Y6000000D01*
X7555250Y6000000D01*
X7536330Y6143709D01*
X7480861Y6277625D01*
X7392621Y6392621D01*
X7277625Y6480861D01*
X7277623Y6480862D01*
X7143708Y6536331D01*
X7000000Y6555250D01*
X6856291Y6536331D01*
X6722376Y6480862D01*
X6607379Y6392621D01*
X6519138Y6277624D01*
X6463669Y6143709D01*
X6444750Y6000000D01*
X5555250Y6000000D01*
X5536330Y6143709D01*
X5480861Y6277625D01*
X5392621Y6392621D01*
X5277625Y6480861D01*
X5277623Y6480862D01*
X5143708Y6536331D01*
X5000000Y6555250D01*
X4856291Y6536331D01*
X4722376Y6480862D01*
X4607379Y6392621D01*
X4519138Y6277624D01*
X4463669Y6143709D01*
X4444750Y6000000D01*
X3555250Y6000000D01*
X3536330Y6143709D01*
X3480861Y6277625D01*
X3392621Y6392621D01*
X3277625Y6480861D01*
X3277623Y6480862D01*
X3143708Y6536331D01*
X3000000Y6555250D01*
X2856291Y6536331D01*
X2722376Y6480862D01*
X2607379Y6392621D01*
X2519138Y6277624D01*
X2463669Y6143709D01*
X2444750Y6000000D01*
X1555250Y6000000D01*
X1536330Y6143709D01*
X1480861Y6277625D01*
X1392621Y6392621D01*
X1277625Y6480861D01*
X1277623Y6480862D01*
X1143708Y6536331D01*
X1000000Y6555250D01*
X856291Y6536331D01*
X722376Y6480862D01*
X607379Y6392621D01*
X519138Y6277624D01*
X463669Y6143709D01*
X444750Y6000000D01*
X50001Y6000000D01*
X50001Y8000000D01*
X444750Y8000000D01*
X463669Y7856292D01*
X519138Y7722377D01*
X519139Y7722375D01*
X607379Y7607379D01*
X722375Y7519139D01*
X856291Y7463670D01*
X1000000Y7444750D01*
X1143709Y7463670D01*
X1277625Y7519139D01*
X1392621Y7607379D01*
X1480861Y7722375D01*
X1536330Y7856291D01*
X1555250Y8000000D01*
X2444750Y8000000D01*
X2463669Y7856292D01*
X2519138Y7722377D01*
X2519139Y7722375D01*
X2607379Y7607379D01*
X2722375Y7519139D01*
X2856291Y7463670D01*
X3000000Y7444750D01*
X3143709Y7463670D01*
X3277625Y7519139D01*
X3392621Y7607379D01*
X3480861Y7722375D01*
X3536330Y7856291D01*
X3555250Y8000000D01*
X4444750Y8000000D01*
X4463669Y7856292D01*
X4519138Y7722377D01*
X4519139Y7722375D01*
X4607379Y7607379D01*
X4722375Y7519139D01*
X4856291Y7463670D01*
X5000000Y7444750D01*
X5143709Y7463670D01*
X5277625Y7519139D01*
X5392621Y7607379D01*
X5480861Y7722375D01*
X5536330Y7856291D01*
X5555250Y8000000D01*
X6444750Y8000000D01*
X6463669Y7856292D01*
X6519138Y7722377D01*
X6519139Y7722375D01*
X6607379Y7607379D01*
X6722375Y7519139D01*
X6856291Y7463670D01*
X7000000Y7444750D01*
X7143709Y7463670D01*
X7277625Y7519139D01*
X7392621Y7607379D01*
X7480861Y7722375D01*
X7536330Y7856291D01*
X7555250Y8000000D01*
X8444750Y8000000D01*
X8463669Y7856292D01*
X8519138Y7722377D01*
X8519139Y7722375D01*
X8607379Y7607379D01*
X8722375Y7519139D01*
X8856291Y7463670D01*
X9000000Y7444750D01*
X9143709Y7463670D01*
X9277625Y7519139D01*
X9392621Y7607379D01*
X9480861Y7722375D01*
X9536330Y7856291D01*
X9555250Y8000000D01*
X10444750Y8000000D01*
X10463669Y7856292D01*
X10519138Y7722377D01*
X10519139Y7722375D01*
X10607379Y7607379D01*
X10722375Y7519139D01*
X10856291Y7463670D01*
X11000000Y7444750D01*
X11143709Y7463670D01*
X11277625Y7519139D01*
X11392621Y7607379D01*
X11480861Y7722375D01*
X11536330Y7856291D01*
X11555250Y8000000D01*
X12444750Y8000000D01*
X12463669Y7856292D01*
X12519138Y7722377D01*
X12519139Y7722375D01*
X12607379Y7607379D01*
X12722375Y7519139D01*
X12856291Y7463670D01*
X13000000Y7444750D01*
X13143709Y7463670D01*
X13277625Y7519139D01*
X13392621Y7607379D01*
X13480861Y7722375D01*
X13536330Y7856291D01*
X13555250Y8000000D01*
X14444750Y8000000D01*
X14463669Y7856292D01*
X14519138Y7722377D01*
X14519139Y7722375D01*
X14607379Y7607379D01*
X14722375Y7519139D01*
X14856291Y7463670D01*
X15000000Y7444750D01*
X15143709Y7463670D01*
X15277625Y7519139D01*
X15392621Y7607379D01*
X15480861Y7722375D01*
X15536330Y7856291D01*
X15555250Y8000000D01*
X16444750Y8000000D01*
X16463669Y7856292D01*
X16519138Y7722377D01*
X16519139Y7722375D01*
X16607379Y7607379D01*
X16722375Y7519139D01*
X16856291Y7463670D01*
X17000000Y7444750D01*
X17143709Y7463670D01*
X17277625Y7519139D01*
X17392621Y7607379D01*
X17480861Y7722375D01*
X17536330Y7856291D01*
X17555250Y8000000D01*
X18444750Y8000000D01*
X18463669Y7856292D01*
X18519138Y7722377D01*
X18519139Y7722375D01*
X18607379Y7607379D01*
X18722375Y7519139D01*
X18856291Y7463670D01*
X19000000Y7444750D01*
X19143709Y7463670D01*
X19277625Y7519139D01*
X19392621Y7607379D01*
X19480861Y7722375D01*
X19536330Y7856291D01*
X19555250Y8000000D01*
X20444750Y8000000D01*
X20463669Y7856292D01*
X20519138Y7722377D01*
X20519139Y7722375D01*
X20607379Y7607379D01*
X20722375Y7519139D01*
X20856291Y7463670D01*
X21000000Y7444750D01*
X21143709Y7463670D01*
X21277625Y7519139D01*
X21392621Y7607379D01*
X21480861Y7722375D01*
X21536330Y7856291D01*
X21555250Y8000000D01*
X22444750Y8000000D01*
X22463669Y7856292D01*
X22519138Y7722377D01*
X22519139Y7722375D01*
X22607379Y7607379D01*
X22722375Y7519139D01*
X22856291Y7463670D01*
X23000000Y7444750D01*
X23143709Y7463670D01*
X23277625Y7519139D01*
X23392621Y7607379D01*
X23480861Y7722375D01*
X23536330Y7856291D01*
X23555250Y8000000D01*
X24444750Y8000000D01*
X24463669Y7856292D01*
X24519138Y7722377D01*
X24519139Y7722375D01*
X24607379Y7607379D01*
X24722375Y7519139D01*
X24856291Y7463670D01*
X25000000Y7444750D01*
X25143709Y7463670D01*
X25277625Y7519139D01*
X25392621Y7607379D01*
X25480861Y7722375D01*
X25536330Y7856291D01*
X25555250Y8000000D01*
X26444750Y8000000D01*
X26463669Y7856292D01*
X26519138Y7722377D01*
X26519139Y7722375D01*
X26607379Y7607379D01*
X26722375Y7519139D01*
X26856291Y7463670D01*
X27000000Y7444750D01*
X27143709Y7463670D01*
X27277625Y7519139D01*
X27392621Y7607379D01*
X27480861Y7722375D01*
X27536330Y7856291D01*
X27555250Y8000000D01*
X28444750Y8000000D01*
X28463669Y7856292D01*
X28519138Y7722377D01*
X28519139Y7722375D01*
X28607379Y7607379D01*
X28722375Y7519139D01*
X28856291Y7463670D01*
X29000000Y7444750D01*
X29143709Y7463670D01*
X29277625Y7519139D01*
X29392621Y7607379D01*
X29480861Y7722375D01*
X29536330Y7856291D01*
X29555250Y8000000D01*
X30444750Y8000000D01*
X30463669Y7856292D01*
X30519138Y7722377D01*
X30519139Y7722375D01*
X30607379Y7607379D01*
X30722375Y7519139D01*
X30856291Y7463670D01*
X31000000Y7444750D01*
X31143709Y7463670D01*
X31277625Y7519139D01*
X31392621Y7607379D01*
X31480861Y7722375D01*
X31536330Y7856291D01*
X31555250Y8000000D01*
X31536330Y8143709D01*
X31480861Y8277625D01*
X31392621Y8392621D01*
X31277625Y8480861D01*
X31277623Y8480862D01*
X31143708Y8536331D01*
X31000000Y8555250D01*
X30856291Y8536331D01*
X30722376Y8480862D01*
X30607379Y8392621D01*
X30519138Y8277624D01*
X30463669Y8143709D01*
X30444750Y8000000D01*
X29555250Y8000000D01*
X29536330Y8143709D01*
X29480861Y8277625D01*
X29392621Y8392621D01*
X29277625Y8480861D01*
X29277623Y8480862D01*
X29143708Y8536331D01*
X29000000Y8555250D01*
X28856291Y8536331D01*
X28722376Y8480862D01*
X28607379Y8392621D01*
X28519138Y8277624D01*
X28463669Y8143709D01*
X28444750Y8000000D01*
X27555250Y8000000D01*
X27536330Y8143709D01*
X27480861Y8277625D01*
X27392621Y8392621D01*
X27277625Y8480861D01*
X27277623Y8480862D01*
X27143708Y8536331D01*
X27000000Y8555250D01*
X26856291Y8536331D01*
X26722376Y8480862D01*
X26607379Y8392621D01*
X26519138Y8277624D01*
X26463669Y8143709D01*
X26444750Y8000000D01*
X25555250Y8000000D01*
X25536330Y8143709D01*
X25480861Y8277625D01*
X25392621Y8392621D01*
X25277625Y8480861D01*
X25277623Y8480862D01*
X25143708Y8536331D01*
X25000000Y8555250D01*
X24856291Y8536331D01*
X24722376Y8480862D01*
X24607379Y8392621D01*
X24519138Y8277624D01*
X24463669Y8143709D01*
X24444750Y8000000D01*
X23555250Y8000000D01*
X23536330Y8143709D01*
X23480861Y8277625D01*
X23392621Y8392621D01*
X23277625Y8480861D01*
X23277623Y8480862D01*
X23143708Y8536331D01*
X23000000Y8555250D01*
X22856291Y8536331D01*
X22722376Y8480862D01*
X22607379Y8392621D01*
X22519138Y8277624D01*
X22463669Y8143709D01*
X22444750Y8000000D01*
X21555250Y8000000D01*
X21536330Y8143709D01*
X21480861Y8277625D01*
X21392621Y8392621D01*
X21277625Y8480861D01*
X21277623Y8480862D01*
X21143708Y8536331D01*
X21000000Y8555250D01*
X20856291Y8536331D01*
X20722376Y8480862D01*
X20607379Y8392621D01*
X20519138Y8277624D01*
X20463669Y8143709D01*
X20444750Y8000000D01*
X19555250Y8000000D01*
X19536330Y8143709D01*
X19480861Y8277625D01*
X19392621Y8392621D01*
X19277625Y8480861D01*
X19277623Y8480862D01*
X19143708Y8536331D01*
X19000000Y8555250D01*
X18856291Y8536331D01*
X18722376Y8480862D01*
X18607379Y8392621D01*
X18519138Y8277624D01*
X18463669Y8143709D01*
X18444750Y8000000D01*
X17555250Y8000000D01*
X17536330Y8143709D01*
X17480861Y8277625D01*
X17392621Y8392621D01*
X17277625Y8480861D01*
X17277623Y8480862D01*
X17143708Y8536331D01*
X17000000Y8555250D01*
X16856291Y8536331D01*
X16722376Y8480862D01*
X16607379Y8392621D01*
X16519138Y8277624D01*
X16463669Y8143709D01*
X16444750Y8000000D01*
X15555250Y8000000D01*
X15536330Y8143709D01*
X15480861Y8277625D01*
X15392621Y8392621D01*
X15277625Y8480861D01*
X15277623Y8480862D01*
X15143708Y8536331D01*
X15000000Y8555250D01*
X14856291Y8536331D01*
X14722376Y8480862D01*
X14607379Y8392621D01*
X14519138Y8277624D01*
X14463669Y8143709D01*
X14444750Y8000000D01*
X13555250Y8000000D01*
X13536330Y8143709D01*
X13480861Y8277625D01*
X13392621Y8392621D01*
X13277625Y8480861D01*
X13277623Y8480862D01*
X13143708Y8536331D01*
X13000000Y8555250D01*
X12856291Y8536331D01*
X12722376Y8480862D01*
X12607379Y8392621D01*
X12519138Y8277624D01*
X12463669Y8143709D01*
X12444750Y8000000D01*
X11555250Y8000000D01*
X11536330Y8143709D01*
X11480861Y8277625D01*
X11392621Y8392621D01*
X11277625Y8480861D01*
X11277623Y8480862D01*
X11143708Y8536331D01*
X11000000Y8555250D01*
X10856291Y8536331D01*
X10722376Y8480862D01*
X10607379Y8392621D01*
X10519138Y8277624D01*
X10463669Y8143709D01*
X10444750Y8000000D01*
X9555250Y8000000D01*
X9536330Y8143709D01*
X9480861Y8277625D01*
X9392621Y8392621D01*
X9277625Y8480861D01*
X9277623Y8480862D01*
X9143708Y8536331D01*
X9000000Y8555250D01*
X8856291Y8536331D01*
X8722376Y8480862D01*
X8607379Y8392621D01*
X8519138Y8277624D01*
X8463669Y8143709D01*
X8444750Y8000000D01*
X7555250Y8000000D01*
X7536330Y8143709D01*
X7480861Y8277625D01*
X7392621Y8392621D01*
X7277625Y8480861D01*
X7277623Y8480862D01*
X7143708Y8536331D01*
X7000000Y8555250D01*
X6856291Y8536331D01*
X6722376Y8480862D01*
X6607379Y8392621D01*
X6519138Y8277624D01*
X6463669Y8143709D01*
X6444750Y8000000D01*
X5555250Y8000000D01*
X5536330Y8143709D01*
X5480861Y8277625D01*
X5392621Y8392621D01*
X5277625Y8480861D01*
X5277623Y8480862D01*
X5143708Y8536331D01*
X5000000Y8555250D01*
X4856291Y8536331D01*
X4722376Y8480862D01*
X4607379Y8392621D01*
X4519138Y8277624D01*
X4463669Y8143709D01*
X4444750Y8000000D01*
X3555250Y8000000D01*
X3536330Y8143709D01*
X3480861Y8277625D01*
X3392621Y8392621D01*
X3277625Y8480861D01*
X3277623Y8480862D01*
X3143708Y8536331D01*
X3000000Y8555250D01*
X2856291Y8536331D01*
X2722376Y8480862D01*
X2607379Y8392621D01*
X2519138Y8277624D01*
X2463669Y8143709D01*
X2444750Y8000000D01*
X1555250Y8000000D01*
X1536330Y8143709D01*
X1480861Y8277625D01*
X1392621Y8392621D01*
X1277625Y8480861D01*
X1277623Y8480862D01*
X1143708Y8536331D01*
X1000000Y8555250D01*
X856291Y8536331D01*
X722376Y8480862D01*
X607379Y8392621D01*
X519138Y8277624D01*
X463669Y8143709D01*
X444750Y8000000D01*
X50001Y8000000D01*
X50001Y10000000D01*
X444750Y10000000D01*
X463669Y9856292D01*
X519138Y9722377D01*
X519139Y9722375D01*
X607379Y9607379D01*
X722375Y9519139D01*
X856291Y9463670D01*
X1000000Y9444750D01*
X1143709Y9463670D01*
X1277625Y9519139D01*
X1392621Y9607379D01*
X1480861Y9722375D01*
X1536330Y9856291D01*
X1555250Y10000000D01*
X2444750Y10000000D01*
X2463669Y9856292D01*
X2519138Y9722377D01*
X2519139Y9722375D01*
X2607379Y9607379D01*
X2722375Y9519139D01*
X2856291Y9463670D01*
X3000000Y9444750D01*
X3143709Y9463670D01*
X3277625Y9519139D01*
X3392621Y9607379D01*
X3480861Y9722375D01*
X3536330Y9856291D01*
X3555250Y10000000D01*
X4444750Y10000000D01*
X4463669Y9856292D01*
X4519138Y9722377D01*
X4519139Y9722375D01*
X4607379Y9607379D01*
X4722375Y9519139D01*
X4856291Y9463670D01*
X5000000Y9444750D01*
X5143709Y9463670D01*
X5277625Y9519139D01*
X5392621Y9607379D01*
X5480861Y9722375D01*
X5536330Y9856291D01*
X5555250Y10000000D01*
X6444750Y10000000D01*
X6463669Y9856292D01*
X6519138Y9722377D01*
X6519139Y9722375D01*
X6607379Y9607379D01*
X6722375Y9519139D01*
X6856291Y9463670D01*
X7000000Y9444750D01*
X7143709Y9463670D01*
X7277625Y9519139D01*
X7392621Y9607379D01*
X7480861Y9722375D01*
X7536330Y9856291D01*
X7555250Y10000000D01*
X8444750Y10000000D01*
X8463669Y9856292D01*
X8519138Y9722377D01*
X8519139Y9722375D01*
X8607379Y9607379D01*
X8722375Y9519139D01*
X8856291Y9463670D01*
X9000000Y9444750D01*
X9143709Y9463670D01*
X9277625Y9519139D01*
X9392621Y9607379D01*
X9480861Y9722375D01*
X9536330Y9856291D01*
X9555250Y10000000D01*
X10444750Y10000000D01*
X10463669Y9856292D01*
X10519138Y9722377D01*
X10519139Y9722375D01*
X10607379Y9607379D01*
X10722375Y9519139D01*
X10856291Y9463670D01*
X11000000Y9444750D01*
X11143709Y9463670D01*
X11277625Y9519139D01*
X11392621Y9607379D01*
X11480861Y9722375D01*
X11536330Y9856291D01*
X11555250Y10000000D01*
X12444750Y10000000D01*
X12463669Y9856292D01*
X12519138Y9722377D01*
X12519139Y9722375D01*
X12607379Y9607379D01*
X12722375Y9519139D01*
X12856291Y9463670D01*
X13000000Y9444750D01*
X13143709Y9463670D01*
X13277625Y9519139D01*
X13392621Y9607379D01*
X13480861Y9722375D01*
X13536330Y9856291D01*
X13555250Y10000000D01*
X14444750Y10000000D01*
X14463669Y9856292D01*
X14519138Y9722377D01*
X14519139Y9722375D01*
X14607379Y9607379D01*
X14722375Y9519139D01*
X14856291Y9463670D01*
X15000000Y9444750D01*
X15143709Y9463670D01*
X15277625Y9519139D01*
X15392621Y9607379D01*
X15480861Y9722375D01*
X15536330Y9856291D01*
X15555250Y10000000D01*
X16444750Y10000000D01*
X16463669Y9856292D01*
X16519138Y9722377D01*
X16519139Y9722375D01*
X16607379Y9607379D01*
X16722375Y9519139D01*
X16856291Y9463670D01*
X17000000Y9444750D01*
X17143709Y9463670D01*
X17277625Y9519139D01*
X17392621Y9607379D01*
X17480861Y9722375D01*
X17536330Y9856291D01*
X17555250Y10000000D01*
X18444750Y10000000D01*
X18463669Y9856292D01*
X18519138Y9722377D01*
X18519139Y9722375D01*
X18607379Y9607379D01*
X18722375Y9519139D01*
X18856291Y9463670D01*
X19000000Y9444750D01*
X19143709Y9463670D01*
X19277625Y9519139D01*
X19392621Y9607379D01*
X19480861Y9722375D01*
X19536330Y9856291D01*
X19555250Y10000000D01*
X20444750Y10000000D01*
X20463669Y9856292D01*
X20519138Y9722377D01*
X20519139Y9722375D01*
X20607379Y9607379D01*
X20722375Y9519139D01*
X20856291Y9463670D01*
X21000000Y9444750D01*
X21143709Y9463670D01*
X21277625Y9519139D01*
X21392621Y9607379D01*
X21480861Y9722375D01*
X21536330Y9856291D01*
X21555250Y10000000D01*
X22444750Y10000000D01*
X22463669Y9856292D01*
X22519138Y9722377D01*
X22519139Y9722375D01*
X22607379Y9607379D01*
X22722375Y9519139D01*
X22856291Y9463670D01*
X23000000Y9444750D01*
X23143709Y9463670D01*
X23277625Y9519139D01*
X23392621Y9607379D01*
X23480861Y9722375D01*
X23536330Y9856291D01*
X23555250Y10000000D01*
X24444750Y10000000D01*
X24463669Y9856292D01*
X24519138Y9722377D01*
X24519139Y9722375D01*
X24607379Y9607379D01*
X24722375Y9519139D01*
X24856291Y9463670D01*
X25000000Y9444750D01*
X25143709Y9463670D01*
X25277625Y9519139D01*
X25392621Y9607379D01*
X25480861Y9722375D01*
X25536330Y9856291D01*
X25555250Y10000000D01*
X26444750Y10000000D01*
X26463669Y9856292D01*
X26519138Y9722377D01*
X26519139Y9722375D01*
X26607379Y9607379D01*
X26722375Y9519139D01*
X26856291Y9463670D01*
X27000000Y9444750D01*
X27143709Y9463670D01*
X27277625Y9519139D01*
X27392621Y9607379D01*
X27480861Y9722375D01*
X27536330Y9856291D01*
X27555250Y10000000D01*
X28444750Y10000000D01*
X28463669Y9856292D01*
X28519138Y9722377D01*
X28519139Y9722375D01*
X28607379Y9607379D01*
X28722375Y9519139D01*
X28856291Y9463670D01*
X29000000Y9444750D01*
X29143709Y9463670D01*
X29277625Y9519139D01*
X29392621Y9607379D01*
X29480861Y9722375D01*
X29536330Y9856291D01*
X29555250Y10000000D01*
X30444750Y10000000D01*
X30463669Y9856292D01*
X30519138Y9722377D01*
X30519139Y9722375D01*
X30607379Y9607379D01*
X30722375Y9519139D01*
X30856291Y9463670D01*
X31000000Y9444750D01*
X31143709Y9463670D01*
X31277625Y9519139D01*
X31392621Y9607379D01*
X31480861Y9722375D01*
X31536330Y9856291D01*
X31555250Y10000000D01*
X31536330Y10143709D01*
X31480861Y10277625D01*
X31392621Y10392621D01*
X31277625Y10480861D01*
X31277623Y10480862D01*
X31143708Y10536331D01*
X31000000Y10555250D01*
X30856291Y10536331D01*
X30722376Y10480862D01*
X30607379Y10392621D01*
X30519138Y10277624D01*
X30463669Y10143709D01*
X30444750Y10000000D01*
X29555250Y10000000D01*
X29536330Y10143709D01*
X29480861Y10277625D01*
X29392621Y10392621D01*
X29277625Y10480861D01*
X29277623Y10480862D01*
X29143708Y10536331D01*
X29000000Y10555250D01*
X28856291Y10536331D01*
X28722376Y10480862D01*
X28607379Y10392621D01*
X28519138Y10277624D01*
X28463669Y10143709D01*
X28444750Y10000000D01*
X27555250Y10000000D01*
X27536330Y10143709D01*
X27480861Y10277625D01*
X27392621Y10392621D01*
X27277625Y10480861D01*
X27277623Y10480862D01*
X27143708Y10536331D01*
X27000000Y10555250D01*
X26856291Y10536331D01*
X26722376Y10480862D01*
X26607379Y10392621D01*
X26519138Y10277624D01*
X26463669Y10143709D01*
X26444750Y10000000D01*
X25555250Y10000000D01*
X25536330Y10143709D01*
X25480861Y10277625D01*
X25392621Y10392621D01*
X25277625Y10480861D01*
X25277623Y10480862D01*
X25143708Y10536331D01*
X25000000Y10555250D01*
X24856291Y10536331D01*
X24722376Y10480862D01*
X24607379Y10392621D01*
X24519138Y10277624D01*
X24463669Y10143709D01*
X24444750Y10000000D01*
X23555250Y10000000D01*
X23536330Y10143709D01*
X23480861Y10277625D01*
X23392621Y10392621D01*
X23277625Y10480861D01*
X23277623Y10480862D01*
X23143708Y10536331D01*
X23000000Y10555250D01*
X22856291Y10536331D01*
X22722376Y10480862D01*
X22607379Y10392621D01*
X22519138Y10277624D01*
X22463669Y10143709D01*
X22444750Y10000000D01*
X21555250Y10000000D01*
X21536330Y10143709D01*
X21480861Y10277625D01*
X21392621Y10392621D01*
X21277625Y10480861D01*
X21277623Y10480862D01*
X21143708Y10536331D01*
X21000000Y10555250D01*
X20856291Y10536331D01*
X20722376Y10480862D01*
X20607379Y10392621D01*
X20519138Y10277624D01*
X20463669Y10143709D01*
X20444750Y10000000D01*
X19555250Y10000000D01*
X19536330Y10143709D01*
X19480861Y10277625D01*
X19392621Y10392621D01*
X19277625Y10480861D01*
X19277623Y10480862D01*
X19143708Y10536331D01*
X19000000Y10555250D01*
X18856291Y10536331D01*
X18722376Y10480862D01*
X18607379Y10392621D01*
X18519138Y10277624D01*
X18463669Y10143709D01*
X18444750Y10000000D01*
X17555250Y10000000D01*
X17536330Y10143709D01*
X17480861Y10277625D01*
X17392621Y10392621D01*
X17277625Y10480861D01*
X17277623Y10480862D01*
X17143708Y10536331D01*
X17000000Y10555250D01*
X16856291Y10536331D01*
X16722376Y10480862D01*
X16607379Y10392621D01*
X16519138Y10277624D01*
X16463669Y10143709D01*
X16444750Y10000000D01*
X15555250Y10000000D01*
X15536330Y10143709D01*
X15480861Y10277625D01*
X15392621Y10392621D01*
X15277625Y10480861D01*
X15277623Y10480862D01*
X15143708Y10536331D01*
X15000000Y10555250D01*
X14856291Y10536331D01*
X14722376Y10480862D01*
X14607379Y10392621D01*
X14519138Y10277624D01*
X14463669Y10143709D01*
X14444750Y10000000D01*
X13555250Y10000000D01*
X13536330Y10143709D01*
X13480861Y10277625D01*
X13392621Y10392621D01*
X13277625Y10480861D01*
X13277623Y10480862D01*
X13143708Y10536331D01*
X13000000Y10555250D01*
X12856291Y10536331D01*
X12722376Y10480862D01*
X12607379Y10392621D01*
X12519138Y10277624D01*
X12463669Y10143709D01*
X12444750Y10000000D01*
X11555250Y10000000D01*
X11536330Y10143709D01*
X11480861Y10277625D01*
X11392621Y10392621D01*
X11277625Y10480861D01*
X11277623Y10480862D01*
X11143708Y10536331D01*
X11000000Y10555250D01*
X10856291Y10536331D01*
X10722376Y10480862D01*
X10607379Y10392621D01*
X10519138Y10277624D01*
X10463669Y10143709D01*
X10444750Y10000000D01*
X9555250Y10000000D01*
X9536330Y10143709D01*
X9480861Y10277625D01*
X9392621Y10392621D01*
X9277625Y10480861D01*
X9277623Y10480862D01*
X9143708Y10536331D01*
X9000000Y10555250D01*
X8856291Y10536331D01*
X8722376Y10480862D01*
X8607379Y10392621D01*
X8519138Y10277624D01*
X8463669Y10143709D01*
X8444750Y10000000D01*
X7555250Y10000000D01*
X7536330Y10143709D01*
X7480861Y10277625D01*
X7392621Y10392621D01*
X7277625Y10480861D01*
X7277623Y10480862D01*
X7143708Y10536331D01*
X7000000Y10555250D01*
X6856291Y10536331D01*
X6722376Y10480862D01*
X6607379Y10392621D01*
X6519138Y10277624D01*
X6463669Y10143709D01*
X6444750Y10000000D01*
X5555250Y10000000D01*
X5536330Y10143709D01*
X5480861Y10277625D01*
X5392621Y10392621D01*
X5277625Y10480861D01*
X5277623Y10480862D01*
X5143708Y10536331D01*
X5000000Y10555250D01*
X4856291Y10536331D01*
X4722376Y10480862D01*
X4607379Y10392621D01*
X4519138Y10277624D01*
X4463669Y10143709D01*
X4444750Y10000000D01*
X3555250Y10000000D01*
X3536330Y10143709D01*
X3480861Y10277625D01*
X3392621Y10392621D01*
X3277625Y10480861D01*
X3277623Y10480862D01*
X3143708Y10536331D01*
X3000000Y10555250D01*
X2856291Y10536331D01*
X2722376Y10480862D01*
X2607379Y10392621D01*
X2519138Y10277624D01*
X2463669Y10143709D01*
X2444750Y10000000D01*
X1555250Y10000000D01*
X1536330Y10143709D01*
X1480861Y10277625D01*
X1392621Y10392621D01*
X1277625Y10480861D01*
X1277623Y10480862D01*
X1143708Y10536331D01*
X1000000Y10555250D01*
X856291Y10536331D01*
X722376Y10480862D01*
X607379Y10392621D01*
X519138Y10277624D01*
X463669Y10143709D01*
X444750Y10000000D01*
X50001Y10000000D01*
X50001Y12000000D01*
X444750Y12000000D01*
X463669Y11856292D01*
X519138Y11722377D01*
X519139Y11722375D01*
X607379Y11607379D01*
X722375Y11519139D01*
X856291Y11463670D01*
X1000000Y11444750D01*
X1143709Y11463670D01*
X1277625Y11519139D01*
X1392621Y11607379D01*
X1480861Y11722375D01*
X1536330Y11856291D01*
X1555250Y12000000D01*
X2444750Y12000000D01*
X2463669Y11856292D01*
X2519138Y11722377D01*
X2519139Y11722375D01*
X2607379Y11607379D01*
X2722375Y11519139D01*
X2856291Y11463670D01*
X3000000Y11444750D01*
X3143709Y11463670D01*
X3277625Y11519139D01*
X3392621Y11607379D01*
X3480861Y11722375D01*
X3536330Y11856291D01*
X3555250Y12000000D01*
X4444750Y12000000D01*
X4463669Y11856292D01*
X4519138Y11722377D01*
X4519139Y11722375D01*
X4607379Y11607379D01*
X4722375Y11519139D01*
X4856291Y11463670D01*
X5000000Y11444750D01*
X5143709Y11463670D01*
X5277625Y11519139D01*
X5392621Y11607379D01*
X5480861Y11722375D01*
X5536330Y11856291D01*
X5555250Y12000000D01*
X6444750Y12000000D01*
X6463669Y11856292D01*
X6519138Y11722377D01*
X6519139Y11722375D01*
X6607379Y11607379D01*
X6722375Y11519139D01*
X6856291Y11463670D01*
X7000000Y11444750D01*
X7143709Y11463670D01*
X7277625Y11519139D01*
X7392621Y11607379D01*
X7480861Y11722375D01*
X7536330Y11856291D01*
X7555250Y12000000D01*
X8444750Y12000000D01*
X8463669Y11856292D01*
X8519138Y11722377D01*
X8519139Y11722375D01*
X8607379Y11607379D01*
X8722375Y11519139D01*
X8856291Y11463670D01*
X9000000Y11444750D01*
X9143709Y11463670D01*
X9277625Y11519139D01*
X9392621Y11607379D01*
X9480861Y11722375D01*
X9536330Y11856291D01*
X9555250Y12000000D01*
X10444750Y12000000D01*
X10463669Y11856292D01*
X10519138Y11722377D01*
X10519139Y11722375D01*
X10607379Y11607379D01*
X10722375Y11519139D01*
X10856291Y11463670D01*
X11000000Y11444750D01*
X11143709Y11463670D01*
X11277625Y11519139D01*
X11392621Y11607379D01*
X11480861Y11722375D01*
X11536330Y11856291D01*
X11555250Y12000000D01*
X12444750Y12000000D01*
X12463669Y11856292D01*
X12519138Y11722377D01*
X12519139Y11722375D01*
X12607379Y11607379D01*
X12722375Y11519139D01*
X12856291Y11463670D01*
X13000000Y11444750D01*
X13143709Y11463670D01*
X13277625Y11519139D01*
X13392621Y11607379D01*
X13480861Y11722375D01*
X13536330Y11856291D01*
X13555250Y12000000D01*
X14444750Y12000000D01*
X14463669Y11856292D01*
X14519138Y11722377D01*
X14519139Y11722375D01*
X14607379Y11607379D01*
X14722375Y11519139D01*
X14856291Y11463670D01*
X15000000Y11444750D01*
X15143709Y11463670D01*
X15277625Y11519139D01*
X15392621Y11607379D01*
X15480861Y11722375D01*
X15536330Y11856291D01*
X15555250Y12000000D01*
X16444750Y12000000D01*
X16463669Y11856292D01*
X16519138Y11722377D01*
X16519139Y11722375D01*
X16607379Y11607379D01*
X16722375Y11519139D01*
X16856291Y11463670D01*
X17000000Y11444750D01*
X17143709Y11463670D01*
X17277625Y11519139D01*
X17392621Y11607379D01*
X17480861Y11722375D01*
X17536330Y11856291D01*
X17555250Y12000000D01*
X18444750Y12000000D01*
X18463669Y11856292D01*
X18519138Y11722377D01*
X18519139Y11722375D01*
X18607379Y11607379D01*
X18722375Y11519139D01*
X18856291Y11463670D01*
X19000000Y11444750D01*
X19143709Y11463670D01*
X19277625Y11519139D01*
X19392621Y11607379D01*
X19480861Y11722375D01*
X19536330Y11856291D01*
X19555250Y12000000D01*
X20444750Y12000000D01*
X20463669Y11856292D01*
X20519138Y11722377D01*
X20519139Y11722375D01*
X20607379Y11607379D01*
X20722375Y11519139D01*
X20856291Y11463670D01*
X21000000Y11444750D01*
X21143709Y11463670D01*
X21277625Y11519139D01*
X21392621Y11607379D01*
X21480861Y11722375D01*
X21536330Y11856291D01*
X21555250Y12000000D01*
X22444750Y12000000D01*
X22463669Y11856292D01*
X22519138Y11722377D01*
X22519139Y11722375D01*
X22607379Y11607379D01*
X22722375Y11519139D01*
X22856291Y11463670D01*
X23000000Y11444750D01*
X23143709Y11463670D01*
X23277625Y11519139D01*
X23392621Y11607379D01*
X23480861Y11722375D01*
X23536330Y11856291D01*
X23555250Y12000000D01*
X24444750Y12000000D01*
X24463669Y11856292D01*
X24519138Y11722377D01*
X24519139Y11722375D01*
X24607379Y11607379D01*
X24722375Y11519139D01*
X24856291Y11463670D01*
X25000000Y11444750D01*
X25143709Y11463670D01*
X25277625Y11519139D01*
X25392621Y11607379D01*
X25480861Y11722375D01*
X25536330Y11856291D01*
X25555250Y12000000D01*
X26444750Y12000000D01*
X26463669Y11856292D01*
X26519138Y11722377D01*
X26519139Y11722375D01*
X26607379Y11607379D01*
X26722375Y11519139D01*
X26856291Y11463670D01*
X27000000Y11444750D01*
X27143709Y11463670D01*
X27277625Y11519139D01*
X27392621Y11607379D01*
X27480861Y11722375D01*
X27536330Y11856291D01*
X27555250Y12000000D01*
X28444750Y12000000D01*
X28463669Y11856292D01*
X28519138Y11722377D01*
X28519139Y11722375D01*
X28607379Y11607379D01*
X28722375Y11519139D01*
X28856291Y11463670D01*
X29000000Y11444750D01*
X29143709Y11463670D01*
X29277625Y11519139D01*
X29392621Y11607379D01*
X29480861Y11722375D01*
X29536330Y11856291D01*
X29555250Y12000000D01*
X30444750Y12000000D01*
X30463669Y11856292D01*
X30519138Y11722377D01*
X30519139Y11722375D01*
X30607379Y11607379D01*
X30722375Y11519139D01*
X30856291Y11463670D01*
X31000000Y11444750D01*
X31143709Y11463670D01*
X31277625Y11519139D01*
X31392621Y11607379D01*
X31480861Y11722375D01*
X31536330Y11856291D01*
X31555250Y12000000D01*
X31536330Y12143709D01*
X31480861Y12277625D01*
X31392621Y12392621D01*
X31277625Y12480861D01*
X31277623Y12480862D01*
X31143708Y12536331D01*
X31000000Y12555250D01*
X30856291Y12536331D01*
X30722376Y12480862D01*
X30607379Y12392621D01*
X30519138Y12277624D01*
X30463669Y12143709D01*
X30444750Y12000000D01*
X29555250Y12000000D01*
X29536330Y12143709D01*
X29480861Y12277625D01*
X29392621Y12392621D01*
X29277625Y12480861D01*
X29277623Y12480862D01*
X29143708Y12536331D01*
X29000000Y12555250D01*
X28856291Y12536331D01*
X28722376Y12480862D01*
X28607379Y12392621D01*
X28519138Y12277624D01*
X28463669Y12143709D01*
X28444750Y12000000D01*
X27555250Y12000000D01*
X27536330Y12143709D01*
X27480861Y12277625D01*
X27392621Y12392621D01*
X27277625Y12480861D01*
X27277623Y12480862D01*
X27143708Y12536331D01*
X27000000Y12555250D01*
X26856291Y12536331D01*
X26722376Y12480862D01*
X26607379Y12392621D01*
X26519138Y12277624D01*
X26463669Y12143709D01*
X26444750Y12000000D01*
X25555250Y12000000D01*
X25536330Y12143709D01*
X25480861Y12277625D01*
X25392621Y12392621D01*
X25277625Y12480861D01*
X25277623Y12480862D01*
X25143708Y12536331D01*
X25000000Y12555250D01*
X24856291Y12536331D01*
X24722376Y12480862D01*
X24607379Y12392621D01*
X24519138Y12277624D01*
X24463669Y12143709D01*
X24444750Y12000000D01*
X23555250Y12000000D01*
X23536330Y12143709D01*
X23480861Y12277625D01*
X23392621Y12392621D01*
X23277625Y12480861D01*
X23277623Y12480862D01*
X23143708Y12536331D01*
X23000000Y12555250D01*
X22856291Y12536331D01*
X22722376Y12480862D01*
X22607379Y12392621D01*
X22519138Y12277624D01*
X22463669Y12143709D01*
X22444750Y12000000D01*
X21555250Y12000000D01*
X21536330Y12143709D01*
X21480861Y12277625D01*
X21392621Y12392621D01*
X21277625Y12480861D01*
X21277623Y12480862D01*
X21143708Y12536331D01*
X21000000Y12555250D01*
X20856291Y12536331D01*
X20722376Y12480862D01*
X20607379Y12392621D01*
X20519138Y12277624D01*
X20463669Y12143709D01*
X20444750Y12000000D01*
X19555250Y12000000D01*
X19536330Y12143709D01*
X19480861Y12277625D01*
X19392621Y12392621D01*
X19277625Y12480861D01*
X19277623Y12480862D01*
X19143708Y12536331D01*
X19000000Y12555250D01*
X18856291Y12536331D01*
X18722376Y12480862D01*
X18607379Y12392621D01*
X18519138Y12277624D01*
X18463669Y12143709D01*
X18444750Y12000000D01*
X17555250Y12000000D01*
X17536330Y12143709D01*
X17480861Y12277625D01*
X17392621Y12392621D01*
X17277625Y12480861D01*
X17277623Y12480862D01*
X17143708Y12536331D01*
X17000000Y12555250D01*
X16856291Y12536331D01*
X16722376Y12480862D01*
X16607379Y12392621D01*
X16519138Y12277624D01*
X16463669Y12143709D01*
X16444750Y12000000D01*
X15555250Y12000000D01*
X15536330Y12143709D01*
X15480861Y12277625D01*
X15392621Y12392621D01*
X15277625Y12480861D01*
X15277623Y12480862D01*
X15143708Y12536331D01*
X15000000Y12555250D01*
X14856291Y12536331D01*
X14722376Y12480862D01*
X14607379Y12392621D01*
X14519138Y12277624D01*
X14463669Y12143709D01*
X14444750Y12000000D01*
X13555250Y12000000D01*
X13536330Y12143709D01*
X13480861Y12277625D01*
X13392621Y12392621D01*
X13277625Y12480861D01*
X13277623Y12480862D01*
X13143708Y12536331D01*
X13000000Y12555250D01*
X12856291Y12536331D01*
X12722376Y12480862D01*
X12607379Y12392621D01*
X12519138Y12277624D01*
X12463669Y12143709D01*
X12444750Y12000000D01*
X11555250Y12000000D01*
X11536330Y12143709D01*
X11480861Y12277625D01*
X11392621Y12392621D01*
X11277625Y12480861D01*
X11277623Y12480862D01*
X11143708Y12536331D01*
X11000000Y12555250D01*
X10856291Y12536331D01*
X10722376Y12480862D01*
X10607379Y12392621D01*
X10519138Y12277624D01*
X10463669Y12143709D01*
X10444750Y12000000D01*
X9555250Y12000000D01*
X9536330Y12143709D01*
X9480861Y12277625D01*
X9392621Y12392621D01*
X9277625Y12480861D01*
X9277623Y12480862D01*
X9143708Y12536331D01*
X9000000Y12555250D01*
X8856291Y12536331D01*
X8722376Y12480862D01*
X8607379Y12392621D01*
X8519138Y12277624D01*
X8463669Y12143709D01*
X8444750Y12000000D01*
X7555250Y12000000D01*
X7536330Y12143709D01*
X7480861Y12277625D01*
X7392621Y12392621D01*
X7277625Y12480861D01*
X7277623Y12480862D01*
X7143708Y12536331D01*
X7000000Y12555250D01*
X6856291Y12536331D01*
X6722376Y12480862D01*
X6607379Y12392621D01*
X6519138Y12277624D01*
X6463669Y12143709D01*
X6444750Y12000000D01*
X5555250Y12000000D01*
X5536330Y12143709D01*
X5480861Y12277625D01*
X5392621Y12392621D01*
X5277625Y12480861D01*
X5277623Y12480862D01*
X5143708Y12536331D01*
X5000000Y12555250D01*
X4856291Y12536331D01*
X4722376Y12480862D01*
X4607379Y12392621D01*
X4519138Y12277624D01*
X4463669Y12143709D01*
X4444750Y12000000D01*
X3555250Y12000000D01*
X3536330Y12143709D01*
X3480861Y12277625D01*
X3392621Y12392621D01*
X3277625Y12480861D01*
X3277623Y12480862D01*
X3143708Y12536331D01*
X3000000Y12555250D01*
X2856291Y12536331D01*
X2722376Y12480862D01*
X2607379Y12392621D01*
X2519138Y12277624D01*
X2463669Y12143709D01*
X2444750Y12000000D01*
X1555250Y12000000D01*
X1536330Y12143709D01*
X1480861Y12277625D01*
X1392621Y12392621D01*
X1277625Y12480861D01*
X1277623Y12480862D01*
X1143708Y12536331D01*
X1000000Y12555250D01*
X856291Y12536331D01*
X722376Y12480862D01*
X607379Y12392621D01*
X519138Y12277624D01*
X463669Y12143709D01*
X444750Y12000000D01*
X50001Y12000000D01*
X50001Y14000000D01*
X444750Y14000000D01*
X463669Y13856292D01*
X519138Y13722377D01*
X519139Y13722375D01*
X607379Y13607379D01*
X722375Y13519139D01*
X856291Y13463670D01*
X1000000Y13444750D01*
X1143709Y13463670D01*
X1277625Y13519139D01*
X1392621Y13607379D01*
X1480861Y13722375D01*
X1536330Y13856291D01*
X1555250Y14000000D01*
X2444750Y14000000D01*
X2463669Y13856292D01*
X2519138Y13722377D01*
X2519139Y13722375D01*
X2607379Y13607379D01*
X2722375Y13519139D01*
X2856291Y13463670D01*
X3000000Y13444750D01*
X3143709Y13463670D01*
X3277625Y13519139D01*
X3392621Y13607379D01*
X3480861Y13722375D01*
X3536330Y13856291D01*
X3555250Y14000000D01*
X4444750Y14000000D01*
X4463669Y13856292D01*
X4519138Y13722377D01*
X4519139Y13722375D01*
X4607379Y13607379D01*
X4722375Y13519139D01*
X4856291Y13463670D01*
X5000000Y13444750D01*
X5143709Y13463670D01*
X5277625Y13519139D01*
X5392621Y13607379D01*
X5480861Y13722375D01*
X5536330Y13856291D01*
X5555250Y14000000D01*
X6444750Y14000000D01*
X6463669Y13856292D01*
X6519138Y13722377D01*
X6519139Y13722375D01*
X6607379Y13607379D01*
X6722375Y13519139D01*
X6856291Y13463670D01*
X7000000Y13444750D01*
X7143709Y13463670D01*
X7277625Y13519139D01*
X7392621Y13607379D01*
X7480861Y13722375D01*
X7536330Y13856291D01*
X7555250Y14000000D01*
X8444750Y14000000D01*
X8463669Y13856292D01*
X8519138Y13722377D01*
X8519139Y13722375D01*
X8607379Y13607379D01*
X8722375Y13519139D01*
X8856291Y13463670D01*
X9000000Y13444750D01*
X9143709Y13463670D01*
X9277625Y13519139D01*
X9392621Y13607379D01*
X9480861Y13722375D01*
X9536330Y13856291D01*
X9555250Y14000000D01*
X10444750Y14000000D01*
X10463669Y13856292D01*
X10519138Y13722377D01*
X10519139Y13722375D01*
X10607379Y13607379D01*
X10722375Y13519139D01*
X10856291Y13463670D01*
X11000000Y13444750D01*
X11143709Y13463670D01*
X11277625Y13519139D01*
X11392621Y13607379D01*
X11480861Y13722375D01*
X11536330Y13856291D01*
X11555250Y14000000D01*
X12444750Y14000000D01*
X12463669Y13856292D01*
X12519138Y13722377D01*
X12519139Y13722375D01*
X12607379Y13607379D01*
X12722375Y13519139D01*
X12856291Y13463670D01*
X13000000Y13444750D01*
X13143709Y13463670D01*
X13277625Y13519139D01*
X13392621Y13607379D01*
X13480861Y13722375D01*
X13536330Y13856291D01*
X13555250Y14000000D01*
X14444750Y14000000D01*
X14463669Y13856292D01*
X14519138Y13722377D01*
X14519139Y13722375D01*
X14607379Y13607379D01*
X14722375Y13519139D01*
X14856291Y13463670D01*
X15000000Y13444750D01*
X15143709Y13463670D01*
X15277625Y13519139D01*
X15392621Y13607379D01*
X15480861Y13722375D01*
X15536330Y13856291D01*
X15555250Y14000000D01*
X16444750Y14000000D01*
X16463669Y13856292D01*
X16519138Y13722377D01*
X16519139Y13722375D01*
X16607379Y13607379D01*
X16722375Y13519139D01*
X16856291Y13463670D01*
X17000000Y13444750D01*
X17143709Y13463670D01*
X17277625Y13519139D01*
X17392621Y13607379D01*
X17480861Y13722375D01*
X17536330Y13856291D01*
X17555250Y14000000D01*
X18444750Y14000000D01*
X18463669Y13856292D01*
X18519138Y13722377D01*
X18519139Y13722375D01*
X18607379Y13607379D01*
X18722375Y13519139D01*
X18856291Y13463670D01*
X19000000Y13444750D01*
X19143709Y13463670D01*
X19277625Y13519139D01*
X19392621Y13607379D01*
X19480861Y13722375D01*
X19536330Y13856291D01*
X19555250Y14000000D01*
X20444750Y14000000D01*
X20463669Y13856292D01*
X20519138Y13722377D01*
X20519139Y13722375D01*
X20607379Y13607379D01*
X20722375Y13519139D01*
X20856291Y13463670D01*
X21000000Y13444750D01*
X21143709Y13463670D01*
X21277625Y13519139D01*
X21392621Y13607379D01*
X21480861Y13722375D01*
X21536330Y13856291D01*
X21555250Y14000000D01*
X22444750Y14000000D01*
X22463669Y13856292D01*
X22519138Y13722377D01*
X22519139Y13722375D01*
X22607379Y13607379D01*
X22722375Y13519139D01*
X22856291Y13463670D01*
X23000000Y13444750D01*
X23143709Y13463670D01*
X23277625Y13519139D01*
X23392621Y13607379D01*
X23480861Y13722375D01*
X23536330Y13856291D01*
X23555250Y14000000D01*
X24444750Y14000000D01*
X24463669Y13856292D01*
X24519138Y13722377D01*
X24519139Y13722375D01*
X24607379Y13607379D01*
X24722375Y13519139D01*
X24856291Y13463670D01*
X25000000Y13444750D01*
X25143709Y13463670D01*
X25277625Y13519139D01*
X25392621Y13607379D01*
X25480861Y13722375D01*
X25536330Y13856291D01*
X25555250Y14000000D01*
X26444750Y14000000D01*
X26463669Y13856292D01*
X26519138Y13722377D01*
X26519139Y13722375D01*
X26607379Y13607379D01*
X26722375Y13519139D01*
X26856291Y13463670D01*
X27000000Y13444750D01*
X27143709Y13463670D01*
X27277625Y13519139D01*
X27392621Y13607379D01*
X27480861Y13722375D01*
X27536330Y13856291D01*
X27555250Y14000000D01*
X28444750Y14000000D01*
X28463669Y13856292D01*
X28519138Y13722377D01*
X28519139Y13722375D01*
X28607379Y13607379D01*
X28722375Y13519139D01*
X28856291Y13463670D01*
X29000000Y13444750D01*
X29143709Y13463670D01*
X29277625Y13519139D01*
X29392621Y13607379D01*
X29480861Y13722375D01*
X29536330Y13856291D01*
X29555250Y14000000D01*
X30444750Y14000000D01*
X30463669Y13856292D01*
X30519138Y13722377D01*
X30519139Y13722375D01*
X30607379Y13607379D01*
X30722375Y13519139D01*
X30856291Y13463670D01*
X31000000Y13444750D01*
X31143709Y13463670D01*
X31277625Y13519139D01*
X31392621Y13607379D01*
X31480861Y13722375D01*
X31536330Y13856291D01*
X31555250Y14000000D01*
X31536330Y14143709D01*
X31480861Y14277625D01*
X31392621Y14392621D01*
X31277625Y14480861D01*
X31277623Y14480862D01*
X31143708Y14536331D01*
X31000000Y14555250D01*
X30856291Y14536331D01*
X30722376Y14480862D01*
X30607379Y14392621D01*
X30519138Y14277624D01*
X30463669Y14143709D01*
X30444750Y14000000D01*
X29555250Y14000000D01*
X29536330Y14143709D01*
X29480861Y14277625D01*
X29392621Y14392621D01*
X29277625Y14480861D01*
X29277623Y14480862D01*
X29143708Y14536331D01*
X29000000Y14555250D01*
X28856291Y14536331D01*
X28722376Y14480862D01*
X28607379Y14392621D01*
X28519138Y14277624D01*
X28463669Y14143709D01*
X28444750Y14000000D01*
X27555250Y14000000D01*
X27536330Y14143709D01*
X27480861Y14277625D01*
X27392621Y14392621D01*
X27277625Y14480861D01*
X27277623Y14480862D01*
X27143708Y14536331D01*
X27000000Y14555250D01*
X26856291Y14536331D01*
X26722376Y14480862D01*
X26607379Y14392621D01*
X26519138Y14277624D01*
X26463669Y14143709D01*
X26444750Y14000000D01*
X25555250Y14000000D01*
X25536330Y14143709D01*
X25480861Y14277625D01*
X25392621Y14392621D01*
X25277625Y14480861D01*
X25277623Y14480862D01*
X25143708Y14536331D01*
X25000000Y14555250D01*
X24856291Y14536331D01*
X24722376Y14480862D01*
X24607379Y14392621D01*
X24519138Y14277624D01*
X24463669Y14143709D01*
X24444750Y14000000D01*
X23555250Y14000000D01*
X23536330Y14143709D01*
X23480861Y14277625D01*
X23392621Y14392621D01*
X23277625Y14480861D01*
X23277623Y14480862D01*
X23143708Y14536331D01*
X23000000Y14555250D01*
X22856291Y14536331D01*
X22722376Y14480862D01*
X22607379Y14392621D01*
X22519138Y14277624D01*
X22463669Y14143709D01*
X22444750Y14000000D01*
X21555250Y14000000D01*
X21536330Y14143709D01*
X21480861Y14277625D01*
X21392621Y14392621D01*
X21277625Y14480861D01*
X21277623Y14480862D01*
X21143708Y14536331D01*
X21000000Y14555250D01*
X20856291Y14536331D01*
X20722376Y14480862D01*
X20607379Y14392621D01*
X20519138Y14277624D01*
X20463669Y14143709D01*
X20444750Y14000000D01*
X19555250Y14000000D01*
X19536330Y14143709D01*
X19480861Y14277625D01*
X19392621Y14392621D01*
X19277625Y14480861D01*
X19277623Y14480862D01*
X19143708Y14536331D01*
X19000000Y14555250D01*
X18856291Y14536331D01*
X18722376Y14480862D01*
X18607379Y14392621D01*
X18519138Y14277624D01*
X18463669Y14143709D01*
X18444750Y14000000D01*
X17555250Y14000000D01*
X17536330Y14143709D01*
X17480861Y14277625D01*
X17392621Y14392621D01*
X17277625Y14480861D01*
X17277623Y14480862D01*
X17143708Y14536331D01*
X17000000Y14555250D01*
X16856291Y14536331D01*
X16722376Y14480862D01*
X16607379Y14392621D01*
X16519138Y14277624D01*
X16463669Y14143709D01*
X16444750Y14000000D01*
X15555250Y14000000D01*
X15536330Y14143709D01*
X15480861Y14277625D01*
X15392621Y14392621D01*
X15277625Y14480861D01*
X15277623Y14480862D01*
X15143708Y14536331D01*
X15000000Y14555250D01*
X14856291Y14536331D01*
X14722376Y14480862D01*
X14607379Y14392621D01*
X14519138Y14277624D01*
X14463669Y14143709D01*
X14444750Y14000000D01*
X13555250Y14000000D01*
X13536330Y14143709D01*
X13480861Y14277625D01*
X13392621Y14392621D01*
X13277625Y14480861D01*
X13277623Y14480862D01*
X13143708Y14536331D01*
X13000000Y14555250D01*
X12856291Y14536331D01*
X12722376Y14480862D01*
X12607379Y14392621D01*
X12519138Y14277624D01*
X12463669Y14143709D01*
X12444750Y14000000D01*
X11555250Y14000000D01*
X11536330Y14143709D01*
X11480861Y14277625D01*
X11392621Y14392621D01*
X11277625Y14480861D01*
X11277623Y14480862D01*
X11143708Y14536331D01*
X11000000Y14555250D01*
X10856291Y14536331D01*
X10722376Y14480862D01*
X10607379Y14392621D01*
X10519138Y14277624D01*
X10463669Y14143709D01*
X10444750Y14000000D01*
X9555250Y14000000D01*
X9536330Y14143709D01*
X9480861Y14277625D01*
X9392621Y14392621D01*
X9277625Y14480861D01*
X9277623Y14480862D01*
X9143708Y14536331D01*
X9000000Y14555250D01*
X8856291Y14536331D01*
X8722376Y14480862D01*
X8607379Y14392621D01*
X8519138Y14277624D01*
X8463669Y14143709D01*
X8444750Y14000000D01*
X7555250Y14000000D01*
X7536330Y14143709D01*
X7480861Y14277625D01*
X7392621Y14392621D01*
X7277625Y14480861D01*
X7277623Y14480862D01*
X7143708Y14536331D01*
X7000000Y14555250D01*
X6856291Y14536331D01*
X6722376Y14480862D01*
X6607379Y14392621D01*
X6519138Y14277624D01*
X6463669Y14143709D01*
X6444750Y14000000D01*
X5555250Y14000000D01*
X5536330Y14143709D01*
X5480861Y14277625D01*
X5392621Y14392621D01*
X5277625Y14480861D01*
X5277623Y14480862D01*
X5143708Y14536331D01*
X5000000Y14555250D01*
X4856291Y14536331D01*
X4722376Y14480862D01*
X4607379Y14392621D01*
X4519138Y14277624D01*
X4463669Y14143709D01*
X4444750Y14000000D01*
X3555250Y14000000D01*
X3536330Y14143709D01*
X3480861Y14277625D01*
X3392621Y14392621D01*
X3277625Y14480861D01*
X3277623Y14480862D01*
X3143708Y14536331D01*
X3000000Y14555250D01*
X2856291Y14536331D01*
X2722376Y14480862D01*
X2607379Y14392621D01*
X2519138Y14277624D01*
X2463669Y14143709D01*
X2444750Y14000000D01*
X1555250Y14000000D01*
X1536330Y14143709D01*
X1480861Y14277625D01*
X1392621Y14392621D01*
X1277625Y14480861D01*
X1277623Y14480862D01*
X1143708Y14536331D01*
X1000000Y14555250D01*
X856291Y14536331D01*
X722376Y14480862D01*
X607379Y14392621D01*
X519138Y14277624D01*
X463669Y14143709D01*
X444750Y14000000D01*
X50001Y14000000D01*
X50001Y16000000D01*
X444750Y16000000D01*
X463669Y15856292D01*
X488072Y15797378D01*
X519139Y15722375D01*
X607379Y15607379D01*
X722375Y15519139D01*
X856291Y15463670D01*
X1000000Y15444750D01*
X1143709Y15463670D01*
X1277625Y15519139D01*
X1392621Y15607379D01*
X1480861Y15722375D01*
X1536330Y15856291D01*
X1555250Y16000000D01*
X2444750Y16000000D01*
X2463669Y15856292D01*
X2488072Y15797378D01*
X2519139Y15722375D01*
X2607379Y15607379D01*
X2722375Y15519139D01*
X2856291Y15463670D01*
X3000000Y15444750D01*
X3143709Y15463670D01*
X3277625Y15519139D01*
X3392621Y15607379D01*
X3480861Y15722375D01*
X3536330Y15856291D01*
X3555250Y16000000D01*
X4444750Y16000000D01*
X4463669Y15856292D01*
X4488072Y15797378D01*
X4519139Y15722375D01*
X4607379Y15607379D01*
X4722375Y15519139D01*
X4856291Y15463670D01*
X5000000Y15444750D01*
X5143709Y15463670D01*
X5277625Y15519139D01*
X5392621Y15607379D01*
X5480861Y15722375D01*
X5536330Y15856291D01*
X5555250Y16000000D01*
X6444750Y16000000D01*
X6463669Y15856292D01*
X6488072Y15797378D01*
X6519139Y15722375D01*
X6607379Y15607379D01*
X6722375Y15519139D01*
X6856291Y15463670D01*
X7000000Y15444750D01*
X7143709Y15463670D01*
X7277625Y15519139D01*
X7392621Y15607379D01*
X7480861Y15722375D01*
X7536330Y15856291D01*
X7555250Y16000000D01*
X8444750Y16000000D01*
X8463669Y15856292D01*
X8488072Y15797378D01*
X8519139Y15722375D01*
X8607379Y15607379D01*
X8722375Y15519139D01*
X8856291Y15463670D01*
X9000000Y15444750D01*
X9143709Y15463670D01*
X9277625Y15519139D01*
X9392621Y15607379D01*
X9480861Y15722375D01*
X9536330Y15856291D01*
X9555250Y16000000D01*
X10444750Y16000000D01*
X10463669Y15856292D01*
X10488072Y15797378D01*
X10519139Y15722375D01*
X10607379Y15607379D01*
X10722375Y15519139D01*
X10856291Y15463670D01*
X11000000Y15444750D01*
X11143709Y15463670D01*
X11277625Y15519139D01*
X11392621Y15607379D01*
X11480861Y15722375D01*
X11536330Y15856291D01*
X11555250Y16000000D01*
X12444750Y16000000D01*
X12463669Y15856292D01*
X12488072Y15797378D01*
X12519139Y15722375D01*
X12607379Y15607379D01*
X12722375Y15519139D01*
X12856291Y15463670D01*
X13000000Y15444750D01*
X13143709Y15463670D01*
X13277625Y15519139D01*
X13392621Y15607379D01*
X13480861Y15722375D01*
X13536330Y15856291D01*
X13555250Y16000000D01*
X14444750Y16000000D01*
X14463669Y15856292D01*
X14488072Y15797378D01*
X14519139Y15722375D01*
X14607379Y15607379D01*
X14722375Y15519139D01*
X14856291Y15463670D01*
X15000000Y15444750D01*
X15143709Y15463670D01*
X15277625Y15519139D01*
X15392621Y15607379D01*
X15480861Y15722375D01*
X15536330Y15856291D01*
X15555250Y16000000D01*
X16444750Y16000000D01*
X16463669Y15856292D01*
X16488072Y15797378D01*
X16519139Y15722375D01*
X16607379Y15607379D01*
X16722375Y15519139D01*
X16856291Y15463670D01*
X17000000Y15444750D01*
X17143709Y15463670D01*
X17277625Y15519139D01*
X17392621Y15607379D01*
X17480861Y15722375D01*
X17536330Y15856291D01*
X17555250Y16000000D01*
X17536330Y16143709D01*
X17504731Y16219998D01*
X26184750Y16219998D01*
X26203669Y16076290D01*
X26235269Y16000000D01*
X26259139Y15942373D01*
X26347379Y15827377D01*
X26462375Y15739137D01*
X26596291Y15683668D01*
X26740000Y15664748D01*
X26883709Y15683668D01*
X27017625Y15739137D01*
X27132621Y15827377D01*
X27220861Y15942373D01*
X27276330Y16076289D01*
X27291300Y16189999D01*
X29214751Y16189999D01*
X29233670Y16046291D01*
X29276713Y15942375D01*
X29289140Y15912374D01*
X29377380Y15797378D01*
X29492376Y15709138D01*
X29626292Y15653669D01*
X29770001Y15634749D01*
X29913710Y15653669D01*
X30047626Y15709138D01*
X30162622Y15797378D01*
X30250862Y15912374D01*
X30306331Y16046290D01*
X30325251Y16189999D01*
X30306331Y16333708D01*
X30250862Y16467624D01*
X30162622Y16582620D01*
X30047626Y16670860D01*
X30047624Y16670861D01*
X29913709Y16726330D01*
X29770001Y16745249D01*
X29626292Y16726330D01*
X29492377Y16670861D01*
X29377380Y16582620D01*
X29289139Y16467623D01*
X29233670Y16333708D01*
X29214751Y16189999D01*
X27291300Y16189999D01*
X27295250Y16219998D01*
X27276330Y16363707D01*
X27220861Y16497623D01*
X27132621Y16612619D01*
X27017625Y16700859D01*
X27017623Y16700860D01*
X26883708Y16756329D01*
X26740000Y16775248D01*
X26596291Y16756329D01*
X26462376Y16700860D01*
X26347379Y16612619D01*
X26259138Y16497622D01*
X26203669Y16363707D01*
X26184750Y16219998D01*
X17504731Y16219998D01*
X17480861Y16277625D01*
X17392621Y16392621D01*
X17277625Y16480861D01*
X17237160Y16497622D01*
X17143708Y16536331D01*
X17000000Y16555250D01*
X16856291Y16536331D01*
X16722376Y16480862D01*
X16607379Y16392621D01*
X16519138Y16277624D01*
X16463669Y16143709D01*
X16444750Y16000000D01*
X15555250Y16000000D01*
X15536330Y16143709D01*
X15480861Y16277625D01*
X15392621Y16392621D01*
X15277625Y16480861D01*
X15237160Y16497622D01*
X15143708Y16536331D01*
X15000000Y16555250D01*
X14856291Y16536331D01*
X14722376Y16480862D01*
X14607379Y16392621D01*
X14519138Y16277624D01*
X14463669Y16143709D01*
X14444750Y16000000D01*
X13555250Y16000000D01*
X13536330Y16143709D01*
X13480861Y16277625D01*
X13392621Y16392621D01*
X13277625Y16480861D01*
X13237160Y16497622D01*
X13143708Y16536331D01*
X13000000Y16555250D01*
X12856291Y16536331D01*
X12722376Y16480862D01*
X12607379Y16392621D01*
X12519138Y16277624D01*
X12463669Y16143709D01*
X12444750Y16000000D01*
X11555250Y16000000D01*
X11536330Y16143709D01*
X11480861Y16277625D01*
X11392621Y16392621D01*
X11277625Y16480861D01*
X11237160Y16497622D01*
X11143708Y16536331D01*
X11000000Y16555250D01*
X10856291Y16536331D01*
X10722376Y16480862D01*
X10607379Y16392621D01*
X10519138Y16277624D01*
X10463669Y16143709D01*
X10444750Y16000000D01*
X9555250Y16000000D01*
X9536330Y16143709D01*
X9480861Y16277625D01*
X9392621Y16392621D01*
X9277625Y16480861D01*
X9237160Y16497622D01*
X9143708Y16536331D01*
X9000000Y16555250D01*
X8856291Y16536331D01*
X8722376Y16480862D01*
X8607379Y16392621D01*
X8519138Y16277624D01*
X8463669Y16143709D01*
X8444750Y16000000D01*
X7555250Y16000000D01*
X7536330Y16143709D01*
X7480861Y16277625D01*
X7392621Y16392621D01*
X7277625Y16480861D01*
X7237160Y16497622D01*
X7143708Y16536331D01*
X7000000Y16555250D01*
X6856291Y16536331D01*
X6722376Y16480862D01*
X6607379Y16392621D01*
X6519138Y16277624D01*
X6463669Y16143709D01*
X6444750Y16000000D01*
X5555250Y16000000D01*
X5536330Y16143709D01*
X5480861Y16277625D01*
X5392621Y16392621D01*
X5277625Y16480861D01*
X5237160Y16497622D01*
X5143708Y16536331D01*
X5000000Y16555250D01*
X4856291Y16536331D01*
X4722376Y16480862D01*
X4607379Y16392621D01*
X4519138Y16277624D01*
X4463669Y16143709D01*
X4444750Y16000000D01*
X3555250Y16000000D01*
X3536330Y16143709D01*
X3480861Y16277625D01*
X3392621Y16392621D01*
X3277625Y16480861D01*
X3237160Y16497622D01*
X3143708Y16536331D01*
X3000000Y16555250D01*
X2856291Y16536331D01*
X2722376Y16480862D01*
X2607379Y16392621D01*
X2519138Y16277624D01*
X2463669Y16143709D01*
X2444750Y16000000D01*
X1555250Y16000000D01*
X1536330Y16143709D01*
X1480861Y16277625D01*
X1392621Y16392621D01*
X1277625Y16480861D01*
X1237160Y16497622D01*
X1143708Y16536331D01*
X1000000Y16555250D01*
X856291Y16536331D01*
X722376Y16480862D01*
X607379Y16392621D01*
X519138Y16277624D01*
X463669Y16143709D01*
X444750Y16000000D01*
X50001Y16000000D01*
X50001Y16970000D01*
X30794750Y16970000D01*
X30813669Y16826292D01*
X30855075Y16726329D01*
X30869139Y16692375D01*
X30957379Y16577379D01*
X31072375Y16489139D01*
X31206291Y16433670D01*
X31350000Y16414750D01*
X31493709Y16433670D01*
X31627625Y16489139D01*
X31742621Y16577379D01*
X31830861Y16692375D01*
X31886330Y16826291D01*
X31905250Y16970000D01*
X31886330Y17113709D01*
X31830861Y17247625D01*
X31742621Y17362621D01*
X31627625Y17450861D01*
X31627623Y17450862D01*
X31493708Y17506331D01*
X31350000Y17525250D01*
X31206291Y17506331D01*
X31072376Y17450862D01*
X30957379Y17362621D01*
X30869138Y17247624D01*
X30813669Y17113709D01*
X30794750Y16970000D01*
X50001Y16970000D01*
X50001Y18000000D01*
X444750Y18000000D01*
X463669Y17856292D01*
X519138Y17722377D01*
X519139Y17722375D01*
X607379Y17607379D01*
X722375Y17519139D01*
X856291Y17463670D01*
X1000000Y17444750D01*
X1143709Y17463670D01*
X1277625Y17519139D01*
X1392621Y17607379D01*
X1480861Y17722375D01*
X1536330Y17856291D01*
X1555250Y18000000D01*
X2444750Y18000000D01*
X2463669Y17856292D01*
X2519138Y17722377D01*
X2519139Y17722375D01*
X2607379Y17607379D01*
X2722375Y17519139D01*
X2856291Y17463670D01*
X3000000Y17444750D01*
X3143709Y17463670D01*
X3277625Y17519139D01*
X3392621Y17607379D01*
X3480861Y17722375D01*
X3536330Y17856291D01*
X3555250Y18000000D01*
X4444750Y18000000D01*
X4463669Y17856292D01*
X4519138Y17722377D01*
X4519139Y17722375D01*
X4607379Y17607379D01*
X4722375Y17519139D01*
X4856291Y17463670D01*
X5000000Y17444750D01*
X5143709Y17463670D01*
X5277625Y17519139D01*
X5392621Y17607379D01*
X5480861Y17722375D01*
X5536330Y17856291D01*
X5555250Y18000000D01*
X6444750Y18000000D01*
X6463669Y17856292D01*
X6519138Y17722377D01*
X6519139Y17722375D01*
X6607379Y17607379D01*
X6722375Y17519139D01*
X6856291Y17463670D01*
X7000000Y17444750D01*
X7143709Y17463670D01*
X7277625Y17519139D01*
X7392621Y17607379D01*
X7480861Y17722375D01*
X7536330Y17856291D01*
X7555250Y18000000D01*
X8444750Y18000000D01*
X8463669Y17856292D01*
X8519138Y17722377D01*
X8519139Y17722375D01*
X8607379Y17607379D01*
X8722375Y17519139D01*
X8856291Y17463670D01*
X9000000Y17444750D01*
X9143709Y17463670D01*
X9277625Y17519139D01*
X9392621Y17607379D01*
X9480861Y17722375D01*
X9536330Y17856291D01*
X9555250Y18000000D01*
X10444750Y18000000D01*
X10463669Y17856292D01*
X10519138Y17722377D01*
X10519139Y17722375D01*
X10607379Y17607379D01*
X10722375Y17519139D01*
X10856291Y17463670D01*
X11000000Y17444750D01*
X11143709Y17463670D01*
X11277625Y17519139D01*
X11392621Y17607379D01*
X11480861Y17722375D01*
X11536330Y17856291D01*
X11555250Y18000000D01*
X12444750Y18000000D01*
X12463669Y17856292D01*
X12519138Y17722377D01*
X12519139Y17722375D01*
X12607379Y17607379D01*
X12722375Y17519139D01*
X12856291Y17463670D01*
X13000000Y17444750D01*
X13143709Y17463670D01*
X13277625Y17519139D01*
X13392621Y17607379D01*
X13480861Y17722375D01*
X13536330Y17856291D01*
X13555250Y18000000D01*
X14444750Y18000000D01*
X14463669Y17856292D01*
X14519138Y17722377D01*
X14519139Y17722375D01*
X14607379Y17607379D01*
X14722375Y17519139D01*
X14856291Y17463670D01*
X15000000Y17444750D01*
X15143709Y17463670D01*
X15277625Y17519139D01*
X15392621Y17607379D01*
X15480861Y17722375D01*
X15536330Y17856291D01*
X15555250Y18000000D01*
X16444750Y18000000D01*
X16463669Y17856292D01*
X16519138Y17722377D01*
X16519139Y17722375D01*
X16607379Y17607379D01*
X16722375Y17519139D01*
X16856291Y17463670D01*
X17000000Y17444750D01*
X17143709Y17463670D01*
X17277625Y17519139D01*
X17392621Y17607379D01*
X17480861Y17722375D01*
X17536330Y17856291D01*
X17555250Y18000000D01*
X17536330Y18143709D01*
X17480861Y18277625D01*
X17392621Y18392621D01*
X17277625Y18480861D01*
X17277623Y18480862D01*
X17143708Y18536331D01*
X17000000Y18555250D01*
X16856291Y18536331D01*
X16722376Y18480862D01*
X16607379Y18392621D01*
X16519138Y18277624D01*
X16463669Y18143709D01*
X16444750Y18000000D01*
X15555250Y18000000D01*
X15536330Y18143709D01*
X15480861Y18277625D01*
X15392621Y18392621D01*
X15277625Y18480861D01*
X15277623Y18480862D01*
X15143708Y18536331D01*
X15000000Y18555250D01*
X14856291Y18536331D01*
X14722376Y18480862D01*
X14607379Y18392621D01*
X14519138Y18277624D01*
X14463669Y18143709D01*
X14444750Y18000000D01*
X13555250Y18000000D01*
X13536330Y18143709D01*
X13480861Y18277625D01*
X13392621Y18392621D01*
X13277625Y18480861D01*
X13277623Y18480862D01*
X13143708Y18536331D01*
X13000000Y18555250D01*
X12856291Y18536331D01*
X12722376Y18480862D01*
X12607379Y18392621D01*
X12519138Y18277624D01*
X12463669Y18143709D01*
X12444750Y18000000D01*
X11555250Y18000000D01*
X11536330Y18143709D01*
X11480861Y18277625D01*
X11392621Y18392621D01*
X11277625Y18480861D01*
X11277623Y18480862D01*
X11143708Y18536331D01*
X11000000Y18555250D01*
X10856291Y18536331D01*
X10722376Y18480862D01*
X10607379Y18392621D01*
X10519138Y18277624D01*
X10463669Y18143709D01*
X10444750Y18000000D01*
X9555250Y18000000D01*
X9536330Y18143709D01*
X9480861Y18277625D01*
X9392621Y18392621D01*
X9277625Y18480861D01*
X9277623Y18480862D01*
X9143708Y18536331D01*
X9000000Y18555250D01*
X8856291Y18536331D01*
X8722376Y18480862D01*
X8607379Y18392621D01*
X8519138Y18277624D01*
X8463669Y18143709D01*
X8444750Y18000000D01*
X7555250Y18000000D01*
X7536330Y18143709D01*
X7480861Y18277625D01*
X7392621Y18392621D01*
X7277625Y18480861D01*
X7277623Y18480862D01*
X7143708Y18536331D01*
X7000000Y18555250D01*
X6856291Y18536331D01*
X6722376Y18480862D01*
X6607379Y18392621D01*
X6519138Y18277624D01*
X6463669Y18143709D01*
X6444750Y18000000D01*
X5555250Y18000000D01*
X5536330Y18143709D01*
X5480861Y18277625D01*
X5392621Y18392621D01*
X5277625Y18480861D01*
X5277623Y18480862D01*
X5143708Y18536331D01*
X5000000Y18555250D01*
X4856291Y18536331D01*
X4722376Y18480862D01*
X4607379Y18392621D01*
X4519138Y18277624D01*
X4463669Y18143709D01*
X4444750Y18000000D01*
X3555250Y18000000D01*
X3536330Y18143709D01*
X3480861Y18277625D01*
X3392621Y18392621D01*
X3277625Y18480861D01*
X3277623Y18480862D01*
X3143708Y18536331D01*
X3000000Y18555250D01*
X2856291Y18536331D01*
X2722376Y18480862D01*
X2607379Y18392621D01*
X2519138Y18277624D01*
X2463669Y18143709D01*
X2444750Y18000000D01*
X1555250Y18000000D01*
X1536330Y18143709D01*
X1480861Y18277625D01*
X1392621Y18392621D01*
X1277625Y18480861D01*
X1277623Y18480862D01*
X1143708Y18536331D01*
X1000000Y18555250D01*
X856291Y18536331D01*
X722376Y18480862D01*
X607379Y18392621D01*
X519138Y18277624D01*
X463669Y18143709D01*
X444750Y18000000D01*
X50001Y18000000D01*
X50001Y18819998D01*
X30794751Y18819998D01*
X30813670Y18676290D01*
X30863806Y18555250D01*
X30869140Y18542373D01*
X30957380Y18427377D01*
X31072376Y18339137D01*
X31206292Y18283668D01*
X31350001Y18264748D01*
X31493710Y18283668D01*
X31627626Y18339137D01*
X31742622Y18427377D01*
X31830862Y18542373D01*
X31886331Y18676289D01*
X31905251Y18819998D01*
X31886331Y18963707D01*
X31830862Y19097623D01*
X31742622Y19212619D01*
X31627626Y19300859D01*
X31627624Y19300860D01*
X31493709Y19356329D01*
X31350001Y19375248D01*
X31206292Y19356329D01*
X31072377Y19300860D01*
X30957380Y19212619D01*
X30869139Y19097622D01*
X30813670Y18963707D01*
X30794751Y18819998D01*
X50001Y18819998D01*
X50001Y20000000D01*
X444750Y20000000D01*
X463669Y19856292D01*
X514350Y19733936D01*
X519139Y19722375D01*
X607379Y19607379D01*
X722375Y19519139D01*
X856291Y19463670D01*
X1000000Y19444750D01*
X1143709Y19463670D01*
X1277625Y19519139D01*
X1392621Y19607379D01*
X1480861Y19722375D01*
X1536330Y19856291D01*
X1555250Y20000000D01*
X2444750Y20000000D01*
X2463669Y19856292D01*
X2514350Y19733936D01*
X2519139Y19722375D01*
X2607379Y19607379D01*
X2722375Y19519139D01*
X2856291Y19463670D01*
X3000000Y19444750D01*
X3143709Y19463670D01*
X3277625Y19519139D01*
X3392621Y19607379D01*
X3480861Y19722375D01*
X3536330Y19856291D01*
X3555250Y20000000D01*
X4444750Y20000000D01*
X4463669Y19856292D01*
X4514350Y19733936D01*
X4519139Y19722375D01*
X4607379Y19607379D01*
X4722375Y19519139D01*
X4856291Y19463670D01*
X5000000Y19444750D01*
X5143709Y19463670D01*
X5277625Y19519139D01*
X5392621Y19607379D01*
X5480861Y19722375D01*
X5536330Y19856291D01*
X5555250Y20000000D01*
X6444750Y20000000D01*
X6463669Y19856292D01*
X6514350Y19733936D01*
X6519139Y19722375D01*
X6607379Y19607379D01*
X6722375Y19519139D01*
X6856291Y19463670D01*
X7000000Y19444750D01*
X7143709Y19463670D01*
X7277625Y19519139D01*
X7392621Y19607379D01*
X7480861Y19722375D01*
X7536330Y19856291D01*
X7555250Y20000000D01*
X8444750Y20000000D01*
X8463669Y19856292D01*
X8514350Y19733936D01*
X8519139Y19722375D01*
X8607379Y19607379D01*
X8722375Y19519139D01*
X8856291Y19463670D01*
X9000000Y19444750D01*
X9143709Y19463670D01*
X9277625Y19519139D01*
X9392621Y19607379D01*
X9480861Y19722375D01*
X9536330Y19856291D01*
X9555250Y20000000D01*
X10444750Y20000000D01*
X10463669Y19856292D01*
X10514350Y19733936D01*
X10519139Y19722375D01*
X10607379Y19607379D01*
X10722375Y19519139D01*
X10856291Y19463670D01*
X11000000Y19444750D01*
X11143709Y19463670D01*
X11277625Y19519139D01*
X11392621Y19607379D01*
X11480861Y19722375D01*
X11536330Y19856291D01*
X11555250Y20000000D01*
X12444750Y20000000D01*
X12463669Y19856292D01*
X12514350Y19733936D01*
X12519139Y19722375D01*
X12607379Y19607379D01*
X12722375Y19519139D01*
X12856291Y19463670D01*
X13000000Y19444750D01*
X13143709Y19463670D01*
X13277625Y19519139D01*
X13392621Y19607379D01*
X13480861Y19722375D01*
X13536330Y19856291D01*
X13555250Y20000000D01*
X14444750Y20000000D01*
X14463669Y19856292D01*
X14514350Y19733936D01*
X14519139Y19722375D01*
X14607379Y19607379D01*
X14722375Y19519139D01*
X14856291Y19463670D01*
X15000000Y19444750D01*
X15143709Y19463670D01*
X15277625Y19519139D01*
X15392621Y19607379D01*
X15480861Y19722375D01*
X15536330Y19856291D01*
X15555250Y20000000D01*
X16444750Y20000000D01*
X16463669Y19856292D01*
X16514350Y19733936D01*
X16519139Y19722375D01*
X16607379Y19607379D01*
X16722375Y19519139D01*
X16856291Y19463670D01*
X17000000Y19444750D01*
X17143709Y19463670D01*
X17277625Y19519139D01*
X17392621Y19607379D01*
X17480861Y19722375D01*
X17536330Y19856291D01*
X17555250Y20000000D01*
X22394318Y20000000D01*
X22414955Y19843240D01*
X22414955Y19843239D01*
X22475464Y19697159D01*
X22571715Y19571721D01*
X22571720Y19571716D01*
X22579176Y19565995D01*
X22697159Y19475464D01*
X22843238Y19414956D01*
X23000000Y19394318D01*
X23156762Y19414956D01*
X23302841Y19475464D01*
X23428282Y19571718D01*
X23524536Y19697159D01*
X23585044Y19843238D01*
X23605682Y20000000D01*
X24394318Y20000000D01*
X24414955Y19843240D01*
X24414955Y19843239D01*
X24475464Y19697159D01*
X24571715Y19571721D01*
X24571720Y19571716D01*
X24579176Y19565995D01*
X24697159Y19475464D01*
X24843238Y19414956D01*
X25000000Y19394318D01*
X25156762Y19414956D01*
X25302841Y19475464D01*
X25428282Y19571718D01*
X25524536Y19697159D01*
X25585044Y19843238D01*
X25605682Y20000000D01*
X26394318Y20000000D01*
X26414955Y19843240D01*
X26414955Y19843239D01*
X26475464Y19697159D01*
X26571715Y19571721D01*
X26571720Y19571716D01*
X26579176Y19565995D01*
X26697159Y19475464D01*
X26843238Y19414956D01*
X27000000Y19394318D01*
X27156762Y19414956D01*
X27302841Y19475464D01*
X27428282Y19571718D01*
X27524536Y19697159D01*
X27585044Y19843238D01*
X27605682Y20000000D01*
X28394318Y20000000D01*
X28414955Y19843240D01*
X28414955Y19843239D01*
X28475464Y19697159D01*
X28571715Y19571721D01*
X28571720Y19571716D01*
X28579176Y19565995D01*
X28697159Y19475464D01*
X28843238Y19414956D01*
X29000000Y19394318D01*
X29156762Y19414956D01*
X29302841Y19475464D01*
X29428282Y19571718D01*
X29524536Y19697159D01*
X29585044Y19843238D01*
X29605682Y20000000D01*
X29585044Y20156762D01*
X29524536Y20302841D01*
X29428282Y20428282D01*
X29428279Y20428285D01*
X29302841Y20524536D01*
X29156761Y20585045D01*
X29000000Y20605682D01*
X28843239Y20585045D01*
X28843238Y20585045D01*
X28697158Y20524536D01*
X28571720Y20428285D01*
X28571715Y20428280D01*
X28475464Y20302842D01*
X28414955Y20156762D01*
X28414955Y20156761D01*
X28394318Y20000000D01*
X27605682Y20000000D01*
X27585044Y20156762D01*
X27524536Y20302841D01*
X27428282Y20428282D01*
X27428279Y20428285D01*
X27302841Y20524536D01*
X27156761Y20585045D01*
X27000000Y20605682D01*
X26843239Y20585045D01*
X26843238Y20585045D01*
X26697158Y20524536D01*
X26571720Y20428285D01*
X26571715Y20428280D01*
X26475464Y20302842D01*
X26414955Y20156762D01*
X26414955Y20156761D01*
X26394318Y20000000D01*
X25605682Y20000000D01*
X25585044Y20156762D01*
X25524536Y20302841D01*
X25428282Y20428282D01*
X25428279Y20428285D01*
X25302841Y20524536D01*
X25156761Y20585045D01*
X25000000Y20605682D01*
X24843239Y20585045D01*
X24843238Y20585045D01*
X24697158Y20524536D01*
X24571720Y20428285D01*
X24571715Y20428280D01*
X24475464Y20302842D01*
X24414955Y20156762D01*
X24414955Y20156761D01*
X24394318Y20000000D01*
X23605682Y20000000D01*
X23585044Y20156762D01*
X23524536Y20302841D01*
X23428282Y20428282D01*
X23428279Y20428285D01*
X23302841Y20524536D01*
X23156761Y20585045D01*
X23000000Y20605682D01*
X22843239Y20585045D01*
X22843238Y20585045D01*
X22697158Y20524536D01*
X22571720Y20428285D01*
X22571715Y20428280D01*
X22475464Y20302842D01*
X22414955Y20156762D01*
X22414955Y20156761D01*
X22394318Y20000000D01*
X17555250Y20000000D01*
X17536330Y20143709D01*
X17480861Y20277625D01*
X17392621Y20392621D01*
X17277625Y20480861D01*
X17277623Y20480862D01*
X17143708Y20536331D01*
X17000000Y20555250D01*
X16856291Y20536331D01*
X16722376Y20480862D01*
X16607379Y20392621D01*
X16519138Y20277624D01*
X16463669Y20143709D01*
X16444750Y20000000D01*
X15555250Y20000000D01*
X15536330Y20143709D01*
X15480861Y20277625D01*
X15392621Y20392621D01*
X15277625Y20480861D01*
X15277623Y20480862D01*
X15143708Y20536331D01*
X15000000Y20555250D01*
X14856291Y20536331D01*
X14722376Y20480862D01*
X14607379Y20392621D01*
X14519138Y20277624D01*
X14463669Y20143709D01*
X14444750Y20000000D01*
X13555250Y20000000D01*
X13536330Y20143709D01*
X13480861Y20277625D01*
X13392621Y20392621D01*
X13277625Y20480861D01*
X13277623Y20480862D01*
X13143708Y20536331D01*
X13000000Y20555250D01*
X12856291Y20536331D01*
X12722376Y20480862D01*
X12607379Y20392621D01*
X12519138Y20277624D01*
X12463669Y20143709D01*
X12444750Y20000000D01*
X11555250Y20000000D01*
X11536330Y20143709D01*
X11480861Y20277625D01*
X11392621Y20392621D01*
X11277625Y20480861D01*
X11277623Y20480862D01*
X11143708Y20536331D01*
X11000000Y20555250D01*
X10856291Y20536331D01*
X10722376Y20480862D01*
X10607379Y20392621D01*
X10519138Y20277624D01*
X10463669Y20143709D01*
X10444750Y20000000D01*
X9555250Y20000000D01*
X9536330Y20143709D01*
X9480861Y20277625D01*
X9392621Y20392621D01*
X9277625Y20480861D01*
X9277623Y20480862D01*
X9143708Y20536331D01*
X9000000Y20555250D01*
X8856291Y20536331D01*
X8722376Y20480862D01*
X8607379Y20392621D01*
X8519138Y20277624D01*
X8463669Y20143709D01*
X8444750Y20000000D01*
X7555250Y20000000D01*
X7536330Y20143709D01*
X7480861Y20277625D01*
X7392621Y20392621D01*
X7277625Y20480861D01*
X7277623Y20480862D01*
X7143708Y20536331D01*
X7000000Y20555250D01*
X6856291Y20536331D01*
X6722376Y20480862D01*
X6607379Y20392621D01*
X6519138Y20277624D01*
X6463669Y20143709D01*
X6444750Y20000000D01*
X5555250Y20000000D01*
X5536330Y20143709D01*
X5480861Y20277625D01*
X5392621Y20392621D01*
X5277625Y20480861D01*
X5277623Y20480862D01*
X5143708Y20536331D01*
X5000000Y20555250D01*
X4856291Y20536331D01*
X4722376Y20480862D01*
X4607379Y20392621D01*
X4519138Y20277624D01*
X4463669Y20143709D01*
X4444750Y20000000D01*
X3555250Y20000000D01*
X3536330Y20143709D01*
X3480861Y20277625D01*
X3392621Y20392621D01*
X3277625Y20480861D01*
X3277623Y20480862D01*
X3143708Y20536331D01*
X3000000Y20555250D01*
X2856291Y20536331D01*
X2722376Y20480862D01*
X2607379Y20392621D01*
X2519138Y20277624D01*
X2463669Y20143709D01*
X2444750Y20000000D01*
X1555250Y20000000D01*
X1536330Y20143709D01*
X1480861Y20277625D01*
X1392621Y20392621D01*
X1277625Y20480861D01*
X1277623Y20480862D01*
X1143708Y20536331D01*
X1000000Y20555250D01*
X856291Y20536331D01*
X722376Y20480862D01*
X607379Y20392621D01*
X519138Y20277624D01*
X463669Y20143709D01*
X444750Y20000000D01*
X50001Y20000000D01*
X50001Y22000000D01*
X444750Y22000000D01*
X463669Y21856292D01*
X519138Y21722377D01*
X519139Y21722375D01*
X607379Y21607379D01*
X722375Y21519139D01*
X856291Y21463670D01*
X1000000Y21444750D01*
X1143709Y21463670D01*
X1277625Y21519139D01*
X1392621Y21607379D01*
X1480861Y21722375D01*
X1536330Y21856291D01*
X1555250Y22000000D01*
X2444750Y22000000D01*
X2463669Y21856292D01*
X2519138Y21722377D01*
X2519139Y21722375D01*
X2607379Y21607379D01*
X2722375Y21519139D01*
X2856291Y21463670D01*
X3000000Y21444750D01*
X3143709Y21463670D01*
X3277625Y21519139D01*
X3392621Y21607379D01*
X3480861Y21722375D01*
X3536330Y21856291D01*
X3555250Y22000000D01*
X4444750Y22000000D01*
X4463669Y21856292D01*
X4519138Y21722377D01*
X4519139Y21722375D01*
X4607379Y21607379D01*
X4722375Y21519139D01*
X4856291Y21463670D01*
X5000000Y21444750D01*
X5143709Y21463670D01*
X5277625Y21519139D01*
X5392621Y21607379D01*
X5480861Y21722375D01*
X5536330Y21856291D01*
X5555250Y22000000D01*
X6444750Y22000000D01*
X6463669Y21856292D01*
X6519138Y21722377D01*
X6519139Y21722375D01*
X6607379Y21607379D01*
X6722375Y21519139D01*
X6856291Y21463670D01*
X7000000Y21444750D01*
X7143709Y21463670D01*
X7277625Y21519139D01*
X7392621Y21607379D01*
X7480861Y21722375D01*
X7536330Y21856291D01*
X7555250Y22000000D01*
X8444750Y22000000D01*
X8463669Y21856292D01*
X8519138Y21722377D01*
X8519139Y21722375D01*
X8607379Y21607379D01*
X8722375Y21519139D01*
X8856291Y21463670D01*
X9000000Y21444750D01*
X9143709Y21463670D01*
X9277625Y21519139D01*
X9392621Y21607379D01*
X9480861Y21722375D01*
X9536330Y21856291D01*
X9555250Y22000000D01*
X10444750Y22000000D01*
X10463669Y21856292D01*
X10519138Y21722377D01*
X10519139Y21722375D01*
X10607379Y21607379D01*
X10722375Y21519139D01*
X10856291Y21463670D01*
X11000000Y21444750D01*
X11143709Y21463670D01*
X11277625Y21519139D01*
X11392621Y21607379D01*
X11480861Y21722375D01*
X11536330Y21856291D01*
X11555250Y22000000D01*
X12444750Y22000000D01*
X12463669Y21856292D01*
X12519138Y21722377D01*
X12519139Y21722375D01*
X12607379Y21607379D01*
X12722375Y21519139D01*
X12856291Y21463670D01*
X13000000Y21444750D01*
X13143709Y21463670D01*
X13277625Y21519139D01*
X13392621Y21607379D01*
X13480861Y21722375D01*
X13536330Y21856291D01*
X13555250Y22000000D01*
X14444750Y22000000D01*
X14463669Y21856292D01*
X14519138Y21722377D01*
X14519139Y21722375D01*
X14607379Y21607379D01*
X14722375Y21519139D01*
X14856291Y21463670D01*
X15000000Y21444750D01*
X15143709Y21463670D01*
X15277625Y21519139D01*
X15392621Y21607379D01*
X15480861Y21722375D01*
X15536330Y21856291D01*
X15555250Y22000000D01*
X16444750Y22000000D01*
X16463669Y21856292D01*
X16519138Y21722377D01*
X16519139Y21722375D01*
X16607379Y21607379D01*
X16722375Y21519139D01*
X16856291Y21463670D01*
X17000000Y21444750D01*
X17143709Y21463670D01*
X17277625Y21519139D01*
X17392621Y21607379D01*
X17480861Y21722375D01*
X17536330Y21856291D01*
X17555250Y22000000D01*
X18444750Y22000000D01*
X18463669Y21856292D01*
X18519138Y21722377D01*
X18519139Y21722375D01*
X18607379Y21607379D01*
X18722375Y21519139D01*
X18856291Y21463670D01*
X19000000Y21444750D01*
X19143709Y21463670D01*
X19277625Y21519139D01*
X19392621Y21607379D01*
X19480861Y21722375D01*
X19536330Y21856291D01*
X19555250Y22000000D01*
X20444750Y22000000D01*
X20463669Y21856292D01*
X20519138Y21722377D01*
X20519139Y21722375D01*
X20607379Y21607379D01*
X20722375Y21519139D01*
X20856291Y21463670D01*
X21000000Y21444750D01*
X21143709Y21463670D01*
X21277625Y21519139D01*
X21392621Y21607379D01*
X21480861Y21722375D01*
X21536330Y21856291D01*
X21555250Y22000000D01*
X22444750Y22000000D01*
X22463669Y21856292D01*
X22519138Y21722377D01*
X22519139Y21722375D01*
X22607379Y21607379D01*
X22722375Y21519139D01*
X22856291Y21463670D01*
X23000000Y21444750D01*
X23143709Y21463670D01*
X23277625Y21519139D01*
X23392621Y21607379D01*
X23480861Y21722375D01*
X23536330Y21856291D01*
X23555250Y22000000D01*
X24444750Y22000000D01*
X24463669Y21856292D01*
X24519138Y21722377D01*
X24519139Y21722375D01*
X24607379Y21607379D01*
X24722375Y21519139D01*
X24856291Y21463670D01*
X25000000Y21444750D01*
X25143709Y21463670D01*
X25277625Y21519139D01*
X25392621Y21607379D01*
X25480861Y21722375D01*
X25536330Y21856291D01*
X25555250Y22000000D01*
X26444750Y22000000D01*
X26463669Y21856292D01*
X26519138Y21722377D01*
X26519139Y21722375D01*
X26607379Y21607379D01*
X26722375Y21519139D01*
X26856291Y21463670D01*
X27000000Y21444750D01*
X27143709Y21463670D01*
X27277625Y21519139D01*
X27392621Y21607379D01*
X27480861Y21722375D01*
X27536330Y21856291D01*
X27555250Y22000000D01*
X28444750Y22000000D01*
X28463669Y21856292D01*
X28519138Y21722377D01*
X28519139Y21722375D01*
X28607379Y21607379D01*
X28722375Y21519139D01*
X28856291Y21463670D01*
X29000000Y21444750D01*
X29143709Y21463670D01*
X29277625Y21519139D01*
X29392621Y21607379D01*
X29480861Y21722375D01*
X29536330Y21856291D01*
X29555250Y22000000D01*
X30444750Y22000000D01*
X30463669Y21856292D01*
X30519138Y21722377D01*
X30519139Y21722375D01*
X30607379Y21607379D01*
X30722375Y21519139D01*
X30856291Y21463670D01*
X31000000Y21444750D01*
X31143709Y21463670D01*
X31277625Y21519139D01*
X31392621Y21607379D01*
X31480861Y21722375D01*
X31536330Y21856291D01*
X31555250Y22000000D01*
X31536330Y22143709D01*
X31480861Y22277625D01*
X31392621Y22392621D01*
X31277625Y22480861D01*
X31277623Y22480862D01*
X31143708Y22536331D01*
X31000000Y22555250D01*
X30856291Y22536331D01*
X30722376Y22480862D01*
X30607379Y22392621D01*
X30519138Y22277624D01*
X30463669Y22143709D01*
X30444750Y22000000D01*
X29555250Y22000000D01*
X29536330Y22143709D01*
X29480861Y22277625D01*
X29392621Y22392621D01*
X29277625Y22480861D01*
X29277623Y22480862D01*
X29143708Y22536331D01*
X29000000Y22555250D01*
X28856291Y22536331D01*
X28722376Y22480862D01*
X28607379Y22392621D01*
X28519138Y22277624D01*
X28463669Y22143709D01*
X28444750Y22000000D01*
X27555250Y22000000D01*
X27536330Y22143709D01*
X27480861Y22277625D01*
X27392621Y22392621D01*
X27277625Y22480861D01*
X27277623Y22480862D01*
X27143708Y22536331D01*
X27000000Y22555250D01*
X26856291Y22536331D01*
X26722376Y22480862D01*
X26607379Y22392621D01*
X26519138Y22277624D01*
X26463669Y22143709D01*
X26444750Y22000000D01*
X25555250Y22000000D01*
X25536330Y22143709D01*
X25480861Y22277625D01*
X25392621Y22392621D01*
X25277625Y22480861D01*
X25277623Y22480862D01*
X25143708Y22536331D01*
X25000000Y22555250D01*
X24856291Y22536331D01*
X24722376Y22480862D01*
X24607379Y22392621D01*
X24519138Y22277624D01*
X24463669Y22143709D01*
X24444750Y22000000D01*
X23555250Y22000000D01*
X23536330Y22143709D01*
X23480861Y22277625D01*
X23392621Y22392621D01*
X23277625Y22480861D01*
X23277623Y22480862D01*
X23143708Y22536331D01*
X23000000Y22555250D01*
X22856291Y22536331D01*
X22722376Y22480862D01*
X22607379Y22392621D01*
X22519138Y22277624D01*
X22463669Y22143709D01*
X22444750Y22000000D01*
X21555250Y22000000D01*
X21536330Y22143709D01*
X21480861Y22277625D01*
X21392621Y22392621D01*
X21277625Y22480861D01*
X21277623Y22480862D01*
X21143708Y22536331D01*
X21000000Y22555250D01*
X20856291Y22536331D01*
X20722376Y22480862D01*
X20607379Y22392621D01*
X20519138Y22277624D01*
X20463669Y22143709D01*
X20444750Y22000000D01*
X19555250Y22000000D01*
X19536330Y22143709D01*
X19480861Y22277625D01*
X19392621Y22392621D01*
X19277625Y22480861D01*
X19277623Y22480862D01*
X19143708Y22536331D01*
X19000000Y22555250D01*
X18856291Y22536331D01*
X18722376Y22480862D01*
X18607379Y22392621D01*
X18519138Y22277624D01*
X18463669Y22143709D01*
X18444750Y22000000D01*
X17555250Y22000000D01*
X17536330Y22143709D01*
X17480861Y22277625D01*
X17392621Y22392621D01*
X17277625Y22480861D01*
X17277623Y22480862D01*
X17143708Y22536331D01*
X17000000Y22555250D01*
X16856291Y22536331D01*
X16722376Y22480862D01*
X16607379Y22392621D01*
X16519138Y22277624D01*
X16463669Y22143709D01*
X16444750Y22000000D01*
X15555250Y22000000D01*
X15536330Y22143709D01*
X15480861Y22277625D01*
X15392621Y22392621D01*
X15277625Y22480861D01*
X15277623Y22480862D01*
X15143708Y22536331D01*
X15000000Y22555250D01*
X14856291Y22536331D01*
X14722376Y22480862D01*
X14607379Y22392621D01*
X14519138Y22277624D01*
X14463669Y22143709D01*
X14444750Y22000000D01*
X13555250Y22000000D01*
X13536330Y22143709D01*
X13480861Y22277625D01*
X13392621Y22392621D01*
X13277625Y22480861D01*
X13277623Y22480862D01*
X13143708Y22536331D01*
X13000000Y22555250D01*
X12856291Y22536331D01*
X12722376Y22480862D01*
X12607379Y22392621D01*
X12519138Y22277624D01*
X12463669Y22143709D01*
X12444750Y22000000D01*
X11555250Y22000000D01*
X11536330Y22143709D01*
X11480861Y22277625D01*
X11392621Y22392621D01*
X11277625Y22480861D01*
X11277623Y22480862D01*
X11143708Y22536331D01*
X11000000Y22555250D01*
X10856291Y22536331D01*
X10722376Y22480862D01*
X10607379Y22392621D01*
X10519138Y22277624D01*
X10463669Y22143709D01*
X10444750Y22000000D01*
X9555250Y22000000D01*
X9536330Y22143709D01*
X9480861Y22277625D01*
X9392621Y22392621D01*
X9277625Y22480861D01*
X9277623Y22480862D01*
X9143708Y22536331D01*
X9000000Y22555250D01*
X8856291Y22536331D01*
X8722376Y22480862D01*
X8607379Y22392621D01*
X8519138Y22277624D01*
X8463669Y22143709D01*
X8444750Y22000000D01*
X7555250Y22000000D01*
X7536330Y22143709D01*
X7480861Y22277625D01*
X7392621Y22392621D01*
X7277625Y22480861D01*
X7277623Y22480862D01*
X7143708Y22536331D01*
X7000000Y22555250D01*
X6856291Y22536331D01*
X6722376Y22480862D01*
X6607379Y22392621D01*
X6519138Y22277624D01*
X6463669Y22143709D01*
X6444750Y22000000D01*
X5555250Y22000000D01*
X5536330Y22143709D01*
X5480861Y22277625D01*
X5392621Y22392621D01*
X5277625Y22480861D01*
X5277623Y22480862D01*
X5143708Y22536331D01*
X5000000Y22555250D01*
X4856291Y22536331D01*
X4722376Y22480862D01*
X4607379Y22392621D01*
X4519138Y22277624D01*
X4463669Y22143709D01*
X4444750Y22000000D01*
X3555250Y22000000D01*
X3536330Y22143709D01*
X3480861Y22277625D01*
X3392621Y22392621D01*
X3277625Y22480861D01*
X3277623Y22480862D01*
X3143708Y22536331D01*
X3000000Y22555250D01*
X2856291Y22536331D01*
X2722376Y22480862D01*
X2607379Y22392621D01*
X2519138Y22277624D01*
X2463669Y22143709D01*
X2444750Y22000000D01*
X1555250Y22000000D01*
X1536330Y22143709D01*
X1480861Y22277625D01*
X1392621Y22392621D01*
X1277625Y22480861D01*
X1277623Y22480862D01*
X1143708Y22536331D01*
X1000000Y22555250D01*
X856291Y22536331D01*
X722376Y22480862D01*
X607379Y22392621D01*
X519138Y22277624D01*
X463669Y22143709D01*
X444750Y22000000D01*
X50001Y22000000D01*
X50001Y24713712D01*
X1549500Y24713712D01*
X1582753Y24503760D01*
X1582756Y24503747D01*
X1648440Y24301594D01*
X1744948Y24112184D01*
X1821475Y24006854D01*
X1869896Y23940208D01*
X2020208Y23789896D01*
X2113141Y23722377D01*
X2192183Y23664949D01*
X2283474Y23618435D01*
X2381588Y23568443D01*
X2381590Y23568443D01*
X2381593Y23568441D01*
X2583746Y23502757D01*
X2583752Y23502756D01*
X2583757Y23502754D01*
X2688735Y23486127D01*
X2793711Y23469500D01*
X2793713Y23469500D01*
X3006289Y23469500D01*
X3090269Y23482802D01*
X3216243Y23502754D01*
X3216250Y23502757D01*
X3216253Y23502757D01*
X3418406Y23568441D01*
X3418406Y23568442D01*
X3418412Y23568443D01*
X3607816Y23664949D01*
X3779792Y23789896D01*
X3930104Y23940208D01*
X3973545Y24000000D01*
X4444750Y24000000D01*
X4463669Y23856292D01*
X4519138Y23722377D01*
X4519139Y23722375D01*
X4607379Y23607379D01*
X4722375Y23519139D01*
X4856291Y23463670D01*
X5000000Y23444750D01*
X5143709Y23463670D01*
X5277625Y23519139D01*
X5392621Y23607379D01*
X5480861Y23722375D01*
X5536330Y23856291D01*
X5555250Y24000000D01*
X6444750Y24000000D01*
X6463669Y23856292D01*
X6519138Y23722377D01*
X6519139Y23722375D01*
X6607379Y23607379D01*
X6722375Y23519139D01*
X6856291Y23463670D01*
X7000000Y23444750D01*
X7143709Y23463670D01*
X7277625Y23519139D01*
X7392621Y23607379D01*
X7480861Y23722375D01*
X7536330Y23856291D01*
X7555250Y24000000D01*
X8444750Y24000000D01*
X8463669Y23856292D01*
X8519138Y23722377D01*
X8519139Y23722375D01*
X8607379Y23607379D01*
X8722375Y23519139D01*
X8856291Y23463670D01*
X9000000Y23444750D01*
X9143709Y23463670D01*
X9277625Y23519139D01*
X9392621Y23607379D01*
X9480861Y23722375D01*
X9536330Y23856291D01*
X9555250Y24000000D01*
X10444750Y24000000D01*
X10463669Y23856292D01*
X10519138Y23722377D01*
X10519139Y23722375D01*
X10607379Y23607379D01*
X10722375Y23519139D01*
X10856291Y23463670D01*
X11000000Y23444750D01*
X11143709Y23463670D01*
X11277625Y23519139D01*
X11392621Y23607379D01*
X11480861Y23722375D01*
X11536330Y23856291D01*
X11555250Y24000000D01*
X12444750Y24000000D01*
X12463669Y23856292D01*
X12519138Y23722377D01*
X12519139Y23722375D01*
X12607379Y23607379D01*
X12722375Y23519139D01*
X12856291Y23463670D01*
X13000000Y23444750D01*
X13143709Y23463670D01*
X13277625Y23519139D01*
X13392621Y23607379D01*
X13480861Y23722375D01*
X13536330Y23856291D01*
X13555250Y24000000D01*
X14444750Y24000000D01*
X14463669Y23856292D01*
X14519138Y23722377D01*
X14519139Y23722375D01*
X14607379Y23607379D01*
X14722375Y23519139D01*
X14856291Y23463670D01*
X15000000Y23444750D01*
X15143709Y23463670D01*
X15277625Y23519139D01*
X15392621Y23607379D01*
X15480861Y23722375D01*
X15536330Y23856291D01*
X15555250Y24000000D01*
X16444750Y24000000D01*
X16463669Y23856292D01*
X16519138Y23722377D01*
X16519139Y23722375D01*
X16607379Y23607379D01*
X16722375Y23519139D01*
X16856291Y23463670D01*
X17000000Y23444750D01*
X17143709Y23463670D01*
X17277625Y23519139D01*
X17392621Y23607379D01*
X17480861Y23722375D01*
X17536330Y23856291D01*
X17555250Y24000000D01*
X18444750Y24000000D01*
X18463669Y23856292D01*
X18519138Y23722377D01*
X18519139Y23722375D01*
X18607379Y23607379D01*
X18722375Y23519139D01*
X18856291Y23463670D01*
X19000000Y23444750D01*
X19143709Y23463670D01*
X19277625Y23519139D01*
X19392621Y23607379D01*
X19480861Y23722375D01*
X19536330Y23856291D01*
X19555250Y24000000D01*
X20444750Y24000000D01*
X20463669Y23856292D01*
X20519138Y23722377D01*
X20519139Y23722375D01*
X20607379Y23607379D01*
X20722375Y23519139D01*
X20856291Y23463670D01*
X21000000Y23444750D01*
X21143709Y23463670D01*
X21277625Y23519139D01*
X21392621Y23607379D01*
X21480861Y23722375D01*
X21536330Y23856291D01*
X21555250Y24000000D01*
X22444750Y24000000D01*
X22463669Y23856292D01*
X22519138Y23722377D01*
X22519139Y23722375D01*
X22607379Y23607379D01*
X22722375Y23519139D01*
X22856291Y23463670D01*
X23000000Y23444750D01*
X23143709Y23463670D01*
X23277625Y23519139D01*
X23392621Y23607379D01*
X23480861Y23722375D01*
X23536330Y23856291D01*
X23555250Y24000000D01*
X24444750Y24000000D01*
X24463669Y23856292D01*
X24519138Y23722377D01*
X24519139Y23722375D01*
X24607379Y23607379D01*
X24722375Y23519139D01*
X24856291Y23463670D01*
X25000000Y23444750D01*
X25143709Y23463670D01*
X25277625Y23519139D01*
X25392621Y23607379D01*
X25480861Y23722375D01*
X25536330Y23856291D01*
X25555250Y24000000D01*
X26444750Y24000000D01*
X26463669Y23856292D01*
X26519138Y23722377D01*
X26519139Y23722375D01*
X26607379Y23607379D01*
X26722375Y23519139D01*
X26856291Y23463670D01*
X27000000Y23444750D01*
X27143709Y23463670D01*
X27277625Y23519139D01*
X27392621Y23607379D01*
X27480861Y23722375D01*
X27536330Y23856291D01*
X27555250Y24000000D01*
X28444750Y24000000D01*
X28463669Y23856292D01*
X28519138Y23722377D01*
X28519139Y23722375D01*
X28607379Y23607379D01*
X28722375Y23519139D01*
X28856291Y23463670D01*
X29000000Y23444750D01*
X29143709Y23463670D01*
X29277625Y23519139D01*
X29392621Y23607379D01*
X29480861Y23722375D01*
X29536330Y23856291D01*
X29555250Y24000000D01*
X29536330Y24143709D01*
X29480861Y24277625D01*
X29392621Y24392621D01*
X29277625Y24480861D01*
X29277623Y24480862D01*
X29143708Y24536331D01*
X29000000Y24555250D01*
X28856291Y24536331D01*
X28722376Y24480862D01*
X28607379Y24392621D01*
X28519138Y24277624D01*
X28463669Y24143709D01*
X28444750Y24000000D01*
X27555250Y24000000D01*
X27536330Y24143709D01*
X27480861Y24277625D01*
X27392621Y24392621D01*
X27277625Y24480861D01*
X27277623Y24480862D01*
X27143708Y24536331D01*
X27000000Y24555250D01*
X26856291Y24536331D01*
X26722376Y24480862D01*
X26607379Y24392621D01*
X26519138Y24277624D01*
X26463669Y24143709D01*
X26444750Y24000000D01*
X25555250Y24000000D01*
X25536330Y24143709D01*
X25480861Y24277625D01*
X25392621Y24392621D01*
X25277625Y24480861D01*
X25277623Y24480862D01*
X25143708Y24536331D01*
X25000000Y24555250D01*
X24856291Y24536331D01*
X24722376Y24480862D01*
X24607379Y24392621D01*
X24519138Y24277624D01*
X24463669Y24143709D01*
X24444750Y24000000D01*
X23555250Y24000000D01*
X23536330Y24143709D01*
X23480861Y24277625D01*
X23392621Y24392621D01*
X23277625Y24480861D01*
X23277623Y24480862D01*
X23143708Y24536331D01*
X23000000Y24555250D01*
X22856291Y24536331D01*
X22722376Y24480862D01*
X22607379Y24392621D01*
X22519138Y24277624D01*
X22463669Y24143709D01*
X22444750Y24000000D01*
X21555250Y24000000D01*
X21536330Y24143709D01*
X21480861Y24277625D01*
X21392621Y24392621D01*
X21277625Y24480861D01*
X21277623Y24480862D01*
X21143708Y24536331D01*
X21000000Y24555250D01*
X20856291Y24536331D01*
X20722376Y24480862D01*
X20607379Y24392621D01*
X20519138Y24277624D01*
X20463669Y24143709D01*
X20444750Y24000000D01*
X19555250Y24000000D01*
X19536330Y24143709D01*
X19480861Y24277625D01*
X19392621Y24392621D01*
X19277625Y24480861D01*
X19277623Y24480862D01*
X19143708Y24536331D01*
X19000000Y24555250D01*
X18856291Y24536331D01*
X18722376Y24480862D01*
X18607379Y24392621D01*
X18519138Y24277624D01*
X18463669Y24143709D01*
X18444750Y24000000D01*
X17555250Y24000000D01*
X17536330Y24143709D01*
X17480861Y24277625D01*
X17392621Y24392621D01*
X17277625Y24480861D01*
X17277623Y24480862D01*
X17143708Y24536331D01*
X17000000Y24555250D01*
X16856291Y24536331D01*
X16722376Y24480862D01*
X16607379Y24392621D01*
X16519138Y24277624D01*
X16463669Y24143709D01*
X16444750Y24000000D01*
X15555250Y24000000D01*
X15536330Y24143709D01*
X15480861Y24277625D01*
X15392621Y24392621D01*
X15277625Y24480861D01*
X15277623Y24480862D01*
X15143708Y24536331D01*
X15000000Y24555250D01*
X14856291Y24536331D01*
X14722376Y24480862D01*
X14607379Y24392621D01*
X14519138Y24277624D01*
X14463669Y24143709D01*
X14444750Y24000000D01*
X13555250Y24000000D01*
X13536330Y24143709D01*
X13480861Y24277625D01*
X13392621Y24392621D01*
X13277625Y24480861D01*
X13277623Y24480862D01*
X13143708Y24536331D01*
X13000000Y24555250D01*
X12856291Y24536331D01*
X12722376Y24480862D01*
X12607379Y24392621D01*
X12519138Y24277624D01*
X12463669Y24143709D01*
X12444750Y24000000D01*
X11555250Y24000000D01*
X11536330Y24143709D01*
X11480861Y24277625D01*
X11392621Y24392621D01*
X11277625Y24480861D01*
X11277623Y24480862D01*
X11143708Y24536331D01*
X11000000Y24555250D01*
X10856291Y24536331D01*
X10722376Y24480862D01*
X10607379Y24392621D01*
X10519138Y24277624D01*
X10463669Y24143709D01*
X10444750Y24000000D01*
X9555250Y24000000D01*
X9536330Y24143709D01*
X9480861Y24277625D01*
X9392621Y24392621D01*
X9277625Y24480861D01*
X9277623Y24480862D01*
X9143708Y24536331D01*
X9000000Y24555250D01*
X8856291Y24536331D01*
X8722376Y24480862D01*
X8607379Y24392621D01*
X8519138Y24277624D01*
X8463669Y24143709D01*
X8444750Y24000000D01*
X7555250Y24000000D01*
X7536330Y24143709D01*
X7480861Y24277625D01*
X7392621Y24392621D01*
X7277625Y24480861D01*
X7277623Y24480862D01*
X7143708Y24536331D01*
X7000000Y24555250D01*
X6856291Y24536331D01*
X6722376Y24480862D01*
X6607379Y24392621D01*
X6519138Y24277624D01*
X6463669Y24143709D01*
X6444750Y24000000D01*
X5555250Y24000000D01*
X5536330Y24143709D01*
X5480861Y24277625D01*
X5392621Y24392621D01*
X5277625Y24480861D01*
X5277623Y24480862D01*
X5143708Y24536331D01*
X5000000Y24555250D01*
X4856291Y24536331D01*
X4722376Y24480862D01*
X4607379Y24392621D01*
X4519138Y24277624D01*
X4463669Y24143709D01*
X4444750Y24000000D01*
X3973545Y24000000D01*
X4055051Y24112184D01*
X4151557Y24301588D01*
X4209807Y24480862D01*
X4217243Y24503747D01*
X4217243Y24503750D01*
X4217246Y24503757D01*
X4250500Y24713711D01*
X29549501Y24713711D01*
X29582754Y24503759D01*
X29582757Y24503746D01*
X29648441Y24301593D01*
X29744949Y24112183D01*
X29821476Y24006853D01*
X29869897Y23940207D01*
X30020209Y23789895D01*
X30113140Y23722377D01*
X30192184Y23664948D01*
X30283475Y23618434D01*
X30381589Y23568442D01*
X30381591Y23568442D01*
X30381594Y23568440D01*
X30583747Y23502756D01*
X30583753Y23502755D01*
X30583758Y23502753D01*
X30688736Y23486126D01*
X30793712Y23469499D01*
X30793714Y23469499D01*
X31006290Y23469499D01*
X31090270Y23482801D01*
X31216244Y23502753D01*
X31216251Y23502756D01*
X31216254Y23502756D01*
X31418407Y23568440D01*
X31418407Y23568441D01*
X31418413Y23568442D01*
X31607817Y23664948D01*
X31779793Y23789895D01*
X31930105Y23940207D01*
X32055052Y24112183D01*
X32151558Y24301587D01*
X32217247Y24503756D01*
X32250501Y24713712D01*
X32250501Y24926286D01*
X32217247Y25136242D01*
X32217245Y25136247D01*
X32217244Y25136253D01*
X32151560Y25338406D01*
X32151558Y25338409D01*
X32151558Y25338411D01*
X32097375Y25444751D01*
X32055052Y25527816D01*
X31949666Y25672867D01*
X31930105Y25699791D01*
X31779793Y25850103D01*
X31672962Y25927720D01*
X31607817Y25975051D01*
X31418407Y26071559D01*
X31216254Y26137243D01*
X31216241Y26137246D01*
X31006290Y26170499D01*
X31006288Y26170499D01*
X30793714Y26170499D01*
X30793712Y26170499D01*
X30583760Y26137246D01*
X30583747Y26137243D01*
X30381594Y26071559D01*
X30192184Y25975051D01*
X30020213Y25850106D01*
X30020209Y25850103D01*
X29869897Y25699791D01*
X29869894Y25699788D01*
X29869894Y25699787D01*
X29744949Y25527816D01*
X29648441Y25338406D01*
X29582757Y25136253D01*
X29582754Y25136240D01*
X29549501Y24926288D01*
X29549501Y24713711D01*
X4250500Y24713711D01*
X4250500Y24713713D01*
X4250500Y24926287D01*
X4240674Y24988323D01*
X4217246Y25136241D01*
X4217243Y25136254D01*
X4151559Y25338407D01*
X4151557Y25338411D01*
X4151557Y25338412D01*
X4087735Y25463670D01*
X4055051Y25527817D01*
X3999451Y25604344D01*
X3930104Y25699792D01*
X3779792Y25850104D01*
X3709077Y25901481D01*
X3607816Y25975052D01*
X3558852Y26000000D01*
X8444750Y26000000D01*
X8463669Y25856292D01*
X8466235Y25850098D01*
X8519139Y25722375D01*
X8607379Y25607379D01*
X8722375Y25519139D01*
X8856291Y25463670D01*
X9000000Y25444750D01*
X9143709Y25463670D01*
X9277625Y25519139D01*
X9392621Y25607379D01*
X9480861Y25722375D01*
X9536330Y25856291D01*
X9555250Y26000000D01*
X10444750Y26000000D01*
X10463669Y25856292D01*
X10466235Y25850098D01*
X10519139Y25722375D01*
X10607379Y25607379D01*
X10722375Y25519139D01*
X10856291Y25463670D01*
X11000000Y25444750D01*
X11143709Y25463670D01*
X11277625Y25519139D01*
X11392621Y25607379D01*
X11480861Y25722375D01*
X11536330Y25856291D01*
X11555250Y26000000D01*
X12444750Y26000000D01*
X12463669Y25856292D01*
X12466235Y25850098D01*
X12519139Y25722375D01*
X12607379Y25607379D01*
X12722375Y25519139D01*
X12856291Y25463670D01*
X13000000Y25444750D01*
X13143709Y25463670D01*
X13277625Y25519139D01*
X13392621Y25607379D01*
X13480861Y25722375D01*
X13536330Y25856291D01*
X13555250Y26000000D01*
X14444750Y26000000D01*
X14463669Y25856292D01*
X14466235Y25850098D01*
X14519139Y25722375D01*
X14607379Y25607379D01*
X14722375Y25519139D01*
X14856291Y25463670D01*
X15000000Y25444750D01*
X15143709Y25463670D01*
X15277625Y25519139D01*
X15392621Y25607379D01*
X15480861Y25722375D01*
X15536330Y25856291D01*
X15555250Y26000000D01*
X16444750Y26000000D01*
X16463669Y25856292D01*
X16466235Y25850098D01*
X16519139Y25722375D01*
X16607379Y25607379D01*
X16722375Y25519139D01*
X16856291Y25463670D01*
X17000000Y25444750D01*
X17143709Y25463670D01*
X17277625Y25519139D01*
X17392621Y25607379D01*
X17480861Y25722375D01*
X17536330Y25856291D01*
X17555250Y26000000D01*
X18444750Y26000000D01*
X18463669Y25856292D01*
X18466235Y25850098D01*
X18519139Y25722375D01*
X18607379Y25607379D01*
X18722375Y25519139D01*
X18856291Y25463670D01*
X19000000Y25444750D01*
X19143709Y25463670D01*
X19277625Y25519139D01*
X19392621Y25607379D01*
X19480861Y25722375D01*
X19536330Y25856291D01*
X19555250Y26000000D01*
X20444750Y26000000D01*
X20463669Y25856292D01*
X20466235Y25850098D01*
X20519139Y25722375D01*
X20607379Y25607379D01*
X20722375Y25519139D01*
X20856291Y25463670D01*
X21000000Y25444750D01*
X21143709Y25463670D01*
X21277625Y25519139D01*
X21392621Y25607379D01*
X21480861Y25722375D01*
X21536330Y25856291D01*
X21555250Y26000000D01*
X22444750Y26000000D01*
X22463669Y25856292D01*
X22466235Y25850098D01*
X22519139Y25722375D01*
X22607379Y25607379D01*
X22722375Y25519139D01*
X22856291Y25463670D01*
X23000000Y25444750D01*
X23143709Y25463670D01*
X23277625Y25519139D01*
X23392621Y25607379D01*
X23480861Y25722375D01*
X23536330Y25856291D01*
X23555250Y26000000D01*
X28444750Y26000000D01*
X28463669Y25856292D01*
X28466235Y25850098D01*
X28519139Y25722375D01*
X28607379Y25607379D01*
X28722375Y25519139D01*
X28856291Y25463670D01*
X29000000Y25444750D01*
X29143709Y25463670D01*
X29277625Y25519139D01*
X29392621Y25607379D01*
X29480861Y25722375D01*
X29536330Y25856291D01*
X29555250Y26000000D01*
X29536330Y26143709D01*
X29480861Y26277625D01*
X29392621Y26392621D01*
X29277625Y26480861D01*
X29277623Y26480862D01*
X29143708Y26536331D01*
X29000000Y26555250D01*
X28856291Y26536331D01*
X28722376Y26480862D01*
X28607379Y26392621D01*
X28519138Y26277624D01*
X28463669Y26143709D01*
X28444750Y26000000D01*
X23555250Y26000000D01*
X23536330Y26143709D01*
X23480861Y26277625D01*
X23392621Y26392621D01*
X23277625Y26480861D01*
X23277623Y26480862D01*
X23143708Y26536331D01*
X23000000Y26555250D01*
X22856291Y26536331D01*
X22722376Y26480862D01*
X22607379Y26392621D01*
X22519138Y26277624D01*
X22463669Y26143709D01*
X22444750Y26000000D01*
X21555250Y26000000D01*
X21536330Y26143709D01*
X21480861Y26277625D01*
X21392621Y26392621D01*
X21277625Y26480861D01*
X21277623Y26480862D01*
X21143708Y26536331D01*
X21000000Y26555250D01*
X20856291Y26536331D01*
X20722376Y26480862D01*
X20607379Y26392621D01*
X20519138Y26277624D01*
X20463669Y26143709D01*
X20444750Y26000000D01*
X19555250Y26000000D01*
X19536330Y26143709D01*
X19480861Y26277625D01*
X19392621Y26392621D01*
X19277625Y26480861D01*
X19277623Y26480862D01*
X19143708Y26536331D01*
X19000000Y26555250D01*
X18856291Y26536331D01*
X18722376Y26480862D01*
X18607379Y26392621D01*
X18519138Y26277624D01*
X18463669Y26143709D01*
X18444750Y26000000D01*
X17555250Y26000000D01*
X17536330Y26143709D01*
X17480861Y26277625D01*
X17392621Y26392621D01*
X17277625Y26480861D01*
X17277623Y26480862D01*
X17143708Y26536331D01*
X17000000Y26555250D01*
X16856291Y26536331D01*
X16722376Y26480862D01*
X16607379Y26392621D01*
X16519138Y26277624D01*
X16463669Y26143709D01*
X16444750Y26000000D01*
X15555250Y26000000D01*
X15536330Y26143709D01*
X15480861Y26277625D01*
X15392621Y26392621D01*
X15277625Y26480861D01*
X15277623Y26480862D01*
X15143708Y26536331D01*
X15000000Y26555250D01*
X14856291Y26536331D01*
X14722376Y26480862D01*
X14607379Y26392621D01*
X14519138Y26277624D01*
X14463669Y26143709D01*
X14444750Y26000000D01*
X13555250Y26000000D01*
X13536330Y26143709D01*
X13480861Y26277625D01*
X13392621Y26392621D01*
X13277625Y26480861D01*
X13277623Y26480862D01*
X13143708Y26536331D01*
X13000000Y26555250D01*
X12856291Y26536331D01*
X12722376Y26480862D01*
X12607379Y26392621D01*
X12519138Y26277624D01*
X12463669Y26143709D01*
X12444750Y26000000D01*
X11555250Y26000000D01*
X11536330Y26143709D01*
X11480861Y26277625D01*
X11392621Y26392621D01*
X11277625Y26480861D01*
X11277623Y26480862D01*
X11143708Y26536331D01*
X11000000Y26555250D01*
X10856291Y26536331D01*
X10722376Y26480862D01*
X10607379Y26392621D01*
X10519138Y26277624D01*
X10463669Y26143709D01*
X10444750Y26000000D01*
X9555250Y26000000D01*
X9536330Y26143709D01*
X9480861Y26277625D01*
X9392621Y26392621D01*
X9277625Y26480861D01*
X9277623Y26480862D01*
X9143708Y26536331D01*
X9000000Y26555250D01*
X8856291Y26536331D01*
X8722376Y26480862D01*
X8607379Y26392621D01*
X8519138Y26277624D01*
X8463669Y26143709D01*
X8444750Y26000000D01*
X3558852Y26000000D01*
X3418406Y26071560D01*
X3216253Y26137244D01*
X3216240Y26137247D01*
X3006289Y26170500D01*
X3006287Y26170500D01*
X2793713Y26170500D01*
X2793711Y26170500D01*
X2583759Y26137247D01*
X2583746Y26137244D01*
X2381593Y26071560D01*
X2192183Y25975052D01*
X2020212Y25850107D01*
X2020208Y25850104D01*
X1869896Y25699792D01*
X1869893Y25699789D01*
X1869893Y25699788D01*
X1744948Y25527817D01*
X1648440Y25338407D01*
X1582756Y25136254D01*
X1582753Y25136241D01*
X1549500Y24926289D01*
X1549500Y24713712D01*
X50001Y24713712D01*
X50001Y24819478D01*
X50009Y24820550D01*
X50039Y24822688D01*
X52441Y24988323D01*
X52970Y24996135D01*
X93482Y25329781D01*
X95087Y25338540D01*
X175392Y25664354D01*
X178045Y25672867D01*
X297030Y25986602D01*
X300695Y25994745D01*
X341010Y26071560D01*
X456631Y26291858D01*
X461241Y26299484D01*
X651858Y26575641D01*
X657360Y26582663D01*
X879873Y26833828D01*
X886171Y26840126D01*
X1137335Y27062638D01*
X1144358Y27068140D01*
X1420510Y27258755D01*
X1428146Y27263371D01*
X1725262Y27419308D01*
X1733386Y27422964D01*
X2047127Y27541951D01*
X2055645Y27544606D01*
X2381459Y27624912D01*
X2390220Y27626517D01*
X2723865Y27667028D01*
X2731674Y27667557D01*
X2899590Y27669993D01*
X2900386Y27669999D01*
X30899413Y27669999D01*
X30900530Y27669991D01*
G37*
%TD.AperFunction*%
D13*
X33750002Y2819999D02*
X33750002Y5729999D01*
X2900001Y-30000D02*
X30900001Y-30002D01*
X33750002Y5729999D02*
X33822501Y5730000D01*
X33750002Y2819999D02*
G75*
G02*
X30900001Y-30004I-2850003J0D01*
G01*
X30900001Y27669999D02*
G75*
G02*
X33749999Y24820000I-2J-2850000D01*
G01*
X33750000Y24820000D02*
X33750002Y20929999D01*
X2900001Y-30000D02*
G75*
G02*
X50000Y2819999I-2J2849999D01*
G01*
X50001Y24819999D02*
X50001Y2819999D01*
X33750002Y20929999D02*
X33812502Y20930000D01*
X50001Y24819999D02*
G75*
G02*
X2900000Y27669997I2849998J0D01*
G01*
X30900001Y27669999D02*
X2900000Y27669998D01*
%TO.C,AE1*%
X39515001Y20930001D02*
X33815001Y20930001D01*
X39515001Y20930001D02*
X39525001Y5730001D01*
X39525001Y5730001D02*
X33825001Y5730001D01*
%TD*%
M02*
