M48
; DRILL file {KiCad 8.0.0} date 2024-03-10T12:34:57+0000
; FORMAT={-:-/ absolute / metric / decimal}
; #@! TF.CreationDate,2024-03-10T12:34:57+00:00
; #@! TF.GenerationSoftware,Kicad,Pcbnew,8.0.0
; #@! TF.FileFunction,Plated,1,4,PTH
FMAT,2
METRIC
; #@! TA.AperFunction,Plated,PTH,ViaDrill
T1C0.300
; #@! TA.AperFunction,Plated,PTH,ViaDrill
T2C0.400
%
G90
G05
T1
X1.0Y22.0
X1.0Y20.0
X1.0Y18.0
X1.0Y16.0
X1.0Y14.0
X1.0Y12.0
X1.0Y10.0
X1.0Y8.0
X1.0Y6.0
X1.0Y4.0
X1.0Y2.0
X3.0Y22.0
X3.0Y20.0
X3.0Y18.0
X3.0Y16.0
X3.0Y14.0
X3.0Y12.0
X3.0Y10.0
X3.0Y8.0
X3.0Y6.0
X3.0Y4.0
X3.0Y2.0
X5.0Y24.0
X5.0Y22.0
X5.0Y20.0
X5.0Y18.0
X5.0Y16.0
X5.0Y14.0
X5.0Y12.0
X5.0Y10.0
X5.0Y8.0
X5.0Y6.0
X5.0Y4.0
X5.0Y2.0
X7.0Y24.0
X7.0Y22.0
X7.0Y20.0
X7.0Y18.0
X7.0Y16.0
X7.0Y14.0
X7.0Y12.0
X7.0Y10.0
X7.0Y8.0
X7.0Y6.0
X7.0Y4.0
X7.0Y2.0
X9.0Y26.0
X9.0Y24.0
X9.0Y22.0
X9.0Y20.0
X9.0Y18.0
X9.0Y16.0
X9.0Y14.0
X9.0Y12.0
X9.0Y10.0
X9.0Y8.0
X9.0Y6.0
X9.0Y4.0
X9.0Y2.0
X11.0Y26.0
X11.0Y24.0
X11.0Y22.0
X11.0Y20.0
X11.0Y18.0
X11.0Y16.0
X11.0Y14.0
X11.0Y12.0
X11.0Y10.0
X11.0Y8.0
X11.0Y6.0
X11.0Y4.0
X11.0Y2.0
X13.0Y26.0
X13.0Y24.0
X13.0Y22.0
X13.0Y20.0
X13.0Y18.0
X13.0Y16.0
X13.0Y14.0
X13.0Y12.0
X13.0Y10.0
X13.0Y8.0
X13.0Y6.0
X13.0Y4.0
X13.0Y2.0
X15.0Y26.0
X15.0Y24.0
X15.0Y22.0
X15.0Y20.0
X15.0Y18.0
X15.0Y16.0
X15.0Y14.0
X15.0Y12.0
X15.0Y10.0
X15.0Y8.0
X15.0Y6.0
X15.0Y4.0
X15.0Y2.0
X17.0Y26.0
X17.0Y24.0
X17.0Y22.0
X17.0Y20.0
X17.0Y18.0
X17.0Y16.0
X17.0Y14.0
X17.0Y12.0
X17.0Y10.0
X17.0Y8.0
X17.0Y6.0
X17.0Y4.0
X17.0Y2.0
X19.0Y26.0
X19.0Y24.0
X19.0Y22.0
X19.0Y14.0
X19.0Y12.0
X19.0Y10.0
X19.0Y8.0
X19.0Y6.0
X19.0Y4.0
X19.0Y2.0
X21.0Y26.0
X21.0Y24.0
X21.0Y22.0
X21.0Y14.0
X21.0Y12.0
X21.0Y10.0
X21.0Y8.0
X21.0Y6.0
X21.0Y4.0
X21.0Y2.0
X23.0Y26.0
X23.0Y24.0
X23.0Y22.0
X23.0Y14.0
X23.0Y12.0
X23.0Y10.0
X23.0Y8.0
X23.0Y6.0
X23.0Y4.0
X23.0Y2.0
X25.0Y24.0
X25.0Y22.0
X25.0Y14.0
X25.0Y12.0
X25.0Y10.0
X25.0Y8.0
X25.0Y6.0
X25.0Y4.0
X25.0Y2.0
X26.74Y16.22
X27.0Y24.0
X27.0Y22.0
X27.0Y14.0
X27.0Y12.0
X27.0Y10.0
X27.0Y8.0
X27.0Y6.0
X27.0Y4.0
X29.0Y26.0
X29.0Y24.0
X29.0Y22.0
X29.0Y14.0
X29.0Y12.0
X29.0Y10.0
X29.0Y8.0
X29.0Y6.0
X29.0Y4.0
X29.0Y2.0
X29.77Y16.19
X31.0Y22.0
X31.0Y14.0
X31.0Y12.0
X31.0Y10.0
X31.0Y8.0
X31.0Y6.0
X31.35Y16.97
X31.35Y18.82
X34.07Y19.98
T2
X23.0Y20.0
X25.0Y20.0
X27.0Y20.0
X29.0Y20.0
M30
