%TF.GenerationSoftware,KiCad,Pcbnew,8.0.0*%
%TF.CreationDate,2024-03-10T12:34:59+00:00*%
%TF.ProjectId,MoveCritic_FBTM_RF,4d6f7665-4372-4697-9469-635f4642544d,rev?*%
%TF.SameCoordinates,PX7ee4219PY616af6f*%
%TF.FileFunction,Paste,Top*%
%TF.FilePolarity,Positive*%
%FSLAX46Y46*%
G04 Gerber Fmt 4.6, Leading zero omitted, Abs format (unit mm)*
G04 Created by KiCad (PCBNEW 8.0.0) date 2024-03-10 12:34:59*
%MOMM*%
%LPD*%
G01*
G04 APERTURE LIST*
G04 Aperture macros list*
%AMRoundRect*
0 Rectangle with rounded corners*
0 $1 Rounding radius*
0 $2 $3 $4 $5 $6 $7 $8 $9 X,Y pos of 4 corners*
0 Add a 4 corners polygon primitive as box body*
4,1,4,$2,$3,$4,$5,$6,$7,$8,$9,$2,$3,0*
0 Add four circle primitives for the rounded corners*
1,1,$1+$1,$2,$3*
1,1,$1+$1,$4,$5*
1,1,$1+$1,$6,$7*
1,1,$1+$1,$8,$9*
0 Add four rect primitives between the rounded corners*
20,1,$1+$1,$2,$3,$4,$5,0*
20,1,$1+$1,$4,$5,$6,$7,0*
20,1,$1+$1,$6,$7,$8,$9,0*
20,1,$1+$1,$8,$9,$2,$3,0*%
G04 Aperture macros list end*
%ADD10R,1.000000X1.000000*%
%ADD11R,2.200000X1.050000*%
%ADD12RoundRect,0.147500X-0.147500X-0.172500X0.147500X-0.172500X0.147500X0.172500X-0.147500X0.172500X0*%
%ADD13RoundRect,0.140000X-0.170000X0.140000X-0.170000X-0.140000X0.170000X-0.140000X0.170000X0.140000X0*%
%ADD14RoundRect,0.068750X-0.068750X-0.281250X0.068750X-0.281250X0.068750X0.281250X-0.068750X0.281250X0*%
%ADD15RoundRect,0.061250X-0.163750X-0.061250X0.163750X-0.061250X0.163750X0.061250X-0.163750X0.061250X0*%
%TA.AperFunction,Profile*%
%ADD16C,0.100000*%
%TD*%
G04 APERTURE END LIST*
D10*
%TO.C,J1*%
X21750000Y17910001D03*
D11*
X20250000Y16435001D03*
D10*
X18750000Y17910001D03*
D11*
X20250000Y19385001D03*
%TD*%
D12*
%TO.C,L3*%
X27767502Y17899999D03*
X28737502Y17899999D03*
%TD*%
D13*
%TO.C,C14*%
X26727501Y17904998D03*
X26727501Y16944998D03*
%TD*%
%TO.C,C15*%
X29777500Y17905000D03*
X29777500Y16945000D03*
%TD*%
D14*
%TO.C,FLT1*%
X30715000Y17900000D03*
D15*
X31327500Y18127500D03*
X31327500Y17672500D03*
D14*
X31940000Y17900000D03*
%TD*%
D16*
X33750002Y2819999D02*
X33750002Y5729999D01*
X2900001Y-30000D02*
X30900001Y-30002D01*
X33750002Y5729999D02*
X33822501Y5730000D01*
X33750002Y2819999D02*
G75*
G02*
X30900001Y-30004I-2850003J0D01*
G01*
X30900001Y27669999D02*
G75*
G02*
X33749999Y24820000I-2J-2850000D01*
G01*
X33750000Y24820000D02*
X33750002Y20929999D01*
X2900001Y-30000D02*
G75*
G02*
X50000Y2819999I-2J2849999D01*
G01*
X50001Y24819999D02*
X50001Y2819999D01*
X33750002Y20929999D02*
X33812502Y20930000D01*
X50001Y24819999D02*
G75*
G02*
X2900000Y27669997I2849998J0D01*
G01*
X30900001Y27669999D02*
X2900000Y27669998D01*
%TO.C,AE1*%
X39515001Y20930001D02*
X33815001Y20930001D01*
X39515001Y20930001D02*
X39525001Y5730001D01*
X39525001Y5730001D02*
X33825001Y5730001D01*
%TD*%
M02*
