%TF.GenerationSoftware,KiCad,Pcbnew,8.0.0*%
%TF.CreationDate,2024-03-10T12:34:59+00:00*%
%TF.ProjectId,MoveCritic_FBTM_RF,4d6f7665-4372-4697-9469-635f4642544d,rev?*%
%TF.SameCoordinates,PX7ee4219PY616af6f*%
%TF.FileFunction,Legend,Top*%
%TF.FilePolarity,Positive*%
%FSLAX46Y46*%
G04 Gerber Fmt 4.6, Leading zero omitted, Abs format (unit mm)*
G04 Created by KiCad (PCBNEW 8.0.0) date 2024-03-10 12:34:59*
%MOMM*%
%LPD*%
G01*
G04 APERTURE LIST*
%ADD10C,0.150000*%
%ADD11C,0.125000*%
%ADD12C,0.120000*%
%ADD13C,0.100000*%
%TA.AperFunction,Profile*%
%ADD14C,0.100000*%
%TD*%
G04 APERTURE END LIST*
D10*
X32030000Y8770000D02*
X32430000Y8370000D01*
X32030000Y6770000D02*
X30029999Y6770000D01*
X32030000Y6770000D02*
X32030000Y8770000D01*
X32030000Y8770000D02*
X31630000Y8370000D01*
X30029999Y6770000D02*
X30430000Y7170000D01*
X32477214Y6770000D02*
G75*
G02*
X31582786Y6770000I-447214J0D01*
G01*
X31582786Y6770000D02*
G75*
G02*
X32477214Y6770000I447214J0D01*
G01*
X30029999Y6770000D02*
X30430000Y6370000D01*
D11*
X29826521Y7175786D02*
X29826521Y6937691D01*
X29659855Y7437691D02*
X29826521Y7175786D01*
X29826521Y7175786D02*
X29993188Y7437691D01*
D12*
%TO.C,J1*%
X18750000Y19410001D02*
X18950000Y19410001D01*
X18750000Y18610001D02*
X18750000Y19410001D01*
X18750000Y16410001D02*
X18750000Y17210001D01*
X18950000Y16410001D02*
X18750000Y16410001D01*
X21550000Y19410001D02*
X21750000Y19410001D01*
X21750000Y19410001D02*
X21750000Y18610001D01*
X21750000Y18610001D02*
X22250000Y18610001D01*
X21750000Y17210001D02*
X21750000Y16610001D01*
X21750000Y17210001D02*
X22250000Y17210001D01*
X21750000Y16610001D02*
X21550000Y16410001D01*
%TO.C,C14*%
X26367501Y17532834D02*
X26367501Y17317162D01*
X27087501Y17532834D02*
X27087501Y17317162D01*
%TO.C,C15*%
X29417500Y17532836D02*
X29417500Y17317164D01*
X30137500Y17532836D02*
X30137500Y17317164D01*
D13*
%TO.C,FLT1*%
X30387500Y18430000D02*
X32177500Y18430000D01*
X30387500Y18120000D02*
X30387500Y18430000D01*
X30387500Y17430000D02*
X30387500Y17710000D01*
X32177500Y18430000D02*
X32177500Y17430000D01*
X32177500Y17430000D02*
X30387500Y17430000D01*
X30428731Y17910000D02*
G75*
G02*
X30346269Y17910000I-41231J0D01*
G01*
X30346269Y17910000D02*
G75*
G02*
X30428731Y17910000I41231J0D01*
G01*
%TD*%
D14*
X33750002Y2819999D02*
X33750002Y5729999D01*
X2900001Y-30000D02*
X30900001Y-30002D01*
X33750002Y5729999D02*
X33822501Y5730000D01*
X33750002Y2819999D02*
G75*
G02*
X30900001Y-30004I-2850003J0D01*
G01*
X30900001Y27669999D02*
G75*
G02*
X33749999Y24820000I-2J-2850000D01*
G01*
X33750000Y24820000D02*
X33750002Y20929999D01*
X2900001Y-30000D02*
G75*
G02*
X50000Y2819999I-2J2849999D01*
G01*
X50001Y24819999D02*
X50001Y2819999D01*
X33750002Y20929999D02*
X33812502Y20930000D01*
X50001Y24819999D02*
G75*
G02*
X2900000Y27669997I2849998J0D01*
G01*
X30900001Y27669999D02*
X2900000Y27669998D01*
%TO.C,AE1*%
X39515001Y20930001D02*
X33815001Y20930001D01*
X39515001Y20930001D02*
X39525001Y5730001D01*
X39525001Y5730001D02*
X33825001Y5730001D01*
%TD*%
M02*
