%TF.GenerationSoftware,KiCad,Pcbnew,8.0.0*%
%TF.CreationDate,2024-03-13T13:13:58+00:00*%
%TF.ProjectId,HW_MoveCritic_KiCad_Project,48575f4d-6f76-4654-9372-697469635f4b,rev?*%
%TF.SameCoordinates,PX7ee4219PY616af6f*%
%TF.FileFunction,Paste,Top*%
%TF.FilePolarity,Positive*%
%FSLAX46Y46*%
G04 Gerber Fmt 4.6, Leading zero omitted, Abs format (unit mm)*
G04 Created by KiCad (PCBNEW 8.0.0) date 2024-03-13 13:13:58*
%MOMM*%
%LPD*%
G01*
G04 APERTURE LIST*
G04 Aperture macros list*
%AMRoundRect*
0 Rectangle with rounded corners*
0 $1 Rounding radius*
0 $2 $3 $4 $5 $6 $7 $8 $9 X,Y pos of 4 corners*
0 Add a 4 corners polygon primitive as box body*
4,1,4,$2,$3,$4,$5,$6,$7,$8,$9,$2,$3,0*
0 Add four circle primitives for the rounded corners*
1,1,$1+$1,$2,$3*
1,1,$1+$1,$4,$5*
1,1,$1+$1,$6,$7*
1,1,$1+$1,$8,$9*
0 Add four rect primitives between the rounded corners*
20,1,$1+$1,$2,$3,$4,$5,0*
20,1,$1+$1,$4,$5,$6,$7,0*
20,1,$1+$1,$6,$7,$8,$9,0*
20,1,$1+$1,$8,$9,$2,$3,0*%
G04 Aperture macros list end*
%ADD10RoundRect,0.079500X0.100500X-0.079500X0.100500X0.079500X-0.100500X0.079500X-0.100500X-0.079500X0*%
%ADD11RoundRect,0.135000X0.135000X0.185000X-0.135000X0.185000X-0.135000X-0.185000X0.135000X-0.185000X0*%
%ADD12R,0.500000X0.375000*%
%ADD13R,0.650000X0.300000*%
%ADD14RoundRect,0.218750X-0.218750X-0.381250X0.218750X-0.381250X0.218750X0.381250X-0.218750X0.381250X0*%
%ADD15RoundRect,0.079500X-0.079500X-0.100500X0.079500X-0.100500X0.079500X0.100500X-0.079500X0.100500X0*%
%ADD16RoundRect,0.147500X-0.147500X-0.172500X0.147500X-0.172500X0.147500X0.172500X-0.147500X0.172500X0*%
%ADD17R,1.100000X1.900000*%
%ADD18RoundRect,0.135000X0.185000X-0.135000X0.185000X0.135000X-0.185000X0.135000X-0.185000X-0.135000X0*%
%ADD19RoundRect,0.140000X-0.170000X0.140000X-0.170000X-0.140000X0.170000X-0.140000X0.170000X0.140000X0*%
%ADD20RoundRect,0.135000X-0.185000X0.135000X-0.185000X-0.135000X0.185000X-0.135000X0.185000X0.135000X0*%
%ADD21RoundRect,0.140000X0.140000X0.170000X-0.140000X0.170000X-0.140000X-0.170000X0.140000X-0.170000X0*%
%ADD22RoundRect,0.200000X-0.200000X-0.275000X0.200000X-0.275000X0.200000X0.275000X-0.200000X0.275000X0*%
%ADD23RoundRect,0.079500X-0.100500X0.079500X-0.100500X-0.079500X0.100500X-0.079500X0.100500X0.079500X0*%
%ADD24RoundRect,0.079500X0.079500X0.100500X-0.079500X0.100500X-0.079500X-0.100500X0.079500X-0.100500X0*%
%ADD25O,1.800000X1.000000*%
%ADD26O,2.100000X1.000000*%
%ADD27RoundRect,0.150000X-0.425000X0.150000X-0.425000X-0.150000X0.425000X-0.150000X0.425000X0.150000X0*%
%ADD28RoundRect,0.075000X-0.500000X0.075000X-0.500000X-0.075000X0.500000X-0.075000X0.500000X0.075000X0*%
%ADD29RoundRect,0.062500X0.375000X-0.062500X0.375000X0.062500X-0.375000X0.062500X-0.375000X-0.062500X0*%
%ADD30RoundRect,0.062500X0.062500X-0.375000X0.062500X0.375000X-0.062500X0.375000X-0.062500X-0.375000X0*%
%ADD31RoundRect,0.250000X0.315000X-0.315000X0.315000X0.315000X-0.315000X0.315000X-0.315000X-0.315000X0*%
%ADD32RoundRect,0.147500X0.172500X-0.147500X0.172500X0.147500X-0.172500X0.147500X-0.172500X-0.147500X0*%
%ADD33RoundRect,0.200000X-0.275000X0.200000X-0.275000X-0.200000X0.275000X-0.200000X0.275000X0.200000X0*%
%ADD34RoundRect,0.225000X0.225000X0.375000X-0.225000X0.375000X-0.225000X-0.375000X0.225000X-0.375000X0*%
%ADD35RoundRect,0.200000X0.200000X0.275000X-0.200000X0.275000X-0.200000X-0.275000X0.200000X-0.275000X0*%
%ADD36RoundRect,0.140000X-0.140000X-0.170000X0.140000X-0.170000X0.140000X0.170000X-0.140000X0.170000X0*%
%ADD37RoundRect,0.068750X-0.068750X-0.281250X0.068750X-0.281250X0.068750X0.281250X-0.068750X0.281250X0*%
%ADD38RoundRect,0.061250X-0.163750X-0.061250X0.163750X-0.061250X0.163750X0.061250X-0.163750X0.061250X0*%
%ADD39R,0.675000X0.254000*%
%ADD40R,0.254000X0.675000*%
%ADD41R,1.400000X1.200000*%
%ADD42RoundRect,0.150000X-0.512500X-0.150000X0.512500X-0.150000X0.512500X0.150000X-0.512500X0.150000X0*%
%TA.AperFunction,Profile*%
%ADD43C,0.100000*%
%TD*%
G04 APERTURE END LIST*
D10*
%TO.C,C4*%
X15570000Y21955000D03*
X15570000Y21265000D03*
%TD*%
D11*
%TO.C,R10*%
X26090000Y3949998D03*
X27110000Y3949998D03*
%TD*%
D12*
%TO.C,U2*%
X11000001Y17987498D03*
D13*
X11075001Y17449998D03*
D12*
X11000001Y16912498D03*
X9300001Y16912498D03*
D13*
X9225001Y17449998D03*
D12*
X9300001Y17987498D03*
%TD*%
D14*
%TO.C,L2*%
X19712500Y23999998D03*
X17587500Y23999998D03*
%TD*%
D10*
%TO.C,C6*%
X14270000Y14974998D03*
X14270000Y14284998D03*
%TD*%
D15*
%TO.C,C1*%
X24095000Y17250000D03*
X23405000Y17250000D03*
%TD*%
D16*
%TO.C,L3*%
X28987502Y17929999D03*
X28017502Y17929999D03*
%TD*%
D17*
%TO.C,X1*%
X16920001Y8159999D03*
X19420001Y8159999D03*
%TD*%
D18*
%TO.C,R4*%
X9066333Y20109998D03*
X9066333Y19089998D03*
%TD*%
D16*
%TO.C,D2*%
X17585000Y25960000D03*
X16615000Y25960000D03*
%TD*%
D10*
%TO.C,C20*%
X22850000Y6645000D03*
X22850000Y5955000D03*
%TD*%
D19*
%TO.C,C15*%
X30027500Y16975000D03*
X30027500Y17935000D03*
%TD*%
D20*
%TO.C,R3*%
X9127501Y14809998D03*
X9127501Y15829998D03*
%TD*%
D15*
%TO.C,C11*%
X19695001Y21290000D03*
X19005001Y21290000D03*
%TD*%
D21*
%TO.C,C13*%
X15700001Y10689998D03*
X16660001Y10689998D03*
%TD*%
D18*
%TO.C,R8*%
X22750001Y9710000D03*
X22750001Y8690000D03*
%TD*%
D22*
%TO.C,R2*%
X17557501Y4569998D03*
X15907501Y4569998D03*
%TD*%
D15*
%TO.C,C2*%
X20895001Y12110000D03*
X20205001Y12110000D03*
%TD*%
D23*
%TO.C,C18*%
X8720001Y24184999D03*
X8720001Y24874999D03*
%TD*%
D24*
%TO.C,C21*%
X24455001Y4049999D03*
X25145001Y4049999D03*
%TD*%
D23*
%TO.C,C10*%
X24550000Y18655000D03*
X24550000Y19345000D03*
%TD*%
%TO.C,C19*%
X13732729Y24201397D03*
X13732729Y24891397D03*
%TD*%
D10*
%TO.C,C8*%
X17140001Y21959999D03*
X17140001Y21269999D03*
%TD*%
D25*
%TO.C,J3*%
X2635000Y12880000D03*
D26*
X6815000Y12880000D03*
D25*
X2635000Y21520000D03*
D26*
X6815000Y21520000D03*
D27*
X7390000Y20400000D03*
X7390000Y19600000D03*
D28*
X7390000Y18950000D03*
X7390000Y17950000D03*
X7390000Y16450000D03*
X7390000Y15450000D03*
D27*
X7390000Y14800000D03*
X7390000Y14000000D03*
X7390000Y14000000D03*
X7390000Y14800000D03*
D28*
X7390000Y15950000D03*
X7390000Y16950000D03*
X7390000Y17450000D03*
X7390000Y18450000D03*
D27*
X7390000Y19600000D03*
X7390000Y20400000D03*
%TD*%
D24*
%TO.C,C17*%
X16885000Y5740000D03*
X17575000Y5740000D03*
%TD*%
D29*
%TO.C,U1*%
X15405002Y13929999D03*
X15405002Y14429999D03*
X15405002Y14929999D03*
X15405002Y15429999D03*
X15405002Y15929999D03*
X15405002Y16429999D03*
X15405002Y16929999D03*
X15405002Y17429999D03*
X15405002Y17929999D03*
X15405002Y18429999D03*
X15405002Y18929999D03*
X15405002Y19429999D03*
D30*
X16092502Y20117499D03*
X16592502Y20117499D03*
X17092502Y20117499D03*
X17592502Y20117499D03*
X18092502Y20117499D03*
X18592502Y20117499D03*
X19092502Y20117499D03*
X19592502Y20117499D03*
X20092502Y20117499D03*
X20592502Y20117499D03*
X21092502Y20117499D03*
X21592502Y20117499D03*
D29*
X22280002Y19429999D03*
X22280002Y18929999D03*
X22280002Y18429999D03*
X22280002Y17929999D03*
X22280002Y17429999D03*
X22280002Y16929999D03*
X22280002Y16429999D03*
X22280002Y15929999D03*
X22280002Y15429999D03*
X22280002Y14929999D03*
X22280002Y14429999D03*
X22280002Y13929999D03*
D30*
X21592502Y13242499D03*
X21092502Y13242499D03*
X20592502Y13242499D03*
X20092502Y13242499D03*
X19592502Y13242499D03*
X19092502Y13242499D03*
X18592502Y13242499D03*
X18092502Y13242499D03*
X17592502Y13242499D03*
X17092502Y13242499D03*
X16592502Y13242499D03*
X16092502Y13242499D03*
D31*
X20942502Y18779999D03*
X19542502Y18779999D03*
X18142502Y18779999D03*
X16742502Y18779999D03*
X20942502Y17379999D03*
X19542502Y17379999D03*
X18142502Y17379999D03*
X16742502Y17379999D03*
X20942502Y15979999D03*
X19542502Y15979999D03*
X18142502Y15979999D03*
X16742502Y15979999D03*
X20942502Y14579999D03*
X19542502Y14579999D03*
X18142502Y14579999D03*
X16742502Y14579999D03*
%TD*%
D32*
%TO.C,L1*%
X18060002Y22334999D03*
X18060002Y21364999D03*
%TD*%
D33*
%TO.C,R6*%
X26050002Y11274999D03*
X26050002Y12924999D03*
%TD*%
D23*
%TO.C,C22*%
X28290001Y5855000D03*
X28290001Y6545000D03*
%TD*%
D34*
%TO.C,D1*%
X1450000Y10499998D03*
X4750000Y10499998D03*
%TD*%
D35*
%TO.C,R1*%
X18957500Y4560000D03*
X20607500Y4560000D03*
%TD*%
D10*
%TO.C,C9*%
X16360001Y21955000D03*
X16360001Y21265000D03*
%TD*%
D19*
%TO.C,C14*%
X26977501Y16974998D03*
X26977501Y17934998D03*
%TD*%
D23*
%TO.C,C3*%
X13420000Y12754999D03*
X13420000Y13444999D03*
%TD*%
%TO.C,C23*%
X23700002Y18654999D03*
X23700002Y19344999D03*
%TD*%
D20*
%TO.C,R7*%
X24700000Y11089998D03*
X24700000Y12109998D03*
%TD*%
D23*
%TO.C,C16*%
X14550001Y6504998D03*
X14550001Y7194998D03*
%TD*%
%TO.C,C7*%
X14270001Y12775000D03*
X14270001Y13465000D03*
%TD*%
D36*
%TO.C,C12*%
X18680000Y10700000D03*
X17720000Y10700000D03*
%TD*%
D37*
%TO.C,FLT1*%
X32190000Y17930000D03*
D38*
X31577500Y17702500D03*
X31577500Y18157500D03*
D37*
X30965000Y17930000D03*
%TD*%
D39*
%TO.C,U5*%
X23937501Y5749999D03*
X23937501Y6249999D03*
X23937501Y6749999D03*
X23937501Y7249999D03*
X23937501Y7749999D03*
X23937501Y8249999D03*
X23937501Y8749999D03*
X23937501Y9249999D03*
X23937501Y9749999D03*
D40*
X24850001Y9887499D03*
X25350001Y9887499D03*
X25850001Y9887499D03*
X26350001Y9887499D03*
D39*
X27262501Y9749999D03*
X27262501Y9249999D03*
X27262501Y8749999D03*
X27262501Y8249999D03*
X27262501Y7749999D03*
X27262501Y7249999D03*
X27262501Y6749999D03*
X27262501Y6249999D03*
X27262501Y5749999D03*
X27262501Y5249999D03*
D40*
X26350001Y5112499D03*
X25850001Y5112499D03*
X25350001Y5112499D03*
X24850001Y5112499D03*
D39*
X23937501Y5249999D03*
%TD*%
D10*
%TO.C,C5*%
X13420000Y14955000D03*
X13420000Y14265000D03*
%TD*%
D41*
%TO.C,X2*%
X24210001Y21829999D03*
X22010001Y21829999D03*
X22010001Y23529999D03*
X24210001Y23529999D03*
%TD*%
D42*
%TO.C,U3*%
X12360001Y24860000D03*
X12360001Y22960000D03*
X10085001Y22960000D03*
X10085001Y23910000D03*
X10085001Y24860000D03*
%TD*%
D23*
%TO.C,R5*%
X15637500Y25265001D03*
X15637500Y25955001D03*
%TD*%
D43*
X31150001Y27699999D02*
X2849999Y27699998D01*
X0Y24849999D02*
G75*
G02*
X2849999Y27699997I2849998J0D01*
G01*
X34000000Y24850000D02*
X34000002Y20959999D01*
X2850000Y0D02*
X31150001Y-2D01*
X34000002Y2849999D02*
X34000002Y5759999D01*
X0Y24849999D02*
X0Y2849999D01*
X34000002Y2849999D02*
G75*
G02*
X31150001Y-4I-2850003J0D01*
G01*
X31150001Y27699999D02*
G75*
G02*
X33999999Y24850000I-2J-2850000D01*
G01*
X2850000Y0D02*
G75*
G02*
X-1Y2849999I-2J2849999D01*
G01*
%TO.C,AE1*%
X39700000Y20959998D02*
X34000000Y20959998D01*
X39700000Y20959998D02*
X39700000Y5759998D01*
X39700000Y5759998D02*
X34010000Y5759998D01*
%TD*%
M02*
